<?xml version="1.0" encoding="utf-8" standalone="no"?>
<!DOCTYPE svg PUBLIC "-//W3C//DTD SVG 1.1//EN"
  "http://www.w3.org/Graphics/SVG/1.1/DTD/svg11.dtd">
<svg xmlns:xlink="http://www.w3.org/1999/xlink" width="637.056pt" height="144.59699pt" viewBox="0 0 637.056 144.59699" xmlns="http://www.w3.org/2000/svg" version="1.1">
 <metadata>
  <rdf:RDF xmlns:dc="http://purl.org/dc/elements/1.1/" xmlns:cc="http://creativecommons.org/ns#" xmlns:rdf="http://www.w3.org/1999/02/22-rdf-syntax-ns#">
   <cc:Work>
    <dc:type rdf:resource="http://purl.org/dc/dcmitype/StillImage"/>
    <dc:date>2026-06-22T01:42:57.221211</dc:date>
    <dc:format>image/svg+xml</dc:format>
    <dc:creator>
     <cc:Agent>
      <dc:title>Matplotlib v3.10.8, https://matplotlib.org/</dc:title>
     </cc:Agent>
    </dc:creator>
   </cc:Work>
  </rdf:RDF>
 </metadata>
 <defs>
  <style type="text/css">*{stroke-linejoin: round; stroke-linecap: butt}</style>
 </defs>
 <g id="figure_1">
  <g id="patch_1">
   <path d="M 0 144.59699 
L 637.056 144.59699 
L 637.056 -0 
L 0 -0 
z
" style="fill: #ffffff"/>
  </g>
  <g id="axes_1">
   <g id="patch_2">
    <path d="M 7.2 69.024 
L 318.528 69.024 
L 318.528 14.928 
L 7.2 14.928 
z
" clip-path="url(#p11c1a88391)" style="fill: #4f9d69; stroke: #ffffff; stroke-width: 2; stroke-linejoin: miter"/>
   </g>
   <g id="text_1">
    <!-- 3 -->
    <g style="fill: #ffffff" transform="translate(157.29775 46.391) scale(0.16 -0.16)">
     <defs>
      <path id="DejaVuSans-Bold-33" d="M 2981 2516 
Q 3453 2394 3698 2092 
Q 3944 1791 3944 1325 
Q 3944 631 3412 270 
Q 2881 -91 1863 -91 
Q 1503 -91 1142 -33 
Q 781 25 428 141 
L 428 1069 
Q 766 900 1098 814 
Q 1431 728 1753 728 
Q 2231 728 2486 893 
Q 2741 1059 2741 1369 
Q 2741 1688 2480 1852 
Q 2219 2016 1709 2016 
L 1228 2016 
L 1228 2791 
L 1734 2791 
Q 2188 2791 2409 2933 
Q 2631 3075 2631 3366 
Q 2631 3634 2415 3781 
Q 2200 3928 1806 3928 
Q 1516 3928 1219 3862 
Q 922 3797 628 3669 
L 628 4550 
Q 984 4650 1334 4700 
Q 1684 4750 2022 4750 
Q 2931 4750 3382 4451 
Q 3834 4153 3834 3553 
Q 3834 3144 3618 2883 
Q 3403 2622 2981 2516 
z
" transform="scale(0.015625)"/>
     </defs>
     <use xlink:href="#DejaVuSans-Bold-33"/>
    </g>
   </g>
   <g id="patch_3">
    <path d="M 318.528 69.024 
L 422.304 69.024 
L 422.304 14.928 
L 318.528 14.928 
z
" clip-path="url(#p11c1a88391)" style="fill: #1f6f7a; stroke: #ffffff; stroke-width: 2; stroke-linejoin: miter"/>
   </g>
   <g id="text_2">
    <!-- 1 -->
    <g style="fill: #ffffff" transform="translate(364.84975 46.391) scale(0.16 -0.16)">
     <defs>
      <path id="DejaVuSans-Bold-31" d="M 750 831 
L 1813 831 
L 1813 3847 
L 722 3622 
L 722 4441 
L 1806 4666 
L 2950 4666 
L 2950 831 
L 4013 831 
L 4013 0 
L 750 0 
L 750 831 
z
" transform="scale(0.015625)"/>
     </defs>
     <use xlink:href="#DejaVuSans-Bold-31"/>
    </g>
   </g>
   <g id="patch_4">
    <path d="M 422.304 69.024 
L 526.08 69.024 
L 526.08 14.928 
L 422.304 14.928 
z
" clip-path="url(#p11c1a88391)" style="fill: #5b6b7b; stroke: #ffffff; stroke-width: 2; stroke-linejoin: miter"/>
   </g>
   <g id="text_3">
    <!-- 1 -->
    <g style="fill: #ffffff" transform="translate(468.62575 46.391) scale(0.16 -0.16)">
     <use xlink:href="#DejaVuSans-Bold-31"/>
    </g>
   </g>
   <g id="patch_5">
    <path d="M 526.08 69.024 
L 629.856 69.024 
L 629.856 14.928 
L 526.08 14.928 
z
" clip-path="url(#p11c1a88391)" style="fill: #c8553d; stroke: #ffffff; stroke-width: 2; stroke-linejoin: miter"/>
   </g>
   <g id="text_4">
    <!-- 1 -->
    <g style="fill: #ffffff" transform="translate(572.40175 46.391) scale(0.16 -0.16)">
     <use xlink:href="#DejaVuSans-Bold-31"/>
    </g>
   </g>
   <g id="legend_1">
    <g id="patch_6">
     <path d="M 52.899875 108.336053 
L 71.099875 108.336053 
L 71.099875 98.536053 
L 52.899875 98.536053 
z
" style="fill: #4f9d69"/>
    </g>
    <g id="text_5">
     <!-- Both defensible (3) -->
     <g style="fill: #222629" transform="translate(79.499875 108.336053) scale(0.14 -0.14)">
      <defs>
       <path id="DejaVuSans-42" d="M 1259 2228 
L 1259 519 
L 2272 519 
Q 2781 519 3026 730 
Q 3272 941 3272 1375 
Q 3272 1813 3026 2020 
Q 2781 2228 2272 2228 
L 1259 2228 
z
M 1259 4147 
L 1259 2741 
L 2194 2741 
Q 2656 2741 2882 2914 
Q 3109 3088 3109 3444 
Q 3109 3797 2882 3972 
Q 2656 4147 2194 4147 
L 1259 4147 
z
M 628 4666 
L 2241 4666 
Q 2963 4666 3353 4366 
Q 3744 4066 3744 3513 
Q 3744 3084 3544 2831 
Q 3344 2578 2956 2516 
Q 3422 2416 3680 2098 
Q 3938 1781 3938 1306 
Q 3938 681 3513 340 
Q 3088 0 2303 0 
L 628 0 
L 628 4666 
z
" transform="scale(0.015625)"/>
       <path id="DejaVuSans-6f" d="M 1959 3097 
Q 1497 3097 1228 2736 
Q 959 2375 959 1747 
Q 959 1119 1226 758 
Q 1494 397 1959 397 
Q 2419 397 2687 759 
Q 2956 1122 2956 1747 
Q 2956 2369 2687 2733 
Q 2419 3097 1959 3097 
z
M 1959 3584 
Q 2709 3584 3137 3096 
Q 3566 2609 3566 1747 
Q 3566 888 3137 398 
Q 2709 -91 1959 -91 
Q 1206 -91 779 398 
Q 353 888 353 1747 
Q 353 2609 779 3096 
Q 1206 3584 1959 3584 
z
" transform="scale(0.015625)"/>
       <path id="DejaVuSans-74" d="M 1172 4494 
L 1172 3500 
L 2356 3500 
L 2356 3053 
L 1172 3053 
L 1172 1153 
Q 1172 725 1289 603 
Q 1406 481 1766 481 
L 2356 481 
L 2356 0 
L 1766 0 
Q 1100 0 847 248 
Q 594 497 594 1153 
L 594 3053 
L 172 3053 
L 172 3500 
L 594 3500 
L 594 4494 
L 1172 4494 
z
" transform="scale(0.015625)"/>
       <path id="DejaVuSans-68" d="M 3513 2113 
L 3513 0 
L 2938 0 
L 2938 2094 
Q 2938 2591 2744 2837 
Q 2550 3084 2163 3084 
Q 1697 3084 1428 2787 
Q 1159 2491 1159 1978 
L 1159 0 
L 581 0 
L 581 4863 
L 1159 4863 
L 1159 2956 
Q 1366 3272 1645 3428 
Q 1925 3584 2291 3584 
Q 2894 3584 3203 3211 
Q 3513 2838 3513 2113 
z
" transform="scale(0.015625)"/>
       <path id="DejaVuSans-20" transform="scale(0.015625)"/>
       <path id="DejaVuSans-64" d="M 2906 2969 
L 2906 4863 
L 3481 4863 
L 3481 0 
L 2906 0 
L 2906 525 
Q 2725 213 2448 61 
Q 2172 -91 1784 -91 
Q 1150 -91 751 415 
Q 353 922 353 1747 
Q 353 2572 751 3078 
Q 1150 3584 1784 3584 
Q 2172 3584 2448 3432 
Q 2725 3281 2906 2969 
z
M 947 1747 
Q 947 1113 1208 752 
Q 1469 391 1925 391 
Q 2381 391 2643 752 
Q 2906 1113 2906 1747 
Q 2906 2381 2643 2742 
Q 2381 3103 1925 3103 
Q 1469 3103 1208 2742 
Q 947 2381 947 1747 
z
" transform="scale(0.015625)"/>
       <path id="DejaVuSans-65" d="M 3597 1894 
L 3597 1613 
L 953 1613 
Q 991 1019 1311 708 
Q 1631 397 2203 397 
Q 2534 397 2845 478 
Q 3156 559 3463 722 
L 3463 178 
Q 3153 47 2828 -22 
Q 2503 -91 2169 -91 
Q 1331 -91 842 396 
Q 353 884 353 1716 
Q 353 2575 817 3079 
Q 1281 3584 2069 3584 
Q 2775 3584 3186 3129 
Q 3597 2675 3597 1894 
z
M 3022 2063 
Q 3016 2534 2758 2815 
Q 2500 3097 2075 3097 
Q 1594 3097 1305 2825 
Q 1016 2553 972 2059 
L 3022 2063 
z
" transform="scale(0.015625)"/>
       <path id="DejaVuSans-66" d="M 2375 4863 
L 2375 4384 
L 1825 4384 
Q 1516 4384 1395 4259 
Q 1275 4134 1275 3809 
L 1275 3500 
L 2222 3500 
L 2222 3053 
L 1275 3053 
L 1275 0 
L 697 0 
L 697 3053 
L 147 3053 
L 147 3500 
L 697 3500 
L 697 3744 
Q 697 4328 969 4595 
Q 1241 4863 1831 4863 
L 2375 4863 
z
" transform="scale(0.015625)"/>
       <path id="DejaVuSans-6e" d="M 3513 2113 
L 3513 0 
L 2938 0 
L 2938 2094 
Q 2938 2591 2744 2837 
Q 2550 3084 2163 3084 
Q 1697 3084 1428 2787 
Q 1159 2491 1159 1978 
L 1159 0 
L 581 0 
L 581 3500 
L 1159 3500 
L 1159 2956 
Q 1366 3272 1645 3428 
Q 1925 3584 2291 3584 
Q 2894 3584 3203 3211 
Q 3513 2838 3513 2113 
z
" transform="scale(0.015625)"/>
       <path id="DejaVuSans-73" d="M 2834 3397 
L 2834 2853 
Q 2591 2978 2328 3040 
Q 2066 3103 1784 3103 
Q 1356 3103 1142 2972 
Q 928 2841 928 2578 
Q 928 2378 1081 2264 
Q 1234 2150 1697 2047 
L 1894 2003 
Q 2506 1872 2764 1633 
Q 3022 1394 3022 966 
Q 3022 478 2636 193 
Q 2250 -91 1575 -91 
Q 1294 -91 989 -36 
Q 684 19 347 128 
L 347 722 
Q 666 556 975 473 
Q 1284 391 1588 391 
Q 1994 391 2212 530 
Q 2431 669 2431 922 
Q 2431 1156 2273 1281 
Q 2116 1406 1581 1522 
L 1381 1569 
Q 847 1681 609 1914 
Q 372 2147 372 2553 
Q 372 3047 722 3315 
Q 1072 3584 1716 3584 
Q 2034 3584 2315 3537 
Q 2597 3491 2834 3397 
z
" transform="scale(0.015625)"/>
       <path id="DejaVuSans-69" d="M 603 3500 
L 1178 3500 
L 1178 0 
L 603 0 
L 603 3500 
z
M 603 4863 
L 1178 4863 
L 1178 4134 
L 603 4134 
L 603 4863 
z
" transform="scale(0.015625)"/>
       <path id="DejaVuSans-62" d="M 3116 1747 
Q 3116 2381 2855 2742 
Q 2594 3103 2138 3103 
Q 1681 3103 1420 2742 
Q 1159 2381 1159 1747 
Q 1159 1113 1420 752 
Q 1681 391 2138 391 
Q 2594 391 2855 752 
Q 3116 1113 3116 1747 
z
M 1159 2969 
Q 1341 3281 1617 3432 
Q 1894 3584 2278 3584 
Q 2916 3584 3314 3078 
Q 3713 2572 3713 1747 
Q 3713 922 3314 415 
Q 2916 -91 2278 -91 
Q 1894 -91 1617 61 
Q 1341 213 1159 525 
L 1159 0 
L 581 0 
L 581 4863 
L 1159 4863 
L 1159 2969 
z
" transform="scale(0.015625)"/>
       <path id="DejaVuSans-6c" d="M 603 4863 
L 1178 4863 
L 1178 0 
L 603 0 
L 603 4863 
z
" transform="scale(0.015625)"/>
       <path id="DejaVuSans-28" d="M 1984 4856 
Q 1566 4138 1362 3434 
Q 1159 2731 1159 2009 
Q 1159 1288 1364 580 
Q 1569 -128 1984 -844 
L 1484 -844 
Q 1016 -109 783 600 
Q 550 1309 550 2009 
Q 550 2706 781 3412 
Q 1013 4119 1484 4856 
L 1984 4856 
z
" transform="scale(0.015625)"/>
       <path id="DejaVuSans-33" d="M 2597 2516 
Q 3050 2419 3304 2112 
Q 3559 1806 3559 1356 
Q 3559 666 3084 287 
Q 2609 -91 1734 -91 
Q 1441 -91 1130 -33 
Q 819 25 488 141 
L 488 750 
Q 750 597 1062 519 
Q 1375 441 1716 441 
Q 2309 441 2620 675 
Q 2931 909 2931 1356 
Q 2931 1769 2642 2001 
Q 2353 2234 1838 2234 
L 1294 2234 
L 1294 2753 
L 1863 2753 
Q 2328 2753 2575 2939 
Q 2822 3125 2822 3475 
Q 2822 3834 2567 4026 
Q 2313 4219 1838 4219 
Q 1578 4219 1281 4162 
Q 984 4106 628 3988 
L 628 4550 
Q 988 4650 1302 4700 
Q 1616 4750 1894 4750 
Q 2613 4750 3031 4423 
Q 3450 4097 3450 3541 
Q 3450 3153 3228 2886 
Q 3006 2619 2597 2516 
z
" transform="scale(0.015625)"/>
       <path id="DejaVuSans-29" d="M 513 4856 
L 1013 4856 
Q 1481 4119 1714 3412 
Q 1947 2706 1947 2009 
Q 1947 1309 1714 600 
Q 1481 -109 1013 -844 
L 513 -844 
Q 928 -128 1133 580 
Q 1338 1288 1338 2009 
Q 1338 2731 1133 3434 
Q 928 4138 513 4856 
z
" transform="scale(0.015625)"/>
      </defs>
      <use xlink:href="#DejaVuSans-42"/>
      <use xlink:href="#DejaVuSans-6f" transform="translate(68.603516 0)"/>
      <use xlink:href="#DejaVuSans-74" transform="translate(129.785156 0)"/>
      <use xlink:href="#DejaVuSans-68" transform="translate(168.994141 0)"/>
      <use xlink:href="#DejaVuSans-20" transform="translate(232.373047 0)"/>
      <use xlink:href="#DejaVuSans-64" transform="translate(264.160156 0)"/>
      <use xlink:href="#DejaVuSans-65" transform="translate(327.636719 0)"/>
      <use xlink:href="#DejaVuSans-66" transform="translate(389.160156 0)"/>
      <use xlink:href="#DejaVuSans-65" transform="translate(424.365234 0)"/>
      <use xlink:href="#DejaVuSans-6e" transform="translate(485.888672 0)"/>
      <use xlink:href="#DejaVuSans-73" transform="translate(549.267578 0)"/>
      <use xlink:href="#DejaVuSans-69" transform="translate(601.367188 0)"/>
      <use xlink:href="#DejaVuSans-62" transform="translate(629.150391 0)"/>
      <use xlink:href="#DejaVuSans-6c" transform="translate(692.626953 0)"/>
      <use xlink:href="#DejaVuSans-65" transform="translate(720.410156 0)"/>
      <use xlink:href="#DejaVuSans-20" transform="translate(781.933594 0)"/>
      <use xlink:href="#DejaVuSans-28" transform="translate(813.720703 0)"/>
      <use xlink:href="#DejaVuSans-33" transform="translate(852.734375 0)"/>
      <use xlink:href="#DejaVuSans-29" transform="translate(916.357422 0)"/>
     </g>
    </g>
    <g id="patch_7">
     <path d="M 52.899875 128.885428 
L 71.099875 128.885428 
L 71.099875 119.085428 
L 52.899875 119.085428 
z
" style="fill: #1f6f7a"/>
    </g>
    <g id="text_6">
     <!-- AI correct over human (1) -->
     <g style="fill: #222629" transform="translate(79.499875 128.885428) scale(0.14 -0.14)">
      <defs>
       <path id="DejaVuSans-41" d="M 2188 4044 
L 1331 1722 
L 3047 1722 
L 2188 4044 
z
M 1831 4666 
L 2547 4666 
L 4325 0 
L 3669 0 
L 3244 1197 
L 1141 1197 
L 716 0 
L 50 0 
L 1831 4666 
z
" transform="scale(0.015625)"/>
       <path id="DejaVuSans-49" d="M 628 4666 
L 1259 4666 
L 1259 0 
L 628 0 
L 628 4666 
z
" transform="scale(0.015625)"/>
       <path id="DejaVuSans-63" d="M 3122 3366 
L 3122 2828 
Q 2878 2963 2633 3030 
Q 2388 3097 2138 3097 
Q 1578 3097 1268 2742 
Q 959 2388 959 1747 
Q 959 1106 1268 751 
Q 1578 397 2138 397 
Q 2388 397 2633 464 
Q 2878 531 3122 666 
L 3122 134 
Q 2881 22 2623 -34 
Q 2366 -91 2075 -91 
Q 1284 -91 818 406 
Q 353 903 353 1747 
Q 353 2603 823 3093 
Q 1294 3584 2113 3584 
Q 2378 3584 2631 3529 
Q 2884 3475 3122 3366 
z
" transform="scale(0.015625)"/>
       <path id="DejaVuSans-72" d="M 2631 2963 
Q 2534 3019 2420 3045 
Q 2306 3072 2169 3072 
Q 1681 3072 1420 2755 
Q 1159 2438 1159 1844 
L 1159 0 
L 581 0 
L 581 3500 
L 1159 3500 
L 1159 2956 
Q 1341 3275 1631 3429 
Q 1922 3584 2338 3584 
Q 2397 3584 2469 3576 
Q 2541 3569 2628 3553 
L 2631 2963 
z
" transform="scale(0.015625)"/>
       <path id="DejaVuSans-76" d="M 191 3500 
L 800 3500 
L 1894 563 
L 2988 3500 
L 3597 3500 
L 2284 0 
L 1503 0 
L 191 3500 
z
" transform="scale(0.015625)"/>
       <path id="DejaVuSans-75" d="M 544 1381 
L 544 3500 
L 1119 3500 
L 1119 1403 
Q 1119 906 1312 657 
Q 1506 409 1894 409 
Q 2359 409 2629 706 
Q 2900 1003 2900 1516 
L 2900 3500 
L 3475 3500 
L 3475 0 
L 2900 0 
L 2900 538 
Q 2691 219 2414 64 
Q 2138 -91 1772 -91 
Q 1169 -91 856 284 
Q 544 659 544 1381 
z
M 1991 3584 
L 1991 3584 
z
" transform="scale(0.015625)"/>
       <path id="DejaVuSans-6d" d="M 3328 2828 
Q 3544 3216 3844 3400 
Q 4144 3584 4550 3584 
Q 5097 3584 5394 3201 
Q 5691 2819 5691 2113 
L 5691 0 
L 5113 0 
L 5113 2094 
Q 5113 2597 4934 2840 
Q 4756 3084 4391 3084 
Q 3944 3084 3684 2787 
Q 3425 2491 3425 1978 
L 3425 0 
L 2847 0 
L 2847 2094 
Q 2847 2600 2669 2842 
Q 2491 3084 2119 3084 
Q 1678 3084 1418 2786 
Q 1159 2488 1159 1978 
L 1159 0 
L 581 0 
L 581 3500 
L 1159 3500 
L 1159 2956 
Q 1356 3278 1631 3431 
Q 1906 3584 2284 3584 
Q 2666 3584 2933 3390 
Q 3200 3197 3328 2828 
z
" transform="scale(0.015625)"/>
       <path id="DejaVuSans-61" d="M 2194 1759 
Q 1497 1759 1228 1600 
Q 959 1441 959 1056 
Q 959 750 1161 570 
Q 1363 391 1709 391 
Q 2188 391 2477 730 
Q 2766 1069 2766 1631 
L 2766 1759 
L 2194 1759 
z
M 3341 1997 
L 3341 0 
L 2766 0 
L 2766 531 
Q 2569 213 2275 61 
Q 1981 -91 1556 -91 
Q 1019 -91 701 211 
Q 384 513 384 1019 
Q 384 1609 779 1909 
Q 1175 2209 1959 2209 
L 2766 2209 
L 2766 2266 
Q 2766 2663 2505 2880 
Q 2244 3097 1772 3097 
Q 1472 3097 1187 3025 
Q 903 2953 641 2809 
L 641 3341 
Q 956 3463 1253 3523 
Q 1550 3584 1831 3584 
Q 2591 3584 2966 3190 
Q 3341 2797 3341 1997 
z
" transform="scale(0.015625)"/>
       <path id="DejaVuSans-31" d="M 794 531 
L 1825 531 
L 1825 4091 
L 703 3866 
L 703 4441 
L 1819 4666 
L 2450 4666 
L 2450 531 
L 3481 531 
L 3481 0 
L 794 0 
L 794 531 
z
" transform="scale(0.015625)"/>
      </defs>
      <use xlink:href="#DejaVuSans-41"/>
      <use xlink:href="#DejaVuSans-49" transform="translate(68.408203 0)"/>
      <use xlink:href="#DejaVuSans-20" transform="translate(97.900391 0)"/>
      <use xlink:href="#DejaVuSans-63" transform="translate(129.6875 0)"/>
      <use xlink:href="#DejaVuSans-6f" transform="translate(184.667969 0)"/>
      <use xlink:href="#DejaVuSans-72" transform="translate(245.849609 0)"/>
      <use xlink:href="#DejaVuSans-72" transform="translate(285.212891 0)"/>
      <use xlink:href="#DejaVuSans-65" transform="translate(324.076172 0)"/>
      <use xlink:href="#DejaVuSans-63" transform="translate(385.599609 0)"/>
      <use xlink:href="#DejaVuSans-74" transform="translate(440.580078 0)"/>
      <use xlink:href="#DejaVuSans-20" transform="translate(479.789062 0)"/>
      <use xlink:href="#DejaVuSans-6f" transform="translate(511.576172 0)"/>
      <use xlink:href="#DejaVuSans-76" transform="translate(572.757812 0)"/>
      <use xlink:href="#DejaVuSans-65" transform="translate(631.9375 0)"/>
      <use xlink:href="#DejaVuSans-72" transform="translate(693.460938 0)"/>
      <use xlink:href="#DejaVuSans-20" transform="translate(734.574219 0)"/>
      <use xlink:href="#DejaVuSans-68" transform="translate(766.361328 0)"/>
      <use xlink:href="#DejaVuSans-75" transform="translate(829.740234 0)"/>
      <use xlink:href="#DejaVuSans-6d" transform="translate(893.119141 0)"/>
      <use xlink:href="#DejaVuSans-61" transform="translate(990.53125 0)"/>
      <use xlink:href="#DejaVuSans-6e" transform="translate(1051.810547 0)"/>
      <use xlink:href="#DejaVuSans-20" transform="translate(1115.189453 0)"/>
      <use xlink:href="#DejaVuSans-28" transform="translate(1146.976562 0)"/>
      <use xlink:href="#DejaVuSans-31" transform="translate(1185.990234 0)"/>
      <use xlink:href="#DejaVuSans-29" transform="translate(1249.613281 0)"/>
     </g>
    </g>
    <g id="patch_8">
     <path d="M 290.707375 108.336053 
L 308.907375 108.336053 
L 308.907375 98.536053 
L 290.707375 98.536053 
z
" style="fill: #5b6b7b"/>
    </g>
    <g id="text_7">
     <!-- Could not be known from AI inputs (1) -->
     <g style="fill: #222629" transform="translate(317.307375 108.336053) scale(0.14 -0.14)">
      <defs>
       <path id="DejaVuSans-43" d="M 4122 4306 
L 4122 3641 
Q 3803 3938 3442 4084 
Q 3081 4231 2675 4231 
Q 1875 4231 1450 3742 
Q 1025 3253 1025 2328 
Q 1025 1406 1450 917 
Q 1875 428 2675 428 
Q 3081 428 3442 575 
Q 3803 722 4122 1019 
L 4122 359 
Q 3791 134 3420 21 
Q 3050 -91 2638 -91 
Q 1578 -91 968 557 
Q 359 1206 359 2328 
Q 359 3453 968 4101 
Q 1578 4750 2638 4750 
Q 3056 4750 3426 4639 
Q 3797 4528 4122 4306 
z
" transform="scale(0.015625)"/>
       <path id="DejaVuSans-6b" d="M 581 4863 
L 1159 4863 
L 1159 1991 
L 2875 3500 
L 3609 3500 
L 1753 1863 
L 3688 0 
L 2938 0 
L 1159 1709 
L 1159 0 
L 581 0 
L 581 4863 
z
" transform="scale(0.015625)"/>
       <path id="DejaVuSans-77" d="M 269 3500 
L 844 3500 
L 1563 769 
L 2278 3500 
L 2956 3500 
L 3675 769 
L 4391 3500 
L 4966 3500 
L 4050 0 
L 3372 0 
L 2619 2869 
L 1863 0 
L 1184 0 
L 269 3500 
z
" transform="scale(0.015625)"/>
       <path id="DejaVuSans-70" d="M 1159 525 
L 1159 -1331 
L 581 -1331 
L 581 3500 
L 1159 3500 
L 1159 2969 
Q 1341 3281 1617 3432 
Q 1894 3584 2278 3584 
Q 2916 3584 3314 3078 
Q 3713 2572 3713 1747 
Q 3713 922 3314 415 
Q 2916 -91 2278 -91 
Q 1894 -91 1617 61 
Q 1341 213 1159 525 
z
M 3116 1747 
Q 3116 2381 2855 2742 
Q 2594 3103 2138 3103 
Q 1681 3103 1420 2742 
Q 1159 2381 1159 1747 
Q 1159 1113 1420 752 
Q 1681 391 2138 391 
Q 2594 391 2855 752 
Q 3116 1113 3116 1747 
z
" transform="scale(0.015625)"/>
      </defs>
      <use xlink:href="#DejaVuSans-43"/>
      <use xlink:href="#DejaVuSans-6f" transform="translate(69.824219 0)"/>
      <use xlink:href="#DejaVuSans-75" transform="translate(131.005859 0)"/>
      <use xlink:href="#DejaVuSans-6c" transform="translate(194.384766 0)"/>
      <use xlink:href="#DejaVuSans-64" transform="translate(222.167969 0)"/>
      <use xlink:href="#DejaVuSans-20" transform="translate(285.644531 0)"/>
      <use xlink:href="#DejaVuSans-6e" transform="translate(317.431641 0)"/>
      <use xlink:href="#DejaVuSans-6f" transform="translate(380.810547 0)"/>
      <use xlink:href="#DejaVuSans-74" transform="translate(441.992188 0)"/>
      <use xlink:href="#DejaVuSans-20" transform="translate(481.201172 0)"/>
      <use xlink:href="#DejaVuSans-62" transform="translate(512.988281 0)"/>
      <use xlink:href="#DejaVuSans-65" transform="translate(576.464844 0)"/>
      <use xlink:href="#DejaVuSans-20" transform="translate(637.988281 0)"/>
      <use xlink:href="#DejaVuSans-6b" transform="translate(669.775391 0)"/>
      <use xlink:href="#DejaVuSans-6e" transform="translate(727.685547 0)"/>
      <use xlink:href="#DejaVuSans-6f" transform="translate(791.064453 0)"/>
      <use xlink:href="#DejaVuSans-77" transform="translate(852.246094 0)"/>
      <use xlink:href="#DejaVuSans-6e" transform="translate(934.033203 0)"/>
      <use xlink:href="#DejaVuSans-20" transform="translate(997.412109 0)"/>
      <use xlink:href="#DejaVuSans-66" transform="translate(1029.199219 0)"/>
      <use xlink:href="#DejaVuSans-72" transform="translate(1064.404297 0)"/>
      <use xlink:href="#DejaVuSans-6f" transform="translate(1103.267578 0)"/>
      <use xlink:href="#DejaVuSans-6d" transform="translate(1164.449219 0)"/>
      <use xlink:href="#DejaVuSans-20" transform="translate(1261.861328 0)"/>
      <use xlink:href="#DejaVuSans-41" transform="translate(1293.648438 0)"/>
      <use xlink:href="#DejaVuSans-49" transform="translate(1362.056641 0)"/>
      <use xlink:href="#DejaVuSans-20" transform="translate(1391.548828 0)"/>
      <use xlink:href="#DejaVuSans-69" transform="translate(1423.335938 0)"/>
      <use xlink:href="#DejaVuSans-6e" transform="translate(1451.119141 0)"/>
      <use xlink:href="#DejaVuSans-70" transform="translate(1514.498047 0)"/>
      <use xlink:href="#DejaVuSans-75" transform="translate(1577.974609 0)"/>
      <use xlink:href="#DejaVuSans-74" transform="translate(1641.353516 0)"/>
      <use xlink:href="#DejaVuSans-73" transform="translate(1680.5625 0)"/>
      <use xlink:href="#DejaVuSans-20" transform="translate(1732.662109 0)"/>
      <use xlink:href="#DejaVuSans-28" transform="translate(1764.449219 0)"/>
      <use xlink:href="#DejaVuSans-31" transform="translate(1803.462891 0)"/>
      <use xlink:href="#DejaVuSans-29" transform="translate(1867.085938 0)"/>
     </g>
    </g>
    <g id="patch_9">
     <path d="M 290.707375 128.885428 
L 308.907375 128.885428 
L 308.907375 119.085428 
L 290.707375 119.085428 
z
" style="fill: #c8553d"/>
    </g>
    <g id="text_8">
     <!-- Genuine AI error (1) -->
     <g style="fill: #222629" transform="translate(317.307375 128.885428) scale(0.14 -0.14)">
      <defs>
       <path id="DejaVuSans-47" d="M 3809 666 
L 3809 1919 
L 2778 1919 
L 2778 2438 
L 4434 2438 
L 4434 434 
Q 4069 175 3628 42 
Q 3188 -91 2688 -91 
Q 1594 -91 976 548 
Q 359 1188 359 2328 
Q 359 3472 976 4111 
Q 1594 4750 2688 4750 
Q 3144 4750 3555 4637 
Q 3966 4525 4313 4306 
L 4313 3634 
Q 3963 3931 3569 4081 
Q 3175 4231 2741 4231 
Q 1884 4231 1454 3753 
Q 1025 3275 1025 2328 
Q 1025 1384 1454 906 
Q 1884 428 2741 428 
Q 3075 428 3337 486 
Q 3600 544 3809 666 
z
" transform="scale(0.015625)"/>
      </defs>
      <use xlink:href="#DejaVuSans-47"/>
      <use xlink:href="#DejaVuSans-65" transform="translate(77.490234 0)"/>
      <use xlink:href="#DejaVuSans-6e" transform="translate(139.013672 0)"/>
      <use xlink:href="#DejaVuSans-75" transform="translate(202.392578 0)"/>
      <use xlink:href="#DejaVuSans-69" transform="translate(265.771484 0)"/>
      <use xlink:href="#DejaVuSans-6e" transform="translate(293.554688 0)"/>
      <use xlink:href="#DejaVuSans-65" transform="translate(356.933594 0)"/>
      <use xlink:href="#DejaVuSans-20" transform="translate(418.457031 0)"/>
      <use xlink:href="#DejaVuSans-41" transform="translate(450.244141 0)"/>
      <use xlink:href="#DejaVuSans-49" transform="translate(518.652344 0)"/>
      <use xlink:href="#DejaVuSans-20" transform="translate(548.144531 0)"/>
      <use xlink:href="#DejaVuSans-65" transform="translate(579.931641 0)"/>
      <use xlink:href="#DejaVuSans-72" transform="translate(641.455078 0)"/>
      <use xlink:href="#DejaVuSans-72" transform="translate(680.818359 0)"/>
      <use xlink:href="#DejaVuSans-6f" transform="translate(719.681641 0)"/>
      <use xlink:href="#DejaVuSans-72" transform="translate(780.863281 0)"/>
      <use xlink:href="#DejaVuSans-20" transform="translate(821.976562 0)"/>
      <use xlink:href="#DejaVuSans-28" transform="translate(853.763672 0)"/>
      <use xlink:href="#DejaVuSans-31" transform="translate(892.777344 0)"/>
      <use xlink:href="#DejaVuSans-29" transform="translate(956.400391 0)"/>
     </g>
    </g>
   </g>
  </g>
 </g>
 <defs>
  <clipPath id="p11c1a88391">
   <rect x="7.2" y="7.2" width="622.656" height="69.552"/>
  </clipPath>
 </defs>
</svg>
