<?xml version="1.0" encoding="utf-8" standalone="no"?>
<!DOCTYPE svg PUBLIC "-//W3C//DTD SVG 1.1//EN"
  "http://www.w3.org/Graphics/SVG/1.1/DTD/svg11.dtd">
<svg xmlns:xlink="http://www.w3.org/1999/xlink" width="591.171875pt" height="642.257187pt" viewBox="0 0 591.171875 642.257187" xmlns="http://www.w3.org/2000/svg" version="1.1">
 <metadata>
  <rdf:RDF xmlns:dc="http://purl.org/dc/elements/1.1/" xmlns:cc="http://creativecommons.org/ns#" xmlns:rdf="http://www.w3.org/1999/02/22-rdf-syntax-ns#">
   <cc:Work>
    <dc:type rdf:resource="http://purl.org/dc/dcmitype/StillImage"/>
    <dc:date>2026-06-19T06:32:38.122132</dc:date>
    <dc:format>image/svg+xml</dc:format>
    <dc:creator>
     <cc:Agent>
      <dc:title>Matplotlib v3.10.8, https://matplotlib.org/</dc:title>
     </cc:Agent>
    </dc:creator>
   </cc:Work>
  </rdf:RDF>
 </metadata>
 <defs>
  <style type="text/css">*{stroke-linejoin: round; stroke-linecap: butt}</style>
 </defs>
 <g id="figure_1">
  <g id="patch_1">
   <path d="M 0 642.257187 
L 591.171875 642.257187 
L 591.171875 0 
L 0 0 
z
" style="fill: #ffffff"/>
  </g>
  <g id="axes_1">
   <g id="patch_2">
    <path d="M 48.291875 617.04 
L 583.971875 617.04 
L 583.971875 7.2 
L 48.291875 7.2 
z
" style="fill: #ffffff"/>
   </g>
   <g id="patch_3">
    <path d="M 80.432675 617.04 
L 551.831075 617.04 
L 551.831075 590.055929 
L 80.432675 590.055929 
z
" clip-path="url(#p51029a4f74)" style="fill: #f3f6f7; stroke: #f3f6f7; stroke-linejoin: miter"/>
   </g>
   <g id="patch_4">
    <path d="M 80.432675 563.071858 
L 551.831075 563.071858 
L 551.831075 536.087788 
L 80.432675 536.087788 
z
" clip-path="url(#p51029a4f74)" style="fill: #f3f6f7; stroke: #f3f6f7; stroke-linejoin: miter"/>
   </g>
   <g id="patch_5">
    <path d="M 80.432675 509.103717 
L 551.831075 509.103717 
L 551.831075 482.119646 
L 80.432675 482.119646 
z
" clip-path="url(#p51029a4f74)" style="fill: #f3f6f7; stroke: #f3f6f7; stroke-linejoin: miter"/>
   </g>
   <g id="patch_6">
    <path d="M 80.432675 455.135575 
L 551.831075 455.135575 
L 551.831075 428.151504 
L 80.432675 428.151504 
z
" clip-path="url(#p51029a4f74)" style="fill: #f3f6f7; stroke: #f3f6f7; stroke-linejoin: miter"/>
   </g>
   <g id="patch_7">
    <path d="M 80.432675 401.167434 
L 551.831075 401.167434 
L 551.831075 374.183363 
L 80.432675 374.183363 
z
" clip-path="url(#p51029a4f74)" style="fill: #f3f6f7; stroke: #f3f6f7; stroke-linejoin: miter"/>
   </g>
   <g id="patch_8">
    <path d="M 80.432675 347.199292 
L 551.831075 347.199292 
L 551.831075 320.215221 
L 80.432675 320.215221 
z
" clip-path="url(#p51029a4f74)" style="fill: #f3f6f7; stroke: #f3f6f7; stroke-linejoin: miter"/>
   </g>
   <g id="patch_9">
    <path d="M 80.432675 293.23115 
L 551.831075 293.23115 
L 551.831075 266.24708 
L 80.432675 266.24708 
z
" clip-path="url(#p51029a4f74)" style="fill: #f3f6f7; stroke: #f3f6f7; stroke-linejoin: miter"/>
   </g>
   <g id="patch_10">
    <path d="M 80.432675 239.263009 
L 551.831075 239.263009 
L 551.831075 212.278938 
L 80.432675 212.278938 
z
" clip-path="url(#p51029a4f74)" style="fill: #f3f6f7; stroke: #f3f6f7; stroke-linejoin: miter"/>
   </g>
   <g id="patch_11">
    <path d="M 80.432675 185.294867 
L 551.831075 185.294867 
L 551.831075 158.310796 
L 80.432675 158.310796 
z
" clip-path="url(#p51029a4f74)" style="fill: #f3f6f7; stroke: #f3f6f7; stroke-linejoin: miter"/>
   </g>
   <g id="patch_12">
    <path d="M 80.432675 131.326726 
L 551.831075 131.326726 
L 551.831075 104.342655 
L 80.432675 104.342655 
z
" clip-path="url(#p51029a4f74)" style="fill: #f3f6f7; stroke: #f3f6f7; stroke-linejoin: miter"/>
   </g>
   <g id="matplotlib.axis_1">
    <g id="xtick_1">
     <g id="line2d_1"/>
     <g id="text_1">
      <!-- AI Extraction -->
      <g style="fill: #222629" transform="translate(114.797448 631.937656) scale(0.15 -0.15)">
       <defs>
        <path id="DejaVuSans-Bold-41" d="M 3419 850 
L 1538 850 
L 1241 0 
L 31 0 
L 1759 4666 
L 3194 4666 
L 4922 0 
L 3713 0 
L 3419 850 
z
M 1838 1716 
L 3116 1716 
L 2478 3572 
L 1838 1716 
z
" transform="scale(0.015625)"/>
        <path id="DejaVuSans-Bold-49" d="M 588 4666 
L 1791 4666 
L 1791 0 
L 588 0 
L 588 4666 
z
" transform="scale(0.015625)"/>
        <path id="DejaVuSans-Bold-20" transform="scale(0.015625)"/>
        <path id="DejaVuSans-Bold-45" d="M 588 4666 
L 3834 4666 
L 3834 3756 
L 1791 3756 
L 1791 2888 
L 3713 2888 
L 3713 1978 
L 1791 1978 
L 1791 909 
L 3903 909 
L 3903 0 
L 588 0 
L 588 4666 
z
" transform="scale(0.015625)"/>
        <path id="DejaVuSans-Bold-78" d="M 1422 1791 
L 159 3500 
L 1344 3500 
L 2059 2463 
L 2784 3500 
L 3969 3500 
L 2706 1797 
L 4031 0 
L 2847 0 
L 2059 1106 
L 1281 0 
L 97 0 
L 1422 1791 
z
" transform="scale(0.015625)"/>
        <path id="DejaVuSans-Bold-74" d="M 1759 4494 
L 1759 3500 
L 2913 3500 
L 2913 2700 
L 1759 2700 
L 1759 1216 
Q 1759 972 1856 886 
Q 1953 800 2241 800 
L 2816 800 
L 2816 0 
L 1856 0 
Q 1194 0 917 276 
Q 641 553 641 1216 
L 641 2700 
L 84 2700 
L 84 3500 
L 641 3500 
L 641 4494 
L 1759 4494 
z
" transform="scale(0.015625)"/>
        <path id="DejaVuSans-Bold-72" d="M 3138 2547 
Q 2991 2616 2845 2648 
Q 2700 2681 2553 2681 
Q 2122 2681 1889 2404 
Q 1656 2128 1656 1613 
L 1656 0 
L 538 0 
L 538 3500 
L 1656 3500 
L 1656 2925 
Q 1872 3269 2151 3426 
Q 2431 3584 2822 3584 
Q 2878 3584 2943 3579 
Q 3009 3575 3134 3559 
L 3138 2547 
z
" transform="scale(0.015625)"/>
        <path id="DejaVuSans-Bold-61" d="M 2106 1575 
Q 1756 1575 1579 1456 
Q 1403 1338 1403 1106 
Q 1403 894 1545 773 
Q 1688 653 1941 653 
Q 2256 653 2472 879 
Q 2688 1106 2688 1447 
L 2688 1575 
L 2106 1575 
z
M 3816 1997 
L 3816 0 
L 2688 0 
L 2688 519 
Q 2463 200 2181 54 
Q 1900 -91 1497 -91 
Q 953 -91 614 226 
Q 275 544 275 1050 
Q 275 1666 698 1953 
Q 1122 2241 2028 2241 
L 2688 2241 
L 2688 2328 
Q 2688 2594 2478 2717 
Q 2269 2841 1825 2841 
Q 1466 2841 1156 2769 
Q 847 2697 581 2553 
L 581 3406 
Q 941 3494 1303 3539 
Q 1666 3584 2028 3584 
Q 2975 3584 3395 3211 
Q 3816 2838 3816 1997 
z
" transform="scale(0.015625)"/>
        <path id="DejaVuSans-Bold-63" d="M 3366 3391 
L 3366 2478 
Q 3138 2634 2908 2709 
Q 2678 2784 2431 2784 
Q 1963 2784 1702 2511 
Q 1441 2238 1441 1747 
Q 1441 1256 1702 982 
Q 1963 709 2431 709 
Q 2694 709 2930 787 
Q 3166 866 3366 1019 
L 3366 103 
Q 3103 6 2833 -42 
Q 2563 -91 2291 -91 
Q 1344 -91 809 395 
Q 275 881 275 1747 
Q 275 2613 809 3098 
Q 1344 3584 2291 3584 
Q 2566 3584 2833 3536 
Q 3100 3488 3366 3391 
z
" transform="scale(0.015625)"/>
        <path id="DejaVuSans-Bold-69" d="M 538 3500 
L 1656 3500 
L 1656 0 
L 538 0 
L 538 3500 
z
M 538 4863 
L 1656 4863 
L 1656 3950 
L 538 3950 
L 538 4863 
z
" transform="scale(0.015625)"/>
        <path id="DejaVuSans-Bold-6f" d="M 2203 2784 
Q 1831 2784 1636 2517 
Q 1441 2250 1441 1747 
Q 1441 1244 1636 976 
Q 1831 709 2203 709 
Q 2569 709 2762 976 
Q 2956 1244 2956 1747 
Q 2956 2250 2762 2517 
Q 2569 2784 2203 2784 
z
M 2203 3584 
Q 3106 3584 3614 3096 
Q 4122 2609 4122 1747 
Q 4122 884 3614 396 
Q 3106 -91 2203 -91 
Q 1297 -91 786 396 
Q 275 884 275 1747 
Q 275 2609 786 3096 
Q 1297 3584 2203 3584 
z
" transform="scale(0.015625)"/>
        <path id="DejaVuSans-Bold-6e" d="M 4056 2131 
L 4056 0 
L 2931 0 
L 2931 347 
L 2931 1631 
Q 2931 2084 2911 2256 
Q 2891 2428 2841 2509 
Q 2775 2619 2662 2680 
Q 2550 2741 2406 2741 
Q 2056 2741 1856 2470 
Q 1656 2200 1656 1722 
L 1656 0 
L 538 0 
L 538 3500 
L 1656 3500 
L 1656 2988 
Q 1909 3294 2193 3439 
Q 2478 3584 2822 3584 
Q 3428 3584 3742 3212 
Q 4056 2841 4056 2131 
z
" transform="scale(0.015625)"/>
       </defs>
       <use xlink:href="#DejaVuSans-Bold-41"/>
       <use xlink:href="#DejaVuSans-Bold-49" transform="translate(77.392578 0)"/>
       <use xlink:href="#DejaVuSans-Bold-20" transform="translate(114.599609 0)"/>
       <use xlink:href="#DejaVuSans-Bold-45" transform="translate(149.414062 0)"/>
       <use xlink:href="#DejaVuSans-Bold-78" transform="translate(217.724609 0)"/>
       <use xlink:href="#DejaVuSans-Bold-74" transform="translate(282.226562 0)"/>
       <use xlink:href="#DejaVuSans-Bold-72" transform="translate(330.029297 0)"/>
       <use xlink:href="#DejaVuSans-Bold-61" transform="translate(379.345703 0)"/>
       <use xlink:href="#DejaVuSans-Bold-63" transform="translate(446.826172 0)"/>
       <use xlink:href="#DejaVuSans-Bold-74" transform="translate(506.103516 0)"/>
       <use xlink:href="#DejaVuSans-Bold-69" transform="translate(553.90625 0)"/>
       <use xlink:href="#DejaVuSans-Bold-6f" transform="translate(588.183594 0)"/>
       <use xlink:href="#DejaVuSans-Bold-6e" transform="translate(656.884766 0)"/>
      </g>
     </g>
    </g>
    <g id="xtick_2">
     <g id="line2d_2"/>
     <g id="text_2">
      <!-- Human Abstraction -->
      <g style="fill: #222629" transform="translate(311.473513 631.937656) scale(0.15 -0.15)">
       <defs>
        <path id="DejaVuSans-Bold-48" d="M 588 4666 
L 1791 4666 
L 1791 2888 
L 3566 2888 
L 3566 4666 
L 4769 4666 
L 4769 0 
L 3566 0 
L 3566 1978 
L 1791 1978 
L 1791 0 
L 588 0 
L 588 4666 
z
" transform="scale(0.015625)"/>
        <path id="DejaVuSans-Bold-75" d="M 500 1363 
L 500 3500 
L 1625 3500 
L 1625 3150 
Q 1625 2866 1622 2436 
Q 1619 2006 1619 1863 
Q 1619 1441 1641 1255 
Q 1663 1069 1716 984 
Q 1784 875 1895 815 
Q 2006 756 2150 756 
Q 2500 756 2700 1025 
Q 2900 1294 2900 1772 
L 2900 3500 
L 4019 3500 
L 4019 0 
L 2900 0 
L 2900 506 
Q 2647 200 2364 54 
Q 2081 -91 1741 -91 
Q 1134 -91 817 281 
Q 500 653 500 1363 
z
" transform="scale(0.015625)"/>
        <path id="DejaVuSans-Bold-6d" d="M 3781 2919 
Q 3994 3244 4286 3414 
Q 4578 3584 4928 3584 
Q 5531 3584 5847 3212 
Q 6163 2841 6163 2131 
L 6163 0 
L 5038 0 
L 5038 1825 
Q 5041 1866 5042 1909 
Q 5044 1953 5044 2034 
Q 5044 2406 4934 2573 
Q 4825 2741 4581 2741 
Q 4263 2741 4089 2478 
Q 3916 2216 3909 1719 
L 3909 0 
L 2784 0 
L 2784 1825 
Q 2784 2406 2684 2573 
Q 2584 2741 2328 2741 
Q 2006 2741 1831 2477 
Q 1656 2213 1656 1722 
L 1656 0 
L 531 0 
L 531 3500 
L 1656 3500 
L 1656 2988 
Q 1863 3284 2130 3434 
Q 2397 3584 2719 3584 
Q 3081 3584 3359 3409 
Q 3638 3234 3781 2919 
z
" transform="scale(0.015625)"/>
        <path id="DejaVuSans-Bold-62" d="M 2400 722 
Q 2759 722 2948 984 
Q 3138 1247 3138 1747 
Q 3138 2247 2948 2509 
Q 2759 2772 2400 2772 
Q 2041 2772 1848 2508 
Q 1656 2244 1656 1747 
Q 1656 1250 1848 986 
Q 2041 722 2400 722 
z
M 1656 2988 
Q 1888 3294 2169 3439 
Q 2450 3584 2816 3584 
Q 3463 3584 3878 3070 
Q 4294 2556 4294 1747 
Q 4294 938 3878 423 
Q 3463 -91 2816 -91 
Q 2450 -91 2169 54 
Q 1888 200 1656 506 
L 1656 0 
L 538 0 
L 538 4863 
L 1656 4863 
L 1656 2988 
z
" transform="scale(0.015625)"/>
        <path id="DejaVuSans-Bold-73" d="M 3272 3391 
L 3272 2541 
Q 2913 2691 2578 2766 
Q 2244 2841 1947 2841 
Q 1628 2841 1473 2761 
Q 1319 2681 1319 2516 
Q 1319 2381 1436 2309 
Q 1553 2238 1856 2203 
L 2053 2175 
Q 2913 2066 3209 1816 
Q 3506 1566 3506 1031 
Q 3506 472 3093 190 
Q 2681 -91 1863 -91 
Q 1516 -91 1145 -36 
Q 775 19 384 128 
L 384 978 
Q 719 816 1070 734 
Q 1422 653 1784 653 
Q 2113 653 2278 743 
Q 2444 834 2444 1013 
Q 2444 1163 2330 1236 
Q 2216 1309 1875 1350 
L 1678 1375 
Q 931 1469 631 1722 
Q 331 1975 331 2491 
Q 331 3047 712 3315 
Q 1094 3584 1881 3584 
Q 2191 3584 2531 3537 
Q 2872 3491 3272 3391 
z
" transform="scale(0.015625)"/>
       </defs>
       <use xlink:href="#DejaVuSans-Bold-48"/>
       <use xlink:href="#DejaVuSans-Bold-75" transform="translate(83.691406 0)"/>
       <use xlink:href="#DejaVuSans-Bold-6d" transform="translate(154.882812 0)"/>
       <use xlink:href="#DejaVuSans-Bold-61" transform="translate(259.082031 0)"/>
       <use xlink:href="#DejaVuSans-Bold-6e" transform="translate(326.5625 0)"/>
       <use xlink:href="#DejaVuSans-Bold-20" transform="translate(397.753906 0)"/>
       <use xlink:href="#DejaVuSans-Bold-41" transform="translate(432.568359 0)"/>
       <use xlink:href="#DejaVuSans-Bold-62" transform="translate(509.960938 0)"/>
       <use xlink:href="#DejaVuSans-Bold-73" transform="translate(581.542969 0)"/>
       <use xlink:href="#DejaVuSans-Bold-74" transform="translate(641.064453 0)"/>
       <use xlink:href="#DejaVuSans-Bold-72" transform="translate(688.867188 0)"/>
       <use xlink:href="#DejaVuSans-Bold-61" transform="translate(738.183594 0)"/>
       <use xlink:href="#DejaVuSans-Bold-63" transform="translate(805.664062 0)"/>
       <use xlink:href="#DejaVuSans-Bold-74" transform="translate(864.941406 0)"/>
       <use xlink:href="#DejaVuSans-Bold-69" transform="translate(912.744141 0)"/>
       <use xlink:href="#DejaVuSans-Bold-6f" transform="translate(947.021484 0)"/>
       <use xlink:href="#DejaVuSans-Bold-6e" transform="translate(1015.722656 0)"/>
      </g>
     </g>
    </g>
   </g>
   <g id="matplotlib.axis_2">
    <g id="ytick_1">
     <g id="line2d_3">
      <defs>
       <path id="m50c03966cf" d="M 0 0 
L -3.5 0 
" style="stroke: #222629; stroke-width: 0.8"/>
      </defs>
      <g>
       <use xlink:href="#m50c03966cf" x="48.291875" y="617.04" style="fill: #222629; stroke: #222629; stroke-width: 0.8"/>
      </g>
     </g>
     <g id="text_3">
      <!-- 0 -->
      <g style="fill: #222629" transform="translate(33.020625 621.978984) scale(0.13 -0.13)">
       <defs>
        <path id="DejaVuSans-30" d="M 2034 4250 
Q 1547 4250 1301 3770 
Q 1056 3291 1056 2328 
Q 1056 1369 1301 889 
Q 1547 409 2034 409 
Q 2525 409 2770 889 
Q 3016 1369 3016 2328 
Q 3016 3291 2770 3770 
Q 2525 4250 2034 4250 
z
M 2034 4750 
Q 2819 4750 3233 4129 
Q 3647 3509 3647 2328 
Q 3647 1150 3233 529 
Q 2819 -91 2034 -91 
Q 1250 -91 836 529 
Q 422 1150 422 2328 
Q 422 3509 836 4129 
Q 1250 4750 2034 4750 
z
" transform="scale(0.015625)"/>
       </defs>
       <use xlink:href="#DejaVuSans-30"/>
      </g>
     </g>
    </g>
    <g id="ytick_2">
     <g id="line2d_4">
      <g>
       <use xlink:href="#m50c03966cf" x="48.291875" y="482.119646" style="fill: #222629; stroke: #222629; stroke-width: 0.8"/>
      </g>
     </g>
     <g id="text_4">
      <!-- 5 -->
      <g style="fill: #222629" transform="translate(33.020625 487.05863) scale(0.13 -0.13)">
       <defs>
        <path id="DejaVuSans-35" d="M 691 4666 
L 3169 4666 
L 3169 4134 
L 1269 4134 
L 1269 2991 
Q 1406 3038 1543 3061 
Q 1681 3084 1819 3084 
Q 2600 3084 3056 2656 
Q 3513 2228 3513 1497 
Q 3513 744 3044 326 
Q 2575 -91 1722 -91 
Q 1428 -91 1123 -41 
Q 819 9 494 109 
L 494 744 
Q 775 591 1075 516 
Q 1375 441 1709 441 
Q 2250 441 2565 725 
Q 2881 1009 2881 1497 
Q 2881 1984 2565 2268 
Q 2250 2553 1709 2553 
Q 1456 2553 1204 2497 
Q 953 2441 691 2322 
L 691 4666 
z
" transform="scale(0.015625)"/>
       </defs>
       <use xlink:href="#DejaVuSans-35"/>
      </g>
     </g>
    </g>
    <g id="ytick_3">
     <g id="line2d_5">
      <g>
       <use xlink:href="#m50c03966cf" x="48.291875" y="347.199292" style="fill: #222629; stroke: #222629; stroke-width: 0.8"/>
      </g>
     </g>
     <g id="text_5">
      <!-- 10 -->
      <g style="fill: #222629" transform="translate(24.749375 352.138276) scale(0.13 -0.13)">
       <defs>
        <path id="DejaVuSans-31" d="M 794 531 
L 1825 531 
L 1825 4091 
L 703 3866 
L 703 4441 
L 1819 4666 
L 2450 4666 
L 2450 531 
L 3481 531 
L 3481 0 
L 794 0 
L 794 531 
z
" transform="scale(0.015625)"/>
       </defs>
       <use xlink:href="#DejaVuSans-31"/>
       <use xlink:href="#DejaVuSans-30" transform="translate(63.623047 0)"/>
      </g>
     </g>
    </g>
    <g id="ytick_4">
     <g id="line2d_6">
      <g>
       <use xlink:href="#m50c03966cf" x="48.291875" y="212.278938" style="fill: #222629; stroke: #222629; stroke-width: 0.8"/>
      </g>
     </g>
     <g id="text_6">
      <!-- 15 -->
      <g style="fill: #222629" transform="translate(24.749375 217.217922) scale(0.13 -0.13)">
       <use xlink:href="#DejaVuSans-31"/>
       <use xlink:href="#DejaVuSans-35" transform="translate(63.623047 0)"/>
      </g>
     </g>
    </g>
    <g id="ytick_5">
     <g id="line2d_7">
      <g>
       <use xlink:href="#m50c03966cf" x="48.291875" y="77.358584" style="fill: #222629; stroke: #222629; stroke-width: 0.8"/>
      </g>
     </g>
     <g id="text_7">
      <!-- 20 -->
      <g style="fill: #222629" transform="translate(24.749375 82.297568) scale(0.13 -0.13)">
       <defs>
        <path id="DejaVuSans-32" d="M 1228 531 
L 3431 531 
L 3431 0 
L 469 0 
L 469 531 
Q 828 903 1448 1529 
Q 2069 2156 2228 2338 
Q 2531 2678 2651 2914 
Q 2772 3150 2772 3378 
Q 2772 3750 2511 3984 
Q 2250 4219 1831 4219 
Q 1534 4219 1204 4116 
Q 875 4013 500 3803 
L 500 4441 
Q 881 4594 1212 4672 
Q 1544 4750 1819 4750 
Q 2544 4750 2975 4387 
Q 3406 4025 3406 3419 
Q 3406 3131 3298 2873 
Q 3191 2616 2906 2266 
Q 2828 2175 2409 1742 
Q 1991 1309 1228 531 
z
" transform="scale(0.015625)"/>
       </defs>
       <use xlink:href="#DejaVuSans-32"/>
       <use xlink:href="#DejaVuSans-30" transform="translate(63.623047 0)"/>
      </g>
     </g>
    </g>
    <g id="text_8">
     <!-- Number of validated medications extracted -->
     <g style="fill: #222629" transform="translate(17.837813 464.72875) rotate(-90) scale(0.14 -0.14)">
      <defs>
       <path id="DejaVuSans-4e" d="M 628 4666 
L 1478 4666 
L 3547 763 
L 3547 4666 
L 4159 4666 
L 4159 0 
L 3309 0 
L 1241 3903 
L 1241 0 
L 628 0 
L 628 4666 
z
" transform="scale(0.015625)"/>
       <path id="DejaVuSans-75" d="M 544 1381 
L 544 3500 
L 1119 3500 
L 1119 1403 
Q 1119 906 1312 657 
Q 1506 409 1894 409 
Q 2359 409 2629 706 
Q 2900 1003 2900 1516 
L 2900 3500 
L 3475 3500 
L 3475 0 
L 2900 0 
L 2900 538 
Q 2691 219 2414 64 
Q 2138 -91 1772 -91 
Q 1169 -91 856 284 
Q 544 659 544 1381 
z
M 1991 3584 
L 1991 3584 
z
" transform="scale(0.015625)"/>
       <path id="DejaVuSans-6d" d="M 3328 2828 
Q 3544 3216 3844 3400 
Q 4144 3584 4550 3584 
Q 5097 3584 5394 3201 
Q 5691 2819 5691 2113 
L 5691 0 
L 5113 0 
L 5113 2094 
Q 5113 2597 4934 2840 
Q 4756 3084 4391 3084 
Q 3944 3084 3684 2787 
Q 3425 2491 3425 1978 
L 3425 0 
L 2847 0 
L 2847 2094 
Q 2847 2600 2669 2842 
Q 2491 3084 2119 3084 
Q 1678 3084 1418 2786 
Q 1159 2488 1159 1978 
L 1159 0 
L 581 0 
L 581 3500 
L 1159 3500 
L 1159 2956 
Q 1356 3278 1631 3431 
Q 1906 3584 2284 3584 
Q 2666 3584 2933 3390 
Q 3200 3197 3328 2828 
z
" transform="scale(0.015625)"/>
       <path id="DejaVuSans-62" d="M 3116 1747 
Q 3116 2381 2855 2742 
Q 2594 3103 2138 3103 
Q 1681 3103 1420 2742 
Q 1159 2381 1159 1747 
Q 1159 1113 1420 752 
Q 1681 391 2138 391 
Q 2594 391 2855 752 
Q 3116 1113 3116 1747 
z
M 1159 2969 
Q 1341 3281 1617 3432 
Q 1894 3584 2278 3584 
Q 2916 3584 3314 3078 
Q 3713 2572 3713 1747 
Q 3713 922 3314 415 
Q 2916 -91 2278 -91 
Q 1894 -91 1617 61 
Q 1341 213 1159 525 
L 1159 0 
L 581 0 
L 581 4863 
L 1159 4863 
L 1159 2969 
z
" transform="scale(0.015625)"/>
       <path id="DejaVuSans-65" d="M 3597 1894 
L 3597 1613 
L 953 1613 
Q 991 1019 1311 708 
Q 1631 397 2203 397 
Q 2534 397 2845 478 
Q 3156 559 3463 722 
L 3463 178 
Q 3153 47 2828 -22 
Q 2503 -91 2169 -91 
Q 1331 -91 842 396 
Q 353 884 353 1716 
Q 353 2575 817 3079 
Q 1281 3584 2069 3584 
Q 2775 3584 3186 3129 
Q 3597 2675 3597 1894 
z
M 3022 2063 
Q 3016 2534 2758 2815 
Q 2500 3097 2075 3097 
Q 1594 3097 1305 2825 
Q 1016 2553 972 2059 
L 3022 2063 
z
" transform="scale(0.015625)"/>
       <path id="DejaVuSans-72" d="M 2631 2963 
Q 2534 3019 2420 3045 
Q 2306 3072 2169 3072 
Q 1681 3072 1420 2755 
Q 1159 2438 1159 1844 
L 1159 0 
L 581 0 
L 581 3500 
L 1159 3500 
L 1159 2956 
Q 1341 3275 1631 3429 
Q 1922 3584 2338 3584 
Q 2397 3584 2469 3576 
Q 2541 3569 2628 3553 
L 2631 2963 
z
" transform="scale(0.015625)"/>
       <path id="DejaVuSans-20" transform="scale(0.015625)"/>
       <path id="DejaVuSans-6f" d="M 1959 3097 
Q 1497 3097 1228 2736 
Q 959 2375 959 1747 
Q 959 1119 1226 758 
Q 1494 397 1959 397 
Q 2419 397 2687 759 
Q 2956 1122 2956 1747 
Q 2956 2369 2687 2733 
Q 2419 3097 1959 3097 
z
M 1959 3584 
Q 2709 3584 3137 3096 
Q 3566 2609 3566 1747 
Q 3566 888 3137 398 
Q 2709 -91 1959 -91 
Q 1206 -91 779 398 
Q 353 888 353 1747 
Q 353 2609 779 3096 
Q 1206 3584 1959 3584 
z
" transform="scale(0.015625)"/>
       <path id="DejaVuSans-66" d="M 2375 4863 
L 2375 4384 
L 1825 4384 
Q 1516 4384 1395 4259 
Q 1275 4134 1275 3809 
L 1275 3500 
L 2222 3500 
L 2222 3053 
L 1275 3053 
L 1275 0 
L 697 0 
L 697 3053 
L 147 3053 
L 147 3500 
L 697 3500 
L 697 3744 
Q 697 4328 969 4595 
Q 1241 4863 1831 4863 
L 2375 4863 
z
" transform="scale(0.015625)"/>
       <path id="DejaVuSans-76" d="M 191 3500 
L 800 3500 
L 1894 563 
L 2988 3500 
L 3597 3500 
L 2284 0 
L 1503 0 
L 191 3500 
z
" transform="scale(0.015625)"/>
       <path id="DejaVuSans-61" d="M 2194 1759 
Q 1497 1759 1228 1600 
Q 959 1441 959 1056 
Q 959 750 1161 570 
Q 1363 391 1709 391 
Q 2188 391 2477 730 
Q 2766 1069 2766 1631 
L 2766 1759 
L 2194 1759 
z
M 3341 1997 
L 3341 0 
L 2766 0 
L 2766 531 
Q 2569 213 2275 61 
Q 1981 -91 1556 -91 
Q 1019 -91 701 211 
Q 384 513 384 1019 
Q 384 1609 779 1909 
Q 1175 2209 1959 2209 
L 2766 2209 
L 2766 2266 
Q 2766 2663 2505 2880 
Q 2244 3097 1772 3097 
Q 1472 3097 1187 3025 
Q 903 2953 641 2809 
L 641 3341 
Q 956 3463 1253 3523 
Q 1550 3584 1831 3584 
Q 2591 3584 2966 3190 
Q 3341 2797 3341 1997 
z
" transform="scale(0.015625)"/>
       <path id="DejaVuSans-6c" d="M 603 4863 
L 1178 4863 
L 1178 0 
L 603 0 
L 603 4863 
z
" transform="scale(0.015625)"/>
       <path id="DejaVuSans-69" d="M 603 3500 
L 1178 3500 
L 1178 0 
L 603 0 
L 603 3500 
z
M 603 4863 
L 1178 4863 
L 1178 4134 
L 603 4134 
L 603 4863 
z
" transform="scale(0.015625)"/>
       <path id="DejaVuSans-64" d="M 2906 2969 
L 2906 4863 
L 3481 4863 
L 3481 0 
L 2906 0 
L 2906 525 
Q 2725 213 2448 61 
Q 2172 -91 1784 -91 
Q 1150 -91 751 415 
Q 353 922 353 1747 
Q 353 2572 751 3078 
Q 1150 3584 1784 3584 
Q 2172 3584 2448 3432 
Q 2725 3281 2906 2969 
z
M 947 1747 
Q 947 1113 1208 752 
Q 1469 391 1925 391 
Q 2381 391 2643 752 
Q 2906 1113 2906 1747 
Q 2906 2381 2643 2742 
Q 2381 3103 1925 3103 
Q 1469 3103 1208 2742 
Q 947 2381 947 1747 
z
" transform="scale(0.015625)"/>
       <path id="DejaVuSans-74" d="M 1172 4494 
L 1172 3500 
L 2356 3500 
L 2356 3053 
L 1172 3053 
L 1172 1153 
Q 1172 725 1289 603 
Q 1406 481 1766 481 
L 2356 481 
L 2356 0 
L 1766 0 
Q 1100 0 847 248 
Q 594 497 594 1153 
L 594 3053 
L 172 3053 
L 172 3500 
L 594 3500 
L 594 4494 
L 1172 4494 
z
" transform="scale(0.015625)"/>
       <path id="DejaVuSans-63" d="M 3122 3366 
L 3122 2828 
Q 2878 2963 2633 3030 
Q 2388 3097 2138 3097 
Q 1578 3097 1268 2742 
Q 959 2388 959 1747 
Q 959 1106 1268 751 
Q 1578 397 2138 397 
Q 2388 397 2633 464 
Q 2878 531 3122 666 
L 3122 134 
Q 2881 22 2623 -34 
Q 2366 -91 2075 -91 
Q 1284 -91 818 406 
Q 353 903 353 1747 
Q 353 2603 823 3093 
Q 1294 3584 2113 3584 
Q 2378 3584 2631 3529 
Q 2884 3475 3122 3366 
z
" transform="scale(0.015625)"/>
       <path id="DejaVuSans-6e" d="M 3513 2113 
L 3513 0 
L 2938 0 
L 2938 2094 
Q 2938 2591 2744 2837 
Q 2550 3084 2163 3084 
Q 1697 3084 1428 2787 
Q 1159 2491 1159 1978 
L 1159 0 
L 581 0 
L 581 3500 
L 1159 3500 
L 1159 2956 
Q 1366 3272 1645 3428 
Q 1925 3584 2291 3584 
Q 2894 3584 3203 3211 
Q 3513 2838 3513 2113 
z
" transform="scale(0.015625)"/>
       <path id="DejaVuSans-73" d="M 2834 3397 
L 2834 2853 
Q 2591 2978 2328 3040 
Q 2066 3103 1784 3103 
Q 1356 3103 1142 2972 
Q 928 2841 928 2578 
Q 928 2378 1081 2264 
Q 1234 2150 1697 2047 
L 1894 2003 
Q 2506 1872 2764 1633 
Q 3022 1394 3022 966 
Q 3022 478 2636 193 
Q 2250 -91 1575 -91 
Q 1294 -91 989 -36 
Q 684 19 347 128 
L 347 722 
Q 666 556 975 473 
Q 1284 391 1588 391 
Q 1994 391 2212 530 
Q 2431 669 2431 922 
Q 2431 1156 2273 1281 
Q 2116 1406 1581 1522 
L 1381 1569 
Q 847 1681 609 1914 
Q 372 2147 372 2553 
Q 372 3047 722 3315 
Q 1072 3584 1716 3584 
Q 2034 3584 2315 3537 
Q 2597 3491 2834 3397 
z
" transform="scale(0.015625)"/>
       <path id="DejaVuSans-78" d="M 3513 3500 
L 2247 1797 
L 3578 0 
L 2900 0 
L 1881 1375 
L 863 0 
L 184 0 
L 1544 1831 
L 300 3500 
L 978 3500 
L 1906 2253 
L 2834 3500 
L 3513 3500 
z
" transform="scale(0.015625)"/>
      </defs>
      <use xlink:href="#DejaVuSans-4e"/>
      <use xlink:href="#DejaVuSans-75" transform="translate(74.804688 0)"/>
      <use xlink:href="#DejaVuSans-6d" transform="translate(138.183594 0)"/>
      <use xlink:href="#DejaVuSans-62" transform="translate(235.595703 0)"/>
      <use xlink:href="#DejaVuSans-65" transform="translate(299.072266 0)"/>
      <use xlink:href="#DejaVuSans-72" transform="translate(360.595703 0)"/>
      <use xlink:href="#DejaVuSans-20" transform="translate(401.708984 0)"/>
      <use xlink:href="#DejaVuSans-6f" transform="translate(433.496094 0)"/>
      <use xlink:href="#DejaVuSans-66" transform="translate(494.677734 0)"/>
      <use xlink:href="#DejaVuSans-20" transform="translate(529.882812 0)"/>
      <use xlink:href="#DejaVuSans-76" transform="translate(561.669922 0)"/>
      <use xlink:href="#DejaVuSans-61" transform="translate(620.849609 0)"/>
      <use xlink:href="#DejaVuSans-6c" transform="translate(682.128906 0)"/>
      <use xlink:href="#DejaVuSans-69" transform="translate(709.912109 0)"/>
      <use xlink:href="#DejaVuSans-64" transform="translate(737.695312 0)"/>
      <use xlink:href="#DejaVuSans-61" transform="translate(801.171875 0)"/>
      <use xlink:href="#DejaVuSans-74" transform="translate(862.451172 0)"/>
      <use xlink:href="#DejaVuSans-65" transform="translate(901.660156 0)"/>
      <use xlink:href="#DejaVuSans-64" transform="translate(963.183594 0)"/>
      <use xlink:href="#DejaVuSans-20" transform="translate(1026.660156 0)"/>
      <use xlink:href="#DejaVuSans-6d" transform="translate(1058.447266 0)"/>
      <use xlink:href="#DejaVuSans-65" transform="translate(1155.859375 0)"/>
      <use xlink:href="#DejaVuSans-64" transform="translate(1217.382812 0)"/>
      <use xlink:href="#DejaVuSans-69" transform="translate(1280.859375 0)"/>
      <use xlink:href="#DejaVuSans-63" transform="translate(1308.642578 0)"/>
      <use xlink:href="#DejaVuSans-61" transform="translate(1363.623047 0)"/>
      <use xlink:href="#DejaVuSans-74" transform="translate(1424.902344 0)"/>
      <use xlink:href="#DejaVuSans-69" transform="translate(1464.111328 0)"/>
      <use xlink:href="#DejaVuSans-6f" transform="translate(1491.894531 0)"/>
      <use xlink:href="#DejaVuSans-6e" transform="translate(1553.076172 0)"/>
      <use xlink:href="#DejaVuSans-73" transform="translate(1616.455078 0)"/>
      <use xlink:href="#DejaVuSans-20" transform="translate(1668.554688 0)"/>
      <use xlink:href="#DejaVuSans-65" transform="translate(1700.341797 0)"/>
      <use xlink:href="#DejaVuSans-78" transform="translate(1760.115234 0)"/>
      <use xlink:href="#DejaVuSans-74" transform="translate(1819.294922 0)"/>
      <use xlink:href="#DejaVuSans-72" transform="translate(1858.503906 0)"/>
      <use xlink:href="#DejaVuSans-61" transform="translate(1899.617188 0)"/>
      <use xlink:href="#DejaVuSans-63" transform="translate(1960.896484 0)"/>
      <use xlink:href="#DejaVuSans-74" transform="translate(2015.876953 0)"/>
      <use xlink:href="#DejaVuSans-65" transform="translate(2055.085938 0)"/>
      <use xlink:href="#DejaVuSans-64" transform="translate(2116.609375 0)"/>
     </g>
    </g>
   </g>
   <g id="patch_13">
    <path d="M 48.291875 617.04 
L 48.291875 7.2 
" style="fill: none; stroke: #c8d0d4; stroke-width: 0.8; stroke-linejoin: miter; stroke-linecap: square"/>
   </g>
   <g id="patch_14">
    <path d="M 48.291875 617.04 
L 509.442484 617.04 
" style="fill: none; stroke: #c8d0d4; stroke-width: 0.8; stroke-linejoin: miter; stroke-linecap: square"/>
   </g>
   <g id="patch_15">
    <path d="M 76.240397 615.690796 
L 262.563875 615.690796 
Q 271.880049 615.690796 271.880049 614.611434 
L 271.880049 592.484496 
Q 271.880049 591.405133 262.563875 591.405133 
L 76.240397 591.405133 
Q 66.924223 591.405133 66.924223 592.484496 
L 66.924223 614.611434 
Q 66.924223 615.690796 76.240397 615.690796 
z
" clip-path="url(#p51029a4f74)" style="fill: #1f6f7a; stroke: #ffffff; stroke-width: 1.4; stroke-linejoin: miter"/>
   </g>
   <g id="patch_16">
    <path d="M 299.828571 615.690796 
L 486.152049 615.690796 
Q 495.468223 615.690796 495.468223 614.611434 
L 495.468223 592.484496 
Q 495.468223 591.405133 486.152049 591.405133 
L 299.828571 591.405133 
Q 290.512397 591.405133 290.512397 592.484496 
L 290.512397 614.611434 
Q 290.512397 615.690796 299.828571 615.690796 
z
" clip-path="url(#p51029a4f74)" style="fill: #8c1515; stroke: #ffffff; stroke-width: 1.4; stroke-linejoin: miter"/>
   </g>
   <g id="patch_17">
    <path d="M 76.240397 588.706726 
L 262.563875 588.706726 
Q 271.880049 588.706726 271.880049 587.627363 
L 271.880049 565.500425 
Q 271.880049 564.421062 262.563875 564.421062 
L 76.240397 564.421062 
Q 66.924223 564.421062 66.924223 565.500425 
L 66.924223 587.627363 
Q 66.924223 588.706726 76.240397 588.706726 
z
" clip-path="url(#p51029a4f74)" style="fill: #1f6f7a; stroke: #ffffff; stroke-width: 1.4; stroke-linejoin: miter"/>
   </g>
   <g id="patch_18">
    <path d="M 299.828571 588.706726 
L 486.152049 588.706726 
Q 495.468223 588.706726 495.468223 587.627363 
L 495.468223 565.500425 
Q 495.468223 564.421062 486.152049 564.421062 
L 299.828571 564.421062 
Q 290.512397 564.421062 290.512397 565.500425 
L 290.512397 587.627363 
Q 290.512397 588.706726 299.828571 588.706726 
z
" clip-path="url(#p51029a4f74)" style="fill: #8c1515; stroke: #ffffff; stroke-width: 1.4; stroke-linejoin: miter"/>
   </g>
   <g id="patch_19">
    <path d="M 76.240397 561.722655 
L 262.563875 561.722655 
Q 271.880049 561.722655 271.880049 560.643292 
L 271.880049 538.516354 
Q 271.880049 537.436991 262.563875 537.436991 
L 76.240397 537.436991 
Q 66.924223 537.436991 66.924223 538.516354 
L 66.924223 560.643292 
Q 66.924223 561.722655 76.240397 561.722655 
z
" clip-path="url(#p51029a4f74)" style="fill: #1f6f7a; stroke: #ffffff; stroke-width: 1.4; stroke-linejoin: miter"/>
   </g>
   <g id="patch_20">
    <path d="M 299.828571 561.722655 
L 486.152049 561.722655 
Q 495.468223 561.722655 495.468223 560.643292 
L 495.468223 538.516354 
Q 495.468223 537.436991 486.152049 537.436991 
L 299.828571 537.436991 
Q 290.512397 537.436991 290.512397 538.516354 
L 290.512397 560.643292 
Q 290.512397 561.722655 299.828571 561.722655 
z
" clip-path="url(#p51029a4f74)" style="fill: #8c1515; stroke: #ffffff; stroke-width: 1.4; stroke-linejoin: miter"/>
   </g>
   <g id="patch_21">
    <path d="M 76.240397 534.738584 
L 262.563875 534.738584 
Q 271.880049 534.738584 271.880049 533.659221 
L 271.880049 511.532283 
Q 271.880049 510.45292 262.563875 510.45292 
L 76.240397 510.45292 
Q 66.924223 510.45292 66.924223 511.532283 
L 66.924223 533.659221 
Q 66.924223 534.738584 76.240397 534.738584 
z
" clip-path="url(#p51029a4f74)" style="fill: #1f6f7a; stroke: #ffffff; stroke-width: 1.4; stroke-linejoin: miter"/>
   </g>
   <g id="patch_22">
    <path d="M 299.828571 534.738584 
L 486.152049 534.738584 
Q 495.468223 534.738584 495.468223 533.659221 
L 495.468223 511.532283 
Q 495.468223 510.45292 486.152049 510.45292 
L 299.828571 510.45292 
Q 290.512397 510.45292 290.512397 511.532283 
L 290.512397 533.659221 
Q 290.512397 534.738584 299.828571 534.738584 
z
" clip-path="url(#p51029a4f74)" style="fill: #8c1515; stroke: #ffffff; stroke-width: 1.4; stroke-linejoin: miter"/>
   </g>
   <g id="patch_23">
    <path d="M 76.240397 507.754513 
L 262.563875 507.754513 
Q 271.880049 507.754513 271.880049 506.67515 
L 271.880049 484.548212 
Q 271.880049 483.46885 262.563875 483.46885 
L 76.240397 483.46885 
Q 66.924223 483.46885 66.924223 484.548212 
L 66.924223 506.67515 
Q 66.924223 507.754513 76.240397 507.754513 
z
" clip-path="url(#p51029a4f74)" style="fill: #1f6f7a; stroke: #ffffff; stroke-width: 1.4; stroke-linejoin: miter"/>
   </g>
   <g id="patch_24">
    <path d="M 299.828571 507.754513 
L 486.152049 507.754513 
Q 495.468223 507.754513 495.468223 506.67515 
L 495.468223 484.548212 
Q 495.468223 483.46885 486.152049 483.46885 
L 299.828571 483.46885 
Q 290.512397 483.46885 290.512397 484.548212 
L 290.512397 506.67515 
Q 290.512397 507.754513 299.828571 507.754513 
z
" clip-path="url(#p51029a4f74)" style="fill: #8c1515; stroke: #ffffff; stroke-width: 1.4; stroke-linejoin: miter"/>
   </g>
   <g id="patch_25">
    <path d="M 76.240397 480.770442 
L 262.563875 480.770442 
Q 271.880049 480.770442 271.880049 479.69108 
L 271.880049 457.564142 
Q 271.880049 456.484779 262.563875 456.484779 
L 76.240397 456.484779 
Q 66.924223 456.484779 66.924223 457.564142 
L 66.924223 479.69108 
Q 66.924223 480.770442 76.240397 480.770442 
z
" clip-path="url(#p51029a4f74)" style="fill: #1f6f7a; stroke: #ffffff; stroke-width: 1.4; stroke-linejoin: miter"/>
   </g>
   <g id="patch_26">
    <path d="M 299.828571 480.770442 
L 486.152049 480.770442 
Q 495.468223 480.770442 495.468223 479.69108 
L 495.468223 457.564142 
Q 495.468223 456.484779 486.152049 456.484779 
L 299.828571 456.484779 
Q 290.512397 456.484779 290.512397 457.564142 
L 290.512397 479.69108 
Q 290.512397 480.770442 299.828571 480.770442 
z
" clip-path="url(#p51029a4f74)" style="fill: #8c1515; stroke: #ffffff; stroke-width: 1.4; stroke-linejoin: miter"/>
   </g>
   <g id="patch_27">
    <path d="M 76.240397 453.786372 
L 262.563875 453.786372 
Q 271.880049 453.786372 271.880049 452.707009 
L 271.880049 430.580071 
Q 271.880049 429.500708 262.563875 429.500708 
L 76.240397 429.500708 
Q 66.924223 429.500708 66.924223 430.580071 
L 66.924223 452.707009 
Q 66.924223 453.786372 76.240397 453.786372 
z
" clip-path="url(#p51029a4f74)" style="fill: #1f6f7a; stroke: #ffffff; stroke-width: 1.4; stroke-linejoin: miter"/>
   </g>
   <g id="patch_28">
    <path d="M 299.828571 453.786372 
L 486.152049 453.786372 
Q 495.468223 453.786372 495.468223 452.707009 
L 495.468223 430.580071 
Q 495.468223 429.500708 486.152049 429.500708 
L 299.828571 429.500708 
Q 290.512397 429.500708 290.512397 430.580071 
L 290.512397 452.707009 
Q 290.512397 453.786372 299.828571 453.786372 
z
" clip-path="url(#p51029a4f74)" style="fill: #8c1515; stroke: #ffffff; stroke-width: 1.4; stroke-linejoin: miter"/>
   </g>
   <g id="patch_29">
    <path d="M 76.240397 426.802301 
L 262.563875 426.802301 
Q 271.880049 426.802301 271.880049 425.722938 
L 271.880049 403.596 
Q 271.880049 402.516637 262.563875 402.516637 
L 76.240397 402.516637 
Q 66.924223 402.516637 66.924223 403.596 
L 66.924223 425.722938 
Q 66.924223 426.802301 76.240397 426.802301 
z
" clip-path="url(#p51029a4f74)" style="fill: #1f6f7a; stroke: #ffffff; stroke-width: 1.4; stroke-linejoin: miter"/>
   </g>
   <g id="patch_30">
    <path d="M 299.828571 426.802301 
L 486.152049 426.802301 
Q 495.468223 426.802301 495.468223 425.722938 
L 495.468223 403.596 
Q 495.468223 402.516637 486.152049 402.516637 
L 299.828571 402.516637 
Q 290.512397 402.516637 290.512397 403.596 
L 290.512397 425.722938 
Q 290.512397 426.802301 299.828571 426.802301 
z
" clip-path="url(#p51029a4f74)" style="fill: #8c1515; stroke: #ffffff; stroke-width: 1.4; stroke-linejoin: miter"/>
   </g>
   <g id="patch_31">
    <path d="M 76.240397 399.81823 
L 262.563875 399.81823 
Q 271.880049 399.81823 271.880049 398.738867 
L 271.880049 376.611929 
Q 271.880049 375.532566 262.563875 375.532566 
L 76.240397 375.532566 
Q 66.924223 375.532566 66.924223 376.611929 
L 66.924223 398.738867 
Q 66.924223 399.81823 76.240397 399.81823 
z
" clip-path="url(#p51029a4f74)" style="fill: #1f6f7a; stroke: #ffffff; stroke-width: 1.4; stroke-linejoin: miter"/>
   </g>
   <g id="patch_32">
    <path d="M 299.828571 399.81823 
L 486.152049 399.81823 
Q 495.468223 399.81823 495.468223 398.738867 
L 495.468223 376.611929 
Q 495.468223 375.532566 486.152049 375.532566 
L 299.828571 375.532566 
Q 290.512397 375.532566 290.512397 376.611929 
L 290.512397 398.738867 
Q 290.512397 399.81823 299.828571 399.81823 
z
" clip-path="url(#p51029a4f74)" style="fill: #8c1515; stroke: #ffffff; stroke-width: 1.4; stroke-linejoin: miter"/>
   </g>
   <g id="patch_33">
    <path d="M 76.240397 372.834159 
L 262.563875 372.834159 
Q 271.880049 372.834159 271.880049 371.754796 
L 271.880049 349.627858 
Q 271.880049 348.548496 262.563875 348.548496 
L 76.240397 348.548496 
Q 66.924223 348.548496 66.924223 349.627858 
L 66.924223 371.754796 
Q 66.924223 372.834159 76.240397 372.834159 
z
" clip-path="url(#p51029a4f74)" style="fill: #1f6f7a; stroke: #ffffff; stroke-width: 1.4; stroke-linejoin: miter"/>
   </g>
   <g id="patch_34">
    <path d="M 299.828571 372.834159 
L 486.152049 372.834159 
Q 495.468223 372.834159 495.468223 371.754796 
L 495.468223 349.627858 
Q 495.468223 348.548496 486.152049 348.548496 
L 299.828571 348.548496 
Q 290.512397 348.548496 290.512397 349.627858 
L 290.512397 371.754796 
Q 290.512397 372.834159 299.828571 372.834159 
z
" clip-path="url(#p51029a4f74)" style="fill: #8c1515; stroke: #ffffff; stroke-width: 1.4; stroke-linejoin: miter"/>
   </g>
   <g id="patch_35">
    <path d="M 76.240397 345.850088 
L 262.563875 345.850088 
Q 271.880049 345.850088 271.880049 344.770726 
L 271.880049 322.643788 
Q 271.880049 321.564425 262.563875 321.564425 
L 76.240397 321.564425 
Q 66.924223 321.564425 66.924223 322.643788 
L 66.924223 344.770726 
Q 66.924223 345.850088 76.240397 345.850088 
z
" clip-path="url(#p51029a4f74)" style="fill: #1f6f7a; stroke: #ffffff; stroke-width: 1.4; stroke-linejoin: miter"/>
   </g>
   <g id="patch_36">
    <path d="M 299.828571 345.850088 
L 486.152049 345.850088 
Q 495.468223 345.850088 495.468223 344.770726 
L 495.468223 322.643788 
Q 495.468223 321.564425 486.152049 321.564425 
L 299.828571 321.564425 
Q 290.512397 321.564425 290.512397 322.643788 
L 290.512397 344.770726 
Q 290.512397 345.850088 299.828571 345.850088 
z
" clip-path="url(#p51029a4f74)" style="fill: #8c1515; stroke: #ffffff; stroke-width: 1.4; stroke-linejoin: miter"/>
   </g>
   <g id="patch_37">
    <path d="M 76.240397 318.866018 
L 262.563875 318.866018 
Q 271.880049 318.866018 271.880049 317.786655 
L 271.880049 295.659717 
Q 271.880049 294.580354 262.563875 294.580354 
L 76.240397 294.580354 
Q 66.924223 294.580354 66.924223 295.659717 
L 66.924223 317.786655 
Q 66.924223 318.866018 76.240397 318.866018 
z
" clip-path="url(#p51029a4f74)" style="fill: #1f6f7a; stroke: #ffffff; stroke-width: 1.4; stroke-linejoin: miter"/>
   </g>
   <g id="patch_38">
    <path d="M 299.828571 318.866018 
L 486.152049 318.866018 
Q 495.468223 318.866018 495.468223 317.786655 
L 495.468223 295.659717 
Q 495.468223 294.580354 486.152049 294.580354 
L 299.828571 294.580354 
Q 290.512397 294.580354 290.512397 295.659717 
L 290.512397 317.786655 
Q 290.512397 318.866018 299.828571 318.866018 
z
" clip-path="url(#p51029a4f74)" style="fill: #8c1515; stroke: #ffffff; stroke-width: 1.4; stroke-linejoin: miter"/>
   </g>
   <g id="patch_39">
    <path d="M 76.240397 291.881947 
L 262.563875 291.881947 
Q 271.880049 291.881947 271.880049 290.802584 
L 271.880049 268.675646 
Q 271.880049 267.596283 262.563875 267.596283 
L 76.240397 267.596283 
Q 66.924223 267.596283 66.924223 268.675646 
L 66.924223 290.802584 
Q 66.924223 291.881947 76.240397 291.881947 
z
" clip-path="url(#p51029a4f74)" style="fill: #1f6f7a; stroke: #ffffff; stroke-width: 1.4; stroke-linejoin: miter"/>
   </g>
   <g id="patch_40">
    <path d="M 299.828571 291.881947 
L 486.152049 291.881947 
Q 495.468223 291.881947 495.468223 290.802584 
L 495.468223 268.675646 
Q 495.468223 267.596283 486.152049 267.596283 
L 299.828571 267.596283 
Q 290.512397 267.596283 290.512397 268.675646 
L 290.512397 290.802584 
Q 290.512397 291.881947 299.828571 291.881947 
z
" clip-path="url(#p51029a4f74)" style="fill: #8c1515; stroke: #ffffff; stroke-width: 1.4; stroke-linejoin: miter"/>
   </g>
   <g id="patch_41">
    <path d="M 76.240397 264.897876 
L 262.563875 264.897876 
Q 271.880049 264.897876 271.880049 263.818513 
L 271.880049 241.691575 
Q 271.880049 240.612212 262.563875 240.612212 
L 76.240397 240.612212 
Q 66.924223 240.612212 66.924223 241.691575 
L 66.924223 263.818513 
Q 66.924223 264.897876 76.240397 264.897876 
z
" clip-path="url(#p51029a4f74)" style="fill: #1f6f7a; stroke: #ffffff; stroke-width: 1.4; stroke-linejoin: miter"/>
   </g>
   <g id="patch_42">
    <path d="M 299.828571 264.897876 
L 486.152049 264.897876 
Q 495.468223 264.897876 495.468223 263.818513 
L 495.468223 241.691575 
Q 495.468223 240.612212 486.152049 240.612212 
L 299.828571 240.612212 
Q 290.512397 240.612212 290.512397 241.691575 
L 290.512397 263.818513 
Q 290.512397 264.897876 299.828571 264.897876 
z
" clip-path="url(#p51029a4f74)" style="fill: #8c1515; stroke: #ffffff; stroke-width: 1.4; stroke-linejoin: miter"/>
   </g>
   <g id="patch_43">
    <path d="M 76.240397 237.913805 
L 262.563875 237.913805 
Q 271.880049 237.913805 271.880049 236.834442 
L 271.880049 214.707504 
Q 271.880049 213.628142 262.563875 213.628142 
L 76.240397 213.628142 
Q 66.924223 213.628142 66.924223 214.707504 
L 66.924223 236.834442 
Q 66.924223 237.913805 76.240397 237.913805 
z
" clip-path="url(#p51029a4f74)" style="fill: #1f6f7a; stroke: #ffffff; stroke-width: 1.4; stroke-linejoin: miter"/>
   </g>
   <g id="patch_44">
    <path d="M 299.828571 237.913805 
L 486.152049 237.913805 
Q 495.468223 237.913805 495.468223 236.834442 
L 495.468223 214.707504 
Q 495.468223 213.628142 486.152049 213.628142 
L 299.828571 213.628142 
Q 290.512397 213.628142 290.512397 214.707504 
L 290.512397 236.834442 
Q 290.512397 237.913805 299.828571 237.913805 
z
" clip-path="url(#p51029a4f74)" style="fill: #8c1515; stroke: #ffffff; stroke-width: 1.4; stroke-linejoin: miter"/>
   </g>
   <g id="patch_45">
    <path d="M 76.240397 210.929735 
L 262.563875 210.929735 
Q 271.880049 210.929735 271.880049 209.850372 
L 271.880049 187.723434 
Q 271.880049 186.644071 262.563875 186.644071 
L 76.240397 186.644071 
Q 66.924223 186.644071 66.924223 187.723434 
L 66.924223 209.850372 
Q 66.924223 210.929735 76.240397 210.929735 
z
" clip-path="url(#p51029a4f74)" style="fill: #1f6f7a; stroke: #ffffff; stroke-width: 1.4; stroke-linejoin: miter"/>
   </g>
   <g id="patch_46">
    <path d="M 299.828571 210.929735 
L 486.152049 210.929735 
Q 495.468223 210.929735 495.468223 209.850372 
L 495.468223 187.723434 
Q 495.468223 186.644071 486.152049 186.644071 
L 299.828571 186.644071 
Q 290.512397 186.644071 290.512397 187.723434 
L 290.512397 209.850372 
Q 290.512397 210.929735 299.828571 210.929735 
z
" clip-path="url(#p51029a4f74)" style="fill: #8c1515; stroke: #ffffff; stroke-width: 1.4; stroke-linejoin: miter"/>
   </g>
   <g id="patch_47">
    <path d="M 76.240397 183.945664 
L 262.563875 183.945664 
Q 271.880049 183.945664 271.880049 182.866301 
L 271.880049 160.739363 
Q 271.880049 159.66 262.563875 159.66 
L 76.240397 159.66 
Q 66.924223 159.66 66.924223 160.739363 
L 66.924223 182.866301 
Q 66.924223 183.945664 76.240397 183.945664 
z
" clip-path="url(#p51029a4f74)" style="fill: #1f6f7a; stroke: #ffffff; stroke-width: 1.4; stroke-linejoin: miter"/>
   </g>
   <g id="patch_48">
    <path d="M 299.828571 183.945664 
L 486.152049 183.945664 
Q 495.468223 183.945664 495.468223 182.866301 
L 495.468223 160.739363 
Q 495.468223 159.66 486.152049 159.66 
L 299.828571 159.66 
Q 290.512397 159.66 290.512397 160.739363 
L 290.512397 182.866301 
Q 290.512397 183.945664 299.828571 183.945664 
z
" clip-path="url(#p51029a4f74)" style="fill: #8c1515; stroke: #ffffff; stroke-width: 1.4; stroke-linejoin: miter"/>
   </g>
   <g id="patch_49">
    <path d="M 76.240397 156.961593 
L 262.563875 156.961593 
Q 271.880049 156.961593 271.880049 155.88223 
L 271.880049 133.755292 
Q 271.880049 132.675929 262.563875 132.675929 
L 76.240397 132.675929 
Q 66.924223 132.675929 66.924223 133.755292 
L 66.924223 155.88223 
Q 66.924223 156.961593 76.240397 156.961593 
z
" clip-path="url(#p51029a4f74)" style="fill: #1f6f7a; stroke: #ffffff; stroke-width: 1.4; stroke-linejoin: miter"/>
   </g>
   <g id="patch_50">
    <path d="M 299.828571 156.961593 
L 486.152049 156.961593 
Q 495.468223 156.961593 495.468223 155.88223 
L 495.468223 133.755292 
Q 495.468223 132.675929 486.152049 132.675929 
L 299.828571 132.675929 
Q 290.512397 132.675929 290.512397 133.755292 
L 290.512397 155.88223 
Q 290.512397 156.961593 299.828571 156.961593 
z
" clip-path="url(#p51029a4f74)" style="fill: #8c1515; stroke: #ffffff; stroke-width: 1.4; stroke-linejoin: miter"/>
   </g>
   <g id="patch_51">
    <path d="M 76.240397 129.977522 
L 262.563875 129.977522 
Q 271.880049 129.977522 271.880049 128.898159 
L 271.880049 106.771221 
Q 271.880049 105.691858 262.563875 105.691858 
L 76.240397 105.691858 
Q 66.924223 105.691858 66.924223 106.771221 
L 66.924223 128.898159 
Q 66.924223 129.977522 76.240397 129.977522 
z
" clip-path="url(#p51029a4f74)" style="fill: #1f6f7a; stroke: #ffffff; stroke-width: 1.4; stroke-linejoin: miter"/>
   </g>
   <g id="patch_52">
    <path d="M 299.828571 129.977522 
L 486.152049 129.977522 
Q 495.468223 129.977522 495.468223 128.898159 
L 495.468223 106.771221 
Q 495.468223 105.691858 486.152049 105.691858 
L 299.828571 105.691858 
Q 290.512397 105.691858 290.512397 106.771221 
L 290.512397 128.898159 
Q 290.512397 129.977522 299.828571 129.977522 
z
" clip-path="url(#p51029a4f74)" style="fill: #8c1515; stroke: #ffffff; stroke-width: 1.4; stroke-linejoin: miter"/>
   </g>
   <g id="patch_53">
    <path d="M 76.240397 102.993451 
L 262.563875 102.993451 
Q 271.880049 102.993451 271.880049 101.914088 
L 271.880049 79.78715 
Q 271.880049 78.707788 262.563875 78.707788 
L 76.240397 78.707788 
Q 66.924223 78.707788 66.924223 79.78715 
L 66.924223 101.914088 
Q 66.924223 102.993451 76.240397 102.993451 
z
" clip-path="url(#p51029a4f74)" style="fill: #c58a1a; stroke: #ffffff; stroke-width: 1.4; stroke-linejoin: miter"/>
   </g>
   <g id="patch_54">
    <path d="M 76.240397 76.009381 
L 262.563875 76.009381 
Q 271.880049 76.009381 271.880049 74.930018 
L 271.880049 52.80308 
Q 271.880049 51.723717 262.563875 51.723717 
L 76.240397 51.723717 
Q 66.924223 51.723717 66.924223 52.80308 
L 66.924223 74.930018 
Q 66.924223 76.009381 76.240397 76.009381 
z
" clip-path="url(#p51029a4f74)" style="fill: #c58a1a; stroke: #ffffff; stroke-width: 1.4; stroke-linejoin: miter"/>
   </g>
   <g id="text_9">
    <!-- 21 -->
    <g style="fill: #1f6f7a" transform="translate(154.094948 37.70398) scale(0.22 -0.22)">
     <defs>
      <path id="DejaVuSans-Bold-32" d="M 1844 884 
L 3897 884 
L 3897 0 
L 506 0 
L 506 884 
L 2209 2388 
Q 2438 2594 2547 2791 
Q 2656 2988 2656 3200 
Q 2656 3528 2436 3728 
Q 2216 3928 1850 3928 
Q 1569 3928 1234 3808 
Q 900 3688 519 3450 
L 519 4475 
Q 925 4609 1322 4679 
Q 1719 4750 2100 4750 
Q 2938 4750 3402 4381 
Q 3866 4013 3866 3353 
Q 3866 2972 3669 2642 
Q 3472 2313 2841 1759 
L 1844 884 
z
" transform="scale(0.015625)"/>
      <path id="DejaVuSans-Bold-31" d="M 750 831 
L 1813 831 
L 1813 3847 
L 722 3622 
L 722 4441 
L 1806 4666 
L 2950 4666 
L 2950 831 
L 4013 831 
L 4013 0 
L 750 0 
L 750 831 
z
" transform="scale(0.015625)"/>
     </defs>
     <use xlink:href="#DejaVuSans-Bold-32"/>
     <use xlink:href="#DejaVuSans-Bold-31" transform="translate(69.580078 0)"/>
    </g>
   </g>
   <g id="text_10">
    <!-- 19 -->
    <g style="fill: #8c1515" transform="translate(377.683122 91.672121) scale(0.22 -0.22)">
     <defs>
      <path id="DejaVuSans-Bold-39" d="M 641 103 
L 641 966 
Q 928 831 1190 764 
Q 1453 697 1709 697 
Q 2247 697 2547 995 
Q 2847 1294 2900 1881 
Q 2688 1725 2447 1647 
Q 2206 1569 1925 1569 
Q 1209 1569 770 1986 
Q 331 2403 331 3084 
Q 331 3838 820 4291 
Q 1309 4744 2131 4744 
Q 3044 4744 3544 4128 
Q 4044 3513 4044 2388 
Q 4044 1231 3459 570 
Q 2875 -91 1856 -91 
Q 1528 -91 1228 -42 
Q 928 6 641 103 
z
M 2125 2350 
Q 2441 2350 2600 2554 
Q 2759 2759 2759 3169 
Q 2759 3575 2600 3781 
Q 2441 3988 2125 3988 
Q 1809 3988 1650 3781 
Q 1491 3575 1491 3169 
Q 1491 2759 1650 2554 
Q 1809 2350 2125 2350 
z
" transform="scale(0.015625)"/>
     </defs>
     <use xlink:href="#DejaVuSans-Bold-31"/>
     <use xlink:href="#DejaVuSans-Bold-39" transform="translate(69.580078 0)"/>
    </g>
   </g>
   <g id="text_11">
    <!-- 19 captured by both groups -->
    <g style="fill: #9aa5b1" transform="translate(537.192957 455.03289) rotate(-90) scale(0.12 -0.12)">
     <defs>
      <path id="DejaVuSans-Bold-70" d="M 1656 506 
L 1656 -1331 
L 538 -1331 
L 538 3500 
L 1656 3500 
L 1656 2988 
Q 1888 3294 2169 3439 
Q 2450 3584 2816 3584 
Q 3463 3584 3878 3070 
Q 4294 2556 4294 1747 
Q 4294 938 3878 423 
Q 3463 -91 2816 -91 
Q 2450 -91 2169 54 
Q 1888 200 1656 506 
z
M 2400 2772 
Q 2041 2772 1848 2508 
Q 1656 2244 1656 1747 
Q 1656 1250 1848 986 
Q 2041 722 2400 722 
Q 2759 722 2948 984 
Q 3138 1247 3138 1747 
Q 3138 2247 2948 2509 
Q 2759 2772 2400 2772 
z
" transform="scale(0.015625)"/>
      <path id="DejaVuSans-Bold-65" d="M 4031 1759 
L 4031 1441 
L 1416 1441 
Q 1456 1047 1700 850 
Q 1944 653 2381 653 
Q 2734 653 3104 758 
Q 3475 863 3866 1075 
L 3866 213 
Q 3469 63 3072 -14 
Q 2675 -91 2278 -91 
Q 1328 -91 801 392 
Q 275 875 275 1747 
Q 275 2603 792 3093 
Q 1309 3584 2216 3584 
Q 3041 3584 3536 3087 
Q 4031 2591 4031 1759 
z
M 2881 2131 
Q 2881 2450 2695 2645 
Q 2509 2841 2209 2841 
Q 1884 2841 1681 2658 
Q 1478 2475 1428 2131 
L 2881 2131 
z
" transform="scale(0.015625)"/>
      <path id="DejaVuSans-Bold-64" d="M 2919 2988 
L 2919 4863 
L 4044 4863 
L 4044 0 
L 2919 0 
L 2919 506 
Q 2688 197 2409 53 
Q 2131 -91 1766 -91 
Q 1119 -91 703 423 
Q 288 938 288 1747 
Q 288 2556 703 3070 
Q 1119 3584 1766 3584 
Q 2128 3584 2408 3439 
Q 2688 3294 2919 2988 
z
M 2181 722 
Q 2541 722 2730 984 
Q 2919 1247 2919 1747 
Q 2919 2247 2730 2509 
Q 2541 2772 2181 2772 
Q 1825 2772 1636 2509 
Q 1447 2247 1447 1747 
Q 1447 1247 1636 984 
Q 1825 722 2181 722 
z
" transform="scale(0.015625)"/>
      <path id="DejaVuSans-Bold-79" d="M 78 3500 
L 1197 3500 
L 2138 1125 
L 2938 3500 
L 4056 3500 
L 2584 -331 
Q 2363 -916 2067 -1148 
Q 1772 -1381 1288 -1381 
L 641 -1381 
L 641 -647 
L 991 -647 
Q 1275 -647 1404 -556 
Q 1534 -466 1606 -231 
L 1638 -134 
L 78 3500 
z
" transform="scale(0.015625)"/>
      <path id="DejaVuSans-Bold-68" d="M 4056 2131 
L 4056 0 
L 2931 0 
L 2931 347 
L 2931 1625 
Q 2931 2084 2911 2256 
Q 2891 2428 2841 2509 
Q 2775 2619 2662 2680 
Q 2550 2741 2406 2741 
Q 2056 2741 1856 2470 
Q 1656 2200 1656 1722 
L 1656 0 
L 538 0 
L 538 4863 
L 1656 4863 
L 1656 2988 
Q 1909 3294 2193 3439 
Q 2478 3584 2822 3584 
Q 3428 3584 3742 3212 
Q 4056 2841 4056 2131 
z
" transform="scale(0.015625)"/>
      <path id="DejaVuSans-Bold-67" d="M 2919 594 
Q 2688 288 2409 144 
Q 2131 0 1766 0 
Q 1125 0 706 504 
Q 288 1009 288 1791 
Q 288 2575 706 3076 
Q 1125 3578 1766 3578 
Q 2131 3578 2409 3434 
Q 2688 3291 2919 2981 
L 2919 3500 
L 4044 3500 
L 4044 353 
Q 4044 -491 3511 -936 
Q 2978 -1381 1966 -1381 
Q 1638 -1381 1331 -1331 
Q 1025 -1281 716 -1178 
L 716 -306 
Q 1009 -475 1290 -558 
Q 1572 -641 1856 -641 
Q 2406 -641 2662 -400 
Q 2919 -159 2919 353 
L 2919 594 
z
M 2181 2772 
Q 1834 2772 1640 2515 
Q 1447 2259 1447 1791 
Q 1447 1309 1634 1061 
Q 1822 813 2181 813 
Q 2531 813 2725 1069 
Q 2919 1325 2919 1791 
Q 2919 2259 2725 2515 
Q 2531 2772 2181 2772 
z
" transform="scale(0.015625)"/>
     </defs>
     <use xlink:href="#DejaVuSans-Bold-31"/>
     <use xlink:href="#DejaVuSans-Bold-39" transform="translate(69.580078 0)"/>
     <use xlink:href="#DejaVuSans-Bold-20" transform="translate(139.160156 0)"/>
     <use xlink:href="#DejaVuSans-Bold-63" transform="translate(173.974609 0)"/>
     <use xlink:href="#DejaVuSans-Bold-61" transform="translate(233.251953 0)"/>
     <use xlink:href="#DejaVuSans-Bold-70" transform="translate(300.732422 0)"/>
     <use xlink:href="#DejaVuSans-Bold-74" transform="translate(372.314453 0)"/>
     <use xlink:href="#DejaVuSans-Bold-75" transform="translate(420.117188 0)"/>
     <use xlink:href="#DejaVuSans-Bold-72" transform="translate(491.308594 0)"/>
     <use xlink:href="#DejaVuSans-Bold-65" transform="translate(540.625 0)"/>
     <use xlink:href="#DejaVuSans-Bold-64" transform="translate(608.447266 0)"/>
     <use xlink:href="#DejaVuSans-Bold-20" transform="translate(680.029297 0)"/>
     <use xlink:href="#DejaVuSans-Bold-62" transform="translate(714.84375 0)"/>
     <use xlink:href="#DejaVuSans-Bold-79" transform="translate(786.425781 0)"/>
     <use xlink:href="#DejaVuSans-Bold-20" transform="translate(851.611328 0)"/>
     <use xlink:href="#DejaVuSans-Bold-62" transform="translate(886.425781 0)"/>
     <use xlink:href="#DejaVuSans-Bold-6f" transform="translate(958.007812 0)"/>
     <use xlink:href="#DejaVuSans-Bold-74" transform="translate(1026.708984 0)"/>
     <use xlink:href="#DejaVuSans-Bold-68" transform="translate(1074.511719 0)"/>
     <use xlink:href="#DejaVuSans-Bold-20" transform="translate(1145.703125 0)"/>
     <use xlink:href="#DejaVuSans-Bold-67" transform="translate(1180.517578 0)"/>
     <use xlink:href="#DejaVuSans-Bold-72" transform="translate(1252.099609 0)"/>
     <use xlink:href="#DejaVuSans-Bold-6f" transform="translate(1301.416016 0)"/>
     <use xlink:href="#DejaVuSans-Bold-75" transform="translate(1370.117188 0)"/>
     <use xlink:href="#DejaVuSans-Bold-70" transform="translate(1441.308594 0)"/>
     <use xlink:href="#DejaVuSans-Bold-73" transform="translate(1512.890625 0)"/>
    </g>
   </g>
   <g id="text_12">
    <!-- +2 AI-only -->
    <g style="fill: #c58a1a" transform="translate(537.192957 112.377022) rotate(-90) scale(0.12 -0.12)">
     <defs>
      <path id="DejaVuSans-Bold-2b" d="M 3053 4013 
L 3053 2375 
L 4684 2375 
L 4684 1638 
L 3053 1638 
L 3053 0 
L 2309 0 
L 2309 1638 
L 678 1638 
L 678 2375 
L 2309 2375 
L 2309 4013 
L 3053 4013 
z
" transform="scale(0.015625)"/>
      <path id="DejaVuSans-Bold-2d" d="M 347 2297 
L 2309 2297 
L 2309 1388 
L 347 1388 
L 347 2297 
z
" transform="scale(0.015625)"/>
      <path id="DejaVuSans-Bold-6c" d="M 538 4863 
L 1656 4863 
L 1656 0 
L 538 0 
L 538 4863 
z
" transform="scale(0.015625)"/>
     </defs>
     <use xlink:href="#DejaVuSans-Bold-2b"/>
     <use xlink:href="#DejaVuSans-Bold-32" transform="translate(83.789062 0)"/>
     <use xlink:href="#DejaVuSans-Bold-20" transform="translate(153.369141 0)"/>
     <use xlink:href="#DejaVuSans-Bold-41" transform="translate(188.183594 0)"/>
     <use xlink:href="#DejaVuSans-Bold-49" transform="translate(265.576172 0)"/>
     <use xlink:href="#DejaVuSans-Bold-2d" transform="translate(302.783203 0)"/>
     <use xlink:href="#DejaVuSans-Bold-6f" transform="translate(344.287109 0)"/>
     <use xlink:href="#DejaVuSans-Bold-6e" transform="translate(412.988281 0)"/>
     <use xlink:href="#DejaVuSans-Bold-6c" transform="translate(484.179688 0)"/>
     <use xlink:href="#DejaVuSans-Bold-79" transform="translate(518.457031 0)"/>
    </g>
   </g>
   <g id="text_13">
    <!-- olanzapine -->
    <g style="fill: #ffffff" transform="translate(120.481511 608.51484) scale(0.18 -0.18)">
     <defs>
      <path id="DejaVuSans-7a" d="M 353 3500 
L 3084 3500 
L 3084 2975 
L 922 459 
L 3084 459 
L 3084 0 
L 275 0 
L 275 525 
L 2438 3041 
L 353 3041 
L 353 3500 
z
" transform="scale(0.015625)"/>
      <path id="DejaVuSans-70" d="M 1159 525 
L 1159 -1331 
L 581 -1331 
L 581 3500 
L 1159 3500 
L 1159 2969 
Q 1341 3281 1617 3432 
Q 1894 3584 2278 3584 
Q 2916 3584 3314 3078 
Q 3713 2572 3713 1747 
Q 3713 922 3314 415 
Q 2916 -91 2278 -91 
Q 1894 -91 1617 61 
Q 1341 213 1159 525 
z
M 3116 1747 
Q 3116 2381 2855 2742 
Q 2594 3103 2138 3103 
Q 1681 3103 1420 2742 
Q 1159 2381 1159 1747 
Q 1159 1113 1420 752 
Q 1681 391 2138 391 
Q 2594 391 2855 752 
Q 3116 1113 3116 1747 
z
" transform="scale(0.015625)"/>
     </defs>
     <use xlink:href="#DejaVuSans-6f"/>
     <use xlink:href="#DejaVuSans-6c" transform="translate(61.181641 0)"/>
     <use xlink:href="#DejaVuSans-61" transform="translate(88.964844 0)"/>
     <use xlink:href="#DejaVuSans-6e" transform="translate(150.244141 0)"/>
     <use xlink:href="#DejaVuSans-7a" transform="translate(213.623047 0)"/>
     <use xlink:href="#DejaVuSans-61" transform="translate(266.113281 0)"/>
     <use xlink:href="#DejaVuSans-70" transform="translate(327.392578 0)"/>
     <use xlink:href="#DejaVuSans-69" transform="translate(390.869141 0)"/>
     <use xlink:href="#DejaVuSans-6e" transform="translate(418.652344 0)"/>
     <use xlink:href="#DejaVuSans-65" transform="translate(482.03125 0)"/>
    </g>
   </g>
   <g id="text_14">
    <!-- olanzapine -->
    <g style="fill: #ffffff" transform="translate(344.069685 608.51484) scale(0.18 -0.18)">
     <use xlink:href="#DejaVuSans-6f"/>
     <use xlink:href="#DejaVuSans-6c" transform="translate(61.181641 0)"/>
     <use xlink:href="#DejaVuSans-61" transform="translate(88.964844 0)"/>
     <use xlink:href="#DejaVuSans-6e" transform="translate(150.244141 0)"/>
     <use xlink:href="#DejaVuSans-7a" transform="translate(213.623047 0)"/>
     <use xlink:href="#DejaVuSans-61" transform="translate(266.113281 0)"/>
     <use xlink:href="#DejaVuSans-70" transform="translate(327.392578 0)"/>
     <use xlink:href="#DejaVuSans-69" transform="translate(390.869141 0)"/>
     <use xlink:href="#DejaVuSans-6e" transform="translate(418.652344 0)"/>
     <use xlink:href="#DejaVuSans-65" transform="translate(482.03125 0)"/>
    </g>
   </g>
   <g id="text_15">
    <!-- sertraline -->
    <g style="fill: #ffffff" transform="translate(126.490417 581.530769) scale(0.18 -0.18)">
     <use xlink:href="#DejaVuSans-73"/>
     <use xlink:href="#DejaVuSans-65" transform="translate(52.099609 0)"/>
     <use xlink:href="#DejaVuSans-72" transform="translate(113.623047 0)"/>
     <use xlink:href="#DejaVuSans-74" transform="translate(154.736328 0)"/>
     <use xlink:href="#DejaVuSans-72" transform="translate(193.945312 0)"/>
     <use xlink:href="#DejaVuSans-61" transform="translate(235.058594 0)"/>
     <use xlink:href="#DejaVuSans-6c" transform="translate(296.337891 0)"/>
     <use xlink:href="#DejaVuSans-69" transform="translate(324.121094 0)"/>
     <use xlink:href="#DejaVuSans-6e" transform="translate(351.904297 0)"/>
     <use xlink:href="#DejaVuSans-65" transform="translate(415.283203 0)"/>
    </g>
   </g>
   <g id="text_16">
    <!-- sertraline -->
    <g style="fill: #ffffff" transform="translate(350.078591 581.530769) scale(0.18 -0.18)">
     <use xlink:href="#DejaVuSans-73"/>
     <use xlink:href="#DejaVuSans-65" transform="translate(52.099609 0)"/>
     <use xlink:href="#DejaVuSans-72" transform="translate(113.623047 0)"/>
     <use xlink:href="#DejaVuSans-74" transform="translate(154.736328 0)"/>
     <use xlink:href="#DejaVuSans-72" transform="translate(193.945312 0)"/>
     <use xlink:href="#DejaVuSans-61" transform="translate(235.058594 0)"/>
     <use xlink:href="#DejaVuSans-6c" transform="translate(296.337891 0)"/>
     <use xlink:href="#DejaVuSans-69" transform="translate(324.121094 0)"/>
     <use xlink:href="#DejaVuSans-6e" transform="translate(351.904297 0)"/>
     <use xlink:href="#DejaVuSans-65" transform="translate(415.283203 0)"/>
    </g>
   </g>
   <g id="text_17">
    <!-- aripiprazole -->
    <g style="fill: #ffffff" transform="translate(116.275417 554.546698) scale(0.18 -0.18)">
     <use xlink:href="#DejaVuSans-61"/>
     <use xlink:href="#DejaVuSans-72" transform="translate(61.279297 0)"/>
     <use xlink:href="#DejaVuSans-69" transform="translate(102.392578 0)"/>
     <use xlink:href="#DejaVuSans-70" transform="translate(130.175781 0)"/>
     <use xlink:href="#DejaVuSans-69" transform="translate(193.652344 0)"/>
     <use xlink:href="#DejaVuSans-70" transform="translate(221.435547 0)"/>
     <use xlink:href="#DejaVuSans-72" transform="translate(284.912109 0)"/>
     <use xlink:href="#DejaVuSans-61" transform="translate(326.025391 0)"/>
     <use xlink:href="#DejaVuSans-7a" transform="translate(387.304688 0)"/>
     <use xlink:href="#DejaVuSans-6f" transform="translate(439.794922 0)"/>
     <use xlink:href="#DejaVuSans-6c" transform="translate(500.976562 0)"/>
     <use xlink:href="#DejaVuSans-65" transform="translate(528.759766 0)"/>
    </g>
   </g>
   <g id="text_18">
    <!-- aripiprazole -->
    <g style="fill: #ffffff" transform="translate(339.863591 554.546698) scale(0.18 -0.18)">
     <use xlink:href="#DejaVuSans-61"/>
     <use xlink:href="#DejaVuSans-72" transform="translate(61.279297 0)"/>
     <use xlink:href="#DejaVuSans-69" transform="translate(102.392578 0)"/>
     <use xlink:href="#DejaVuSans-70" transform="translate(130.175781 0)"/>
     <use xlink:href="#DejaVuSans-69" transform="translate(193.652344 0)"/>
     <use xlink:href="#DejaVuSans-70" transform="translate(221.435547 0)"/>
     <use xlink:href="#DejaVuSans-72" transform="translate(284.912109 0)"/>
     <use xlink:href="#DejaVuSans-61" transform="translate(326.025391 0)"/>
     <use xlink:href="#DejaVuSans-7a" transform="translate(387.304688 0)"/>
     <use xlink:href="#DejaVuSans-6f" transform="translate(439.794922 0)"/>
     <use xlink:href="#DejaVuSans-6c" transform="translate(500.976562 0)"/>
     <use xlink:href="#DejaVuSans-65" transform="translate(528.759766 0)"/>
    </g>
   </g>
   <g id="text_19">
    <!-- risperidone -->
    <g style="fill: #ffffff" transform="translate(118.599948 527.562627) scale(0.18 -0.18)">
     <use xlink:href="#DejaVuSans-72"/>
     <use xlink:href="#DejaVuSans-69" transform="translate(41.113281 0)"/>
     <use xlink:href="#DejaVuSans-73" transform="translate(68.896484 0)"/>
     <use xlink:href="#DejaVuSans-70" transform="translate(120.996094 0)"/>
     <use xlink:href="#DejaVuSans-65" transform="translate(184.472656 0)"/>
     <use xlink:href="#DejaVuSans-72" transform="translate(245.996094 0)"/>
     <use xlink:href="#DejaVuSans-69" transform="translate(287.109375 0)"/>
     <use xlink:href="#DejaVuSans-64" transform="translate(314.892578 0)"/>
     <use xlink:href="#DejaVuSans-6f" transform="translate(378.369141 0)"/>
     <use xlink:href="#DejaVuSans-6e" transform="translate(439.550781 0)"/>
     <use xlink:href="#DejaVuSans-65" transform="translate(502.929688 0)"/>
    </g>
   </g>
   <g id="text_20">
    <!-- risperidone -->
    <g style="fill: #ffffff" transform="translate(342.188122 527.562627) scale(0.18 -0.18)">
     <use xlink:href="#DejaVuSans-72"/>
     <use xlink:href="#DejaVuSans-69" transform="translate(41.113281 0)"/>
     <use xlink:href="#DejaVuSans-73" transform="translate(68.896484 0)"/>
     <use xlink:href="#DejaVuSans-70" transform="translate(120.996094 0)"/>
     <use xlink:href="#DejaVuSans-65" transform="translate(184.472656 0)"/>
     <use xlink:href="#DejaVuSans-72" transform="translate(245.996094 0)"/>
     <use xlink:href="#DejaVuSans-69" transform="translate(287.109375 0)"/>
     <use xlink:href="#DejaVuSans-64" transform="translate(314.892578 0)"/>
     <use xlink:href="#DejaVuSans-6f" transform="translate(378.369141 0)"/>
     <use xlink:href="#DejaVuSans-6e" transform="translate(439.550781 0)"/>
     <use xlink:href="#DejaVuSans-65" transform="translate(502.929688 0)"/>
    </g>
   </g>
   <g id="text_21">
    <!-- brexpiprazole -->
    <g style="fill: #ffffff" transform="translate(108.072761 500.578556) scale(0.18 -0.18)">
     <use xlink:href="#DejaVuSans-62"/>
     <use xlink:href="#DejaVuSans-72" transform="translate(63.476562 0)"/>
     <use xlink:href="#DejaVuSans-65" transform="translate(102.339844 0)"/>
     <use xlink:href="#DejaVuSans-78" transform="translate(162.113281 0)"/>
     <use xlink:href="#DejaVuSans-70" transform="translate(221.292969 0)"/>
     <use xlink:href="#DejaVuSans-69" transform="translate(284.769531 0)"/>
     <use xlink:href="#DejaVuSans-70" transform="translate(312.552734 0)"/>
     <use xlink:href="#DejaVuSans-72" transform="translate(376.029297 0)"/>
     <use xlink:href="#DejaVuSans-61" transform="translate(417.142578 0)"/>
     <use xlink:href="#DejaVuSans-7a" transform="translate(478.421875 0)"/>
     <use xlink:href="#DejaVuSans-6f" transform="translate(530.912109 0)"/>
     <use xlink:href="#DejaVuSans-6c" transform="translate(592.09375 0)"/>
     <use xlink:href="#DejaVuSans-65" transform="translate(619.876953 0)"/>
    </g>
   </g>
   <g id="text_22">
    <!-- brexpiprazole -->
    <g style="fill: #ffffff" transform="translate(331.660935 500.578556) scale(0.18 -0.18)">
     <use xlink:href="#DejaVuSans-62"/>
     <use xlink:href="#DejaVuSans-72" transform="translate(63.476562 0)"/>
     <use xlink:href="#DejaVuSans-65" transform="translate(102.339844 0)"/>
     <use xlink:href="#DejaVuSans-78" transform="translate(162.113281 0)"/>
     <use xlink:href="#DejaVuSans-70" transform="translate(221.292969 0)"/>
     <use xlink:href="#DejaVuSans-69" transform="translate(284.769531 0)"/>
     <use xlink:href="#DejaVuSans-70" transform="translate(312.552734 0)"/>
     <use xlink:href="#DejaVuSans-72" transform="translate(376.029297 0)"/>
     <use xlink:href="#DejaVuSans-61" transform="translate(417.142578 0)"/>
     <use xlink:href="#DejaVuSans-7a" transform="translate(478.421875 0)"/>
     <use xlink:href="#DejaVuSans-6f" transform="translate(530.912109 0)"/>
     <use xlink:href="#DejaVuSans-6c" transform="translate(592.09375 0)"/>
     <use xlink:href="#DejaVuSans-65" transform="translate(619.876953 0)"/>
    </g>
   </g>
   <g id="text_23">
    <!-- escitalopram -->
    <g style="fill: #ffffff" transform="translate(110.980886 473.594486) scale(0.18 -0.18)">
     <use xlink:href="#DejaVuSans-65"/>
     <use xlink:href="#DejaVuSans-73" transform="translate(61.523438 0)"/>
     <use xlink:href="#DejaVuSans-63" transform="translate(113.623047 0)"/>
     <use xlink:href="#DejaVuSans-69" transform="translate(168.603516 0)"/>
     <use xlink:href="#DejaVuSans-74" transform="translate(196.386719 0)"/>
     <use xlink:href="#DejaVuSans-61" transform="translate(235.595703 0)"/>
     <use xlink:href="#DejaVuSans-6c" transform="translate(296.875 0)"/>
     <use xlink:href="#DejaVuSans-6f" transform="translate(324.658203 0)"/>
     <use xlink:href="#DejaVuSans-70" transform="translate(385.839844 0)"/>
     <use xlink:href="#DejaVuSans-72" transform="translate(449.316406 0)"/>
     <use xlink:href="#DejaVuSans-61" transform="translate(490.429688 0)"/>
     <use xlink:href="#DejaVuSans-6d" transform="translate(551.708984 0)"/>
    </g>
   </g>
   <g id="text_24">
    <!-- escitalopram -->
    <g style="fill: #ffffff" transform="translate(334.56906 473.594486) scale(0.18 -0.18)">
     <use xlink:href="#DejaVuSans-65"/>
     <use xlink:href="#DejaVuSans-73" transform="translate(61.523438 0)"/>
     <use xlink:href="#DejaVuSans-63" transform="translate(113.623047 0)"/>
     <use xlink:href="#DejaVuSans-69" transform="translate(168.603516 0)"/>
     <use xlink:href="#DejaVuSans-74" transform="translate(196.386719 0)"/>
     <use xlink:href="#DejaVuSans-61" transform="translate(235.595703 0)"/>
     <use xlink:href="#DejaVuSans-6c" transform="translate(296.875 0)"/>
     <use xlink:href="#DejaVuSans-6f" transform="translate(324.658203 0)"/>
     <use xlink:href="#DejaVuSans-70" transform="translate(385.839844 0)"/>
     <use xlink:href="#DejaVuSans-72" transform="translate(449.316406 0)"/>
     <use xlink:href="#DejaVuSans-61" transform="translate(490.429688 0)"/>
     <use xlink:href="#DejaVuSans-6d" transform="translate(551.708984 0)"/>
    </g>
   </g>
   <g id="text_25">
    <!-- amoxicillin -->
    <g style="fill: #ffffff" transform="translate(121.413855 446.610415) scale(0.18 -0.18)">
     <use xlink:href="#DejaVuSans-61"/>
     <use xlink:href="#DejaVuSans-6d" transform="translate(61.279297 0)"/>
     <use xlink:href="#DejaVuSans-6f" transform="translate(158.691406 0)"/>
     <use xlink:href="#DejaVuSans-78" transform="translate(216.748047 0)"/>
     <use xlink:href="#DejaVuSans-69" transform="translate(275.927734 0)"/>
     <use xlink:href="#DejaVuSans-63" transform="translate(303.710938 0)"/>
     <use xlink:href="#DejaVuSans-69" transform="translate(358.691406 0)"/>
     <use xlink:href="#DejaVuSans-6c" transform="translate(386.474609 0)"/>
     <use xlink:href="#DejaVuSans-6c" transform="translate(414.257812 0)"/>
     <use xlink:href="#DejaVuSans-69" transform="translate(442.041016 0)"/>
     <use xlink:href="#DejaVuSans-6e" transform="translate(469.824219 0)"/>
    </g>
   </g>
   <g id="text_26">
    <!-- amoxicillin -->
    <g style="fill: #ffffff" transform="translate(345.002029 446.610415) scale(0.18 -0.18)">
     <use xlink:href="#DejaVuSans-61"/>
     <use xlink:href="#DejaVuSans-6d" transform="translate(61.279297 0)"/>
     <use xlink:href="#DejaVuSans-6f" transform="translate(158.691406 0)"/>
     <use xlink:href="#DejaVuSans-78" transform="translate(216.748047 0)"/>
     <use xlink:href="#DejaVuSans-69" transform="translate(275.927734 0)"/>
     <use xlink:href="#DejaVuSans-63" transform="translate(303.710938 0)"/>
     <use xlink:href="#DejaVuSans-69" transform="translate(358.691406 0)"/>
     <use xlink:href="#DejaVuSans-6c" transform="translate(386.474609 0)"/>
     <use xlink:href="#DejaVuSans-6c" transform="translate(414.257812 0)"/>
     <use xlink:href="#DejaVuSans-69" transform="translate(442.041016 0)"/>
     <use xlink:href="#DejaVuSans-6e" transform="translate(469.824219 0)"/>
    </g>
   </g>
   <g id="text_27">
    <!-- penicillin VK -->
    <g style="fill: #ffffff" transform="translate(114.374167 419.626344) scale(0.18 -0.18)">
     <defs>
      <path id="DejaVuSans-56" d="M 1831 0 
L 50 4666 
L 709 4666 
L 2188 738 
L 3669 4666 
L 4325 4666 
L 2547 0 
L 1831 0 
z
" transform="scale(0.015625)"/>
      <path id="DejaVuSans-4b" d="M 628 4666 
L 1259 4666 
L 1259 2694 
L 3353 4666 
L 4166 4666 
L 1850 2491 
L 4331 0 
L 3500 0 
L 1259 2247 
L 1259 0 
L 628 0 
L 628 4666 
z
" transform="scale(0.015625)"/>
     </defs>
     <use xlink:href="#DejaVuSans-70"/>
     <use xlink:href="#DejaVuSans-65" transform="translate(63.476562 0)"/>
     <use xlink:href="#DejaVuSans-6e" transform="translate(125 0)"/>
     <use xlink:href="#DejaVuSans-69" transform="translate(188.378906 0)"/>
     <use xlink:href="#DejaVuSans-63" transform="translate(216.162109 0)"/>
     <use xlink:href="#DejaVuSans-69" transform="translate(271.142578 0)"/>
     <use xlink:href="#DejaVuSans-6c" transform="translate(298.925781 0)"/>
     <use xlink:href="#DejaVuSans-6c" transform="translate(326.708984 0)"/>
     <use xlink:href="#DejaVuSans-69" transform="translate(354.492188 0)"/>
     <use xlink:href="#DejaVuSans-6e" transform="translate(382.275391 0)"/>
     <use xlink:href="#DejaVuSans-20" transform="translate(445.654297 0)"/>
     <use xlink:href="#DejaVuSans-56" transform="translate(477.441406 0)"/>
     <use xlink:href="#DejaVuSans-4b" transform="translate(545.849609 0)"/>
    </g>
   </g>
   <g id="text_28">
    <!-- penicillin VK -->
    <g style="fill: #ffffff" transform="translate(337.962341 419.626344) scale(0.18 -0.18)">
     <use xlink:href="#DejaVuSans-70"/>
     <use xlink:href="#DejaVuSans-65" transform="translate(63.476562 0)"/>
     <use xlink:href="#DejaVuSans-6e" transform="translate(125 0)"/>
     <use xlink:href="#DejaVuSans-69" transform="translate(188.378906 0)"/>
     <use xlink:href="#DejaVuSans-63" transform="translate(216.162109 0)"/>
     <use xlink:href="#DejaVuSans-69" transform="translate(271.142578 0)"/>
     <use xlink:href="#DejaVuSans-6c" transform="translate(298.925781 0)"/>
     <use xlink:href="#DejaVuSans-6c" transform="translate(326.708984 0)"/>
     <use xlink:href="#DejaVuSans-69" transform="translate(354.492188 0)"/>
     <use xlink:href="#DejaVuSans-6e" transform="translate(382.275391 0)"/>
     <use xlink:href="#DejaVuSans-20" transform="translate(445.654297 0)"/>
     <use xlink:href="#DejaVuSans-56" transform="translate(477.441406 0)"/>
     <use xlink:href="#DejaVuSans-4b" transform="translate(545.849609 0)"/>
    </g>
   </g>
   <g id="text_29">
    <!-- ibuprofen -->
    <g style="fill: #ffffff" transform="translate(126.356823 392.642273) scale(0.18 -0.18)">
     <use xlink:href="#DejaVuSans-69"/>
     <use xlink:href="#DejaVuSans-62" transform="translate(27.783203 0)"/>
     <use xlink:href="#DejaVuSans-75" transform="translate(91.259766 0)"/>
     <use xlink:href="#DejaVuSans-70" transform="translate(154.638672 0)"/>
     <use xlink:href="#DejaVuSans-72" transform="translate(218.115234 0)"/>
     <use xlink:href="#DejaVuSans-6f" transform="translate(256.978516 0)"/>
     <use xlink:href="#DejaVuSans-66" transform="translate(318.160156 0)"/>
     <use xlink:href="#DejaVuSans-65" transform="translate(353.365234 0)"/>
     <use xlink:href="#DejaVuSans-6e" transform="translate(414.888672 0)"/>
    </g>
   </g>
   <g id="text_30">
    <!-- ibuprofen -->
    <g style="fill: #ffffff" transform="translate(349.944997 392.642273) scale(0.18 -0.18)">
     <use xlink:href="#DejaVuSans-69"/>
     <use xlink:href="#DejaVuSans-62" transform="translate(27.783203 0)"/>
     <use xlink:href="#DejaVuSans-75" transform="translate(91.259766 0)"/>
     <use xlink:href="#DejaVuSans-70" transform="translate(154.638672 0)"/>
     <use xlink:href="#DejaVuSans-72" transform="translate(218.115234 0)"/>
     <use xlink:href="#DejaVuSans-6f" transform="translate(256.978516 0)"/>
     <use xlink:href="#DejaVuSans-66" transform="translate(318.160156 0)"/>
     <use xlink:href="#DejaVuSans-65" transform="translate(353.365234 0)"/>
     <use xlink:href="#DejaVuSans-6e" transform="translate(414.888672 0)"/>
    </g>
   </g>
   <g id="text_31">
    <!-- naproxen -->
    <g style="fill: #ffffff" transform="translate(127.459323 365.658202) scale(0.18 -0.18)">
     <use xlink:href="#DejaVuSans-6e"/>
     <use xlink:href="#DejaVuSans-61" transform="translate(63.378906 0)"/>
     <use xlink:href="#DejaVuSans-70" transform="translate(124.658203 0)"/>
     <use xlink:href="#DejaVuSans-72" transform="translate(188.134766 0)"/>
     <use xlink:href="#DejaVuSans-6f" transform="translate(226.998047 0)"/>
     <use xlink:href="#DejaVuSans-78" transform="translate(285.054688 0)"/>
     <use xlink:href="#DejaVuSans-65" transform="translate(341.109375 0)"/>
     <use xlink:href="#DejaVuSans-6e" transform="translate(402.632812 0)"/>
    </g>
   </g>
   <g id="text_32">
    <!-- naproxen -->
    <g style="fill: #ffffff" transform="translate(351.047497 365.658202) scale(0.18 -0.18)">
     <use xlink:href="#DejaVuSans-6e"/>
     <use xlink:href="#DejaVuSans-61" transform="translate(63.378906 0)"/>
     <use xlink:href="#DejaVuSans-70" transform="translate(124.658203 0)"/>
     <use xlink:href="#DejaVuSans-72" transform="translate(188.134766 0)"/>
     <use xlink:href="#DejaVuSans-6f" transform="translate(226.998047 0)"/>
     <use xlink:href="#DejaVuSans-78" transform="translate(285.054688 0)"/>
     <use xlink:href="#DejaVuSans-65" transform="translate(341.109375 0)"/>
     <use xlink:href="#DejaVuSans-6e" transform="translate(402.632812 0)"/>
    </g>
   </g>
   <g id="text_33">
    <!-- meloxicam -->
    <g style="fill: #ffffff" transform="translate(120.314167 338.674132) scale(0.18 -0.18)">
     <use xlink:href="#DejaVuSans-6d"/>
     <use xlink:href="#DejaVuSans-65" transform="translate(97.412109 0)"/>
     <use xlink:href="#DejaVuSans-6c" transform="translate(158.935547 0)"/>
     <use xlink:href="#DejaVuSans-6f" transform="translate(186.71875 0)"/>
     <use xlink:href="#DejaVuSans-78" transform="translate(244.775391 0)"/>
     <use xlink:href="#DejaVuSans-69" transform="translate(303.955078 0)"/>
     <use xlink:href="#DejaVuSans-63" transform="translate(331.738281 0)"/>
     <use xlink:href="#DejaVuSans-61" transform="translate(386.71875 0)"/>
     <use xlink:href="#DejaVuSans-6d" transform="translate(447.998047 0)"/>
    </g>
   </g>
   <g id="text_34">
    <!-- meloxicam -->
    <g style="fill: #ffffff" transform="translate(343.902341 338.674132) scale(0.18 -0.18)">
     <use xlink:href="#DejaVuSans-6d"/>
     <use xlink:href="#DejaVuSans-65" transform="translate(97.412109 0)"/>
     <use xlink:href="#DejaVuSans-6c" transform="translate(158.935547 0)"/>
     <use xlink:href="#DejaVuSans-6f" transform="translate(186.71875 0)"/>
     <use xlink:href="#DejaVuSans-78" transform="translate(244.775391 0)"/>
     <use xlink:href="#DejaVuSans-69" transform="translate(303.955078 0)"/>
     <use xlink:href="#DejaVuSans-63" transform="translate(331.738281 0)"/>
     <use xlink:href="#DejaVuSans-61" transform="translate(386.71875 0)"/>
     <use xlink:href="#DejaVuSans-6d" transform="translate(447.998047 0)"/>
    </g>
   </g>
   <g id="text_35">
    <!-- celecoxib -->
    <g style="fill: #ffffff" transform="translate(127.162605 311.690061) scale(0.18 -0.18)">
     <use xlink:href="#DejaVuSans-63"/>
     <use xlink:href="#DejaVuSans-65" transform="translate(54.980469 0)"/>
     <use xlink:href="#DejaVuSans-6c" transform="translate(116.503906 0)"/>
     <use xlink:href="#DejaVuSans-65" transform="translate(144.287109 0)"/>
     <use xlink:href="#DejaVuSans-63" transform="translate(205.810547 0)"/>
     <use xlink:href="#DejaVuSans-6f" transform="translate(260.791016 0)"/>
     <use xlink:href="#DejaVuSans-78" transform="translate(318.847656 0)"/>
     <use xlink:href="#DejaVuSans-69" transform="translate(378.027344 0)"/>
     <use xlink:href="#DejaVuSans-62" transform="translate(405.810547 0)"/>
    </g>
   </g>
   <g id="text_36">
    <!-- celecoxib -->
    <g style="fill: #ffffff" transform="translate(350.750779 311.690061) scale(0.18 -0.18)">
     <use xlink:href="#DejaVuSans-63"/>
     <use xlink:href="#DejaVuSans-65" transform="translate(54.980469 0)"/>
     <use xlink:href="#DejaVuSans-6c" transform="translate(116.503906 0)"/>
     <use xlink:href="#DejaVuSans-65" transform="translate(144.287109 0)"/>
     <use xlink:href="#DejaVuSans-63" transform="translate(205.810547 0)"/>
     <use xlink:href="#DejaVuSans-6f" transform="translate(260.791016 0)"/>
     <use xlink:href="#DejaVuSans-78" transform="translate(318.847656 0)"/>
     <use xlink:href="#DejaVuSans-69" transform="translate(378.027344 0)"/>
     <use xlink:href="#DejaVuSans-62" transform="translate(405.810547 0)"/>
    </g>
   </g>
   <g id="text_37">
    <!-- prednisone -->
    <g style="fill: #ffffff" transform="translate(119.298855 284.70599) scale(0.18 -0.18)">
     <use xlink:href="#DejaVuSans-70"/>
     <use xlink:href="#DejaVuSans-72" transform="translate(63.476562 0)"/>
     <use xlink:href="#DejaVuSans-65" transform="translate(102.339844 0)"/>
     <use xlink:href="#DejaVuSans-64" transform="translate(163.863281 0)"/>
     <use xlink:href="#DejaVuSans-6e" transform="translate(227.339844 0)"/>
     <use xlink:href="#DejaVuSans-69" transform="translate(290.71875 0)"/>
     <use xlink:href="#DejaVuSans-73" transform="translate(318.501953 0)"/>
     <use xlink:href="#DejaVuSans-6f" transform="translate(370.601562 0)"/>
     <use xlink:href="#DejaVuSans-6e" transform="translate(431.783203 0)"/>
     <use xlink:href="#DejaVuSans-65" transform="translate(495.162109 0)"/>
    </g>
   </g>
   <g id="text_38">
    <!-- prednisone -->
    <g style="fill: #ffffff" transform="translate(342.887029 284.70599) scale(0.18 -0.18)">
     <use xlink:href="#DejaVuSans-70"/>
     <use xlink:href="#DejaVuSans-72" transform="translate(63.476562 0)"/>
     <use xlink:href="#DejaVuSans-65" transform="translate(102.339844 0)"/>
     <use xlink:href="#DejaVuSans-64" transform="translate(163.863281 0)"/>
     <use xlink:href="#DejaVuSans-6e" transform="translate(227.339844 0)"/>
     <use xlink:href="#DejaVuSans-69" transform="translate(290.71875 0)"/>
     <use xlink:href="#DejaVuSans-73" transform="translate(318.501953 0)"/>
     <use xlink:href="#DejaVuSans-6f" transform="translate(370.601562 0)"/>
     <use xlink:href="#DejaVuSans-6e" transform="translate(431.783203 0)"/>
     <use xlink:href="#DejaVuSans-65" transform="translate(495.162109 0)"/>
    </g>
   </g>
   <g id="text_39">
    <!-- methylprednisolone -->
    <g style="fill: #ffffff" transform="translate(79.928073 257.721919) scale(0.18 -0.18)">
     <defs>
      <path id="DejaVuSans-68" d="M 3513 2113 
L 3513 0 
L 2938 0 
L 2938 2094 
Q 2938 2591 2744 2837 
Q 2550 3084 2163 3084 
Q 1697 3084 1428 2787 
Q 1159 2491 1159 1978 
L 1159 0 
L 581 0 
L 581 4863 
L 1159 4863 
L 1159 2956 
Q 1366 3272 1645 3428 
Q 1925 3584 2291 3584 
Q 2894 3584 3203 3211 
Q 3513 2838 3513 2113 
z
" transform="scale(0.015625)"/>
      <path id="DejaVuSans-79" d="M 2059 -325 
Q 1816 -950 1584 -1140 
Q 1353 -1331 966 -1331 
L 506 -1331 
L 506 -850 
L 844 -850 
Q 1081 -850 1212 -737 
Q 1344 -625 1503 -206 
L 1606 56 
L 191 3500 
L 800 3500 
L 1894 763 
L 2988 3500 
L 3597 3500 
L 2059 -325 
z
" transform="scale(0.015625)"/>
     </defs>
     <use xlink:href="#DejaVuSans-6d"/>
     <use xlink:href="#DejaVuSans-65" transform="translate(97.412109 0)"/>
     <use xlink:href="#DejaVuSans-74" transform="translate(158.935547 0)"/>
     <use xlink:href="#DejaVuSans-68" transform="translate(198.144531 0)"/>
     <use xlink:href="#DejaVuSans-79" transform="translate(261.523438 0)"/>
     <use xlink:href="#DejaVuSans-6c" transform="translate(320.703125 0)"/>
     <use xlink:href="#DejaVuSans-70" transform="translate(348.486328 0)"/>
     <use xlink:href="#DejaVuSans-72" transform="translate(411.962891 0)"/>
     <use xlink:href="#DejaVuSans-65" transform="translate(450.826172 0)"/>
     <use xlink:href="#DejaVuSans-64" transform="translate(512.349609 0)"/>
     <use xlink:href="#DejaVuSans-6e" transform="translate(575.826172 0)"/>
     <use xlink:href="#DejaVuSans-69" transform="translate(639.205078 0)"/>
     <use xlink:href="#DejaVuSans-73" transform="translate(666.988281 0)"/>
     <use xlink:href="#DejaVuSans-6f" transform="translate(719.087891 0)"/>
     <use xlink:href="#DejaVuSans-6c" transform="translate(780.269531 0)"/>
     <use xlink:href="#DejaVuSans-6f" transform="translate(808.052734 0)"/>
     <use xlink:href="#DejaVuSans-6e" transform="translate(869.234375 0)"/>
     <use xlink:href="#DejaVuSans-65" transform="translate(932.613281 0)"/>
    </g>
   </g>
   <g id="text_40">
    <!-- methylprednisolone -->
    <g style="fill: #ffffff" transform="translate(303.516247 257.721919) scale(0.18 -0.18)">
     <use xlink:href="#DejaVuSans-6d"/>
     <use xlink:href="#DejaVuSans-65" transform="translate(97.412109 0)"/>
     <use xlink:href="#DejaVuSans-74" transform="translate(158.935547 0)"/>
     <use xlink:href="#DejaVuSans-68" transform="translate(198.144531 0)"/>
     <use xlink:href="#DejaVuSans-79" transform="translate(261.523438 0)"/>
     <use xlink:href="#DejaVuSans-6c" transform="translate(320.703125 0)"/>
     <use xlink:href="#DejaVuSans-70" transform="translate(348.486328 0)"/>
     <use xlink:href="#DejaVuSans-72" transform="translate(411.962891 0)"/>
     <use xlink:href="#DejaVuSans-65" transform="translate(450.826172 0)"/>
     <use xlink:href="#DejaVuSans-64" transform="translate(512.349609 0)"/>
     <use xlink:href="#DejaVuSans-6e" transform="translate(575.826172 0)"/>
     <use xlink:href="#DejaVuSans-69" transform="translate(639.205078 0)"/>
     <use xlink:href="#DejaVuSans-73" transform="translate(666.988281 0)"/>
     <use xlink:href="#DejaVuSans-6f" transform="translate(719.087891 0)"/>
     <use xlink:href="#DejaVuSans-6c" transform="translate(780.269531 0)"/>
     <use xlink:href="#DejaVuSans-6f" transform="translate(808.052734 0)"/>
     <use xlink:href="#DejaVuSans-6e" transform="translate(869.234375 0)"/>
     <use xlink:href="#DejaVuSans-65" transform="translate(932.613281 0)"/>
    </g>
   </g>
   <g id="text_41">
    <!-- IVIG -->
    <g style="fill: #ffffff" transform="translate(150.96198 230.737848) scale(0.18 -0.18)">
     <defs>
      <path id="DejaVuSans-49" d="M 628 4666 
L 1259 4666 
L 1259 0 
L 628 0 
L 628 4666 
z
" transform="scale(0.015625)"/>
      <path id="DejaVuSans-47" d="M 3809 666 
L 3809 1919 
L 2778 1919 
L 2778 2438 
L 4434 2438 
L 4434 434 
Q 4069 175 3628 42 
Q 3188 -91 2688 -91 
Q 1594 -91 976 548 
Q 359 1188 359 2328 
Q 359 3472 976 4111 
Q 1594 4750 2688 4750 
Q 3144 4750 3555 4637 
Q 3966 4525 4313 4306 
L 4313 3634 
Q 3963 3931 3569 4081 
Q 3175 4231 2741 4231 
Q 1884 4231 1454 3753 
Q 1025 3275 1025 2328 
Q 1025 1384 1454 906 
Q 1884 428 2741 428 
Q 3075 428 3337 486 
Q 3600 544 3809 666 
z
" transform="scale(0.015625)"/>
     </defs>
     <use xlink:href="#DejaVuSans-49"/>
     <use xlink:href="#DejaVuSans-56" transform="translate(29.492188 0)"/>
     <use xlink:href="#DejaVuSans-49" transform="translate(97.900391 0)"/>
     <use xlink:href="#DejaVuSans-47" transform="translate(127.392578 0)"/>
    </g>
   </g>
   <g id="text_42">
    <!-- IVIG -->
    <g style="fill: #ffffff" transform="translate(374.550154 230.737848) scale(0.18 -0.18)">
     <use xlink:href="#DejaVuSans-49"/>
     <use xlink:href="#DejaVuSans-56" transform="translate(29.492188 0)"/>
     <use xlink:href="#DejaVuSans-49" transform="translate(97.900391 0)"/>
     <use xlink:href="#DejaVuSans-47" transform="translate(127.392578 0)"/>
    </g>
   </g>
   <g id="text_43">
    <!-- leflunomide -->
    <g style="fill: #ffffff" transform="translate(116.262761 203.753778) scale(0.18 -0.18)">
     <use xlink:href="#DejaVuSans-6c"/>
     <use xlink:href="#DejaVuSans-65" transform="translate(27.783203 0)"/>
     <use xlink:href="#DejaVuSans-66" transform="translate(89.306641 0)"/>
     <use xlink:href="#DejaVuSans-6c" transform="translate(124.511719 0)"/>
     <use xlink:href="#DejaVuSans-75" transform="translate(152.294922 0)"/>
     <use xlink:href="#DejaVuSans-6e" transform="translate(215.673828 0)"/>
     <use xlink:href="#DejaVuSans-6f" transform="translate(279.052734 0)"/>
     <use xlink:href="#DejaVuSans-6d" transform="translate(340.234375 0)"/>
     <use xlink:href="#DejaVuSans-69" transform="translate(437.646484 0)"/>
     <use xlink:href="#DejaVuSans-64" transform="translate(465.429688 0)"/>
     <use xlink:href="#DejaVuSans-65" transform="translate(528.90625 0)"/>
    </g>
   </g>
   <g id="text_44">
    <!-- leflunomide -->
    <g style="fill: #ffffff" transform="translate(339.850935 203.753778) scale(0.18 -0.18)">
     <use xlink:href="#DejaVuSans-6c"/>
     <use xlink:href="#DejaVuSans-65" transform="translate(27.783203 0)"/>
     <use xlink:href="#DejaVuSans-66" transform="translate(89.306641 0)"/>
     <use xlink:href="#DejaVuSans-6c" transform="translate(124.511719 0)"/>
     <use xlink:href="#DejaVuSans-75" transform="translate(152.294922 0)"/>
     <use xlink:href="#DejaVuSans-6e" transform="translate(215.673828 0)"/>
     <use xlink:href="#DejaVuSans-6f" transform="translate(279.052734 0)"/>
     <use xlink:href="#DejaVuSans-6d" transform="translate(340.234375 0)"/>
     <use xlink:href="#DejaVuSans-69" transform="translate(437.646484 0)"/>
     <use xlink:href="#DejaVuSans-64" transform="translate(465.429688 0)"/>
     <use xlink:href="#DejaVuSans-65" transform="translate(528.90625 0)"/>
    </g>
   </g>
   <g id="text_45">
    <!-- adalimumab -->
    <g style="fill: #ffffff" transform="translate(113.191511 176.769707) scale(0.18 -0.18)">
     <use xlink:href="#DejaVuSans-61"/>
     <use xlink:href="#DejaVuSans-64" transform="translate(61.279297 0)"/>
     <use xlink:href="#DejaVuSans-61" transform="translate(124.755859 0)"/>
     <use xlink:href="#DejaVuSans-6c" transform="translate(186.035156 0)"/>
     <use xlink:href="#DejaVuSans-69" transform="translate(213.818359 0)"/>
     <use xlink:href="#DejaVuSans-6d" transform="translate(241.601562 0)"/>
     <use xlink:href="#DejaVuSans-75" transform="translate(339.013672 0)"/>
     <use xlink:href="#DejaVuSans-6d" transform="translate(402.392578 0)"/>
     <use xlink:href="#DejaVuSans-61" transform="translate(499.804688 0)"/>
     <use xlink:href="#DejaVuSans-62" transform="translate(561.083984 0)"/>
    </g>
   </g>
   <g id="text_46">
    <!-- adalimumab -->
    <g style="fill: #ffffff" transform="translate(336.779685 176.769707) scale(0.18 -0.18)">
     <use xlink:href="#DejaVuSans-61"/>
     <use xlink:href="#DejaVuSans-64" transform="translate(61.279297 0)"/>
     <use xlink:href="#DejaVuSans-61" transform="translate(124.755859 0)"/>
     <use xlink:href="#DejaVuSans-6c" transform="translate(186.035156 0)"/>
     <use xlink:href="#DejaVuSans-69" transform="translate(213.818359 0)"/>
     <use xlink:href="#DejaVuSans-6d" transform="translate(241.601562 0)"/>
     <use xlink:href="#DejaVuSans-75" transform="translate(339.013672 0)"/>
     <use xlink:href="#DejaVuSans-6d" transform="translate(402.392578 0)"/>
     <use xlink:href="#DejaVuSans-61" transform="translate(499.804688 0)"/>
     <use xlink:href="#DejaVuSans-62" transform="translate(561.083984 0)"/>
    </g>
   </g>
   <g id="text_47">
    <!-- hydroxychloroquine -->
    <g style="fill: #ffffff" transform="translate(80.45823 149.785636) scale(0.18 -0.18)">
     <defs>
      <path id="DejaVuSans-71" d="M 947 1747 
Q 947 1113 1208 752 
Q 1469 391 1925 391 
Q 2381 391 2643 752 
Q 2906 1113 2906 1747 
Q 2906 2381 2643 2742 
Q 2381 3103 1925 3103 
Q 1469 3103 1208 2742 
Q 947 2381 947 1747 
z
M 2906 525 
Q 2725 213 2448 61 
Q 2172 -91 1784 -91 
Q 1150 -91 751 415 
Q 353 922 353 1747 
Q 353 2572 751 3078 
Q 1150 3584 1784 3584 
Q 2172 3584 2448 3432 
Q 2725 3281 2906 2969 
L 2906 3500 
L 3481 3500 
L 3481 -1331 
L 2906 -1331 
L 2906 525 
z
" transform="scale(0.015625)"/>
     </defs>
     <use xlink:href="#DejaVuSans-68"/>
     <use xlink:href="#DejaVuSans-79" transform="translate(63.378906 0)"/>
     <use xlink:href="#DejaVuSans-64" transform="translate(122.558594 0)"/>
     <use xlink:href="#DejaVuSans-72" transform="translate(186.035156 0)"/>
     <use xlink:href="#DejaVuSans-6f" transform="translate(224.898438 0)"/>
     <use xlink:href="#DejaVuSans-78" transform="translate(282.955078 0)"/>
     <use xlink:href="#DejaVuSans-79" transform="translate(342.134766 0)"/>
     <use xlink:href="#DejaVuSans-63" transform="translate(401.314453 0)"/>
     <use xlink:href="#DejaVuSans-68" transform="translate(456.294922 0)"/>
     <use xlink:href="#DejaVuSans-6c" transform="translate(519.673828 0)"/>
     <use xlink:href="#DejaVuSans-6f" transform="translate(547.457031 0)"/>
     <use xlink:href="#DejaVuSans-72" transform="translate(608.638672 0)"/>
     <use xlink:href="#DejaVuSans-6f" transform="translate(647.501953 0)"/>
     <use xlink:href="#DejaVuSans-71" transform="translate(708.683594 0)"/>
     <use xlink:href="#DejaVuSans-75" transform="translate(772.160156 0)"/>
     <use xlink:href="#DejaVuSans-69" transform="translate(835.539062 0)"/>
     <use xlink:href="#DejaVuSans-6e" transform="translate(863.322266 0)"/>
     <use xlink:href="#DejaVuSans-65" transform="translate(926.701172 0)"/>
    </g>
   </g>
   <g id="text_48">
    <!-- hydroxychloroquine -->
    <g style="fill: #ffffff" transform="translate(304.046404 149.785636) scale(0.18 -0.18)">
     <use xlink:href="#DejaVuSans-68"/>
     <use xlink:href="#DejaVuSans-79" transform="translate(63.378906 0)"/>
     <use xlink:href="#DejaVuSans-64" transform="translate(122.558594 0)"/>
     <use xlink:href="#DejaVuSans-72" transform="translate(186.035156 0)"/>
     <use xlink:href="#DejaVuSans-6f" transform="translate(224.898438 0)"/>
     <use xlink:href="#DejaVuSans-78" transform="translate(282.955078 0)"/>
     <use xlink:href="#DejaVuSans-79" transform="translate(342.134766 0)"/>
     <use xlink:href="#DejaVuSans-63" transform="translate(401.314453 0)"/>
     <use xlink:href="#DejaVuSans-68" transform="translate(456.294922 0)"/>
     <use xlink:href="#DejaVuSans-6c" transform="translate(519.673828 0)"/>
     <use xlink:href="#DejaVuSans-6f" transform="translate(547.457031 0)"/>
     <use xlink:href="#DejaVuSans-72" transform="translate(608.638672 0)"/>
     <use xlink:href="#DejaVuSans-6f" transform="translate(647.501953 0)"/>
     <use xlink:href="#DejaVuSans-71" transform="translate(708.683594 0)"/>
     <use xlink:href="#DejaVuSans-75" transform="translate(772.160156 0)"/>
     <use xlink:href="#DejaVuSans-69" transform="translate(835.539062 0)"/>
     <use xlink:href="#DejaVuSans-6e" transform="translate(863.322266 0)"/>
     <use xlink:href="#DejaVuSans-65" transform="translate(926.701172 0)"/>
    </g>
   </g>
   <g id="text_49">
    <!-- mycophenolate -->
    <g style="fill: #ffffff" transform="translate(99.60573 122.801565) scale(0.18 -0.18)">
     <use xlink:href="#DejaVuSans-6d"/>
     <use xlink:href="#DejaVuSans-79" transform="translate(97.412109 0)"/>
     <use xlink:href="#DejaVuSans-63" transform="translate(156.591797 0)"/>
     <use xlink:href="#DejaVuSans-6f" transform="translate(211.572266 0)"/>
     <use xlink:href="#DejaVuSans-70" transform="translate(272.753906 0)"/>
     <use xlink:href="#DejaVuSans-68" transform="translate(336.230469 0)"/>
     <use xlink:href="#DejaVuSans-65" transform="translate(399.609375 0)"/>
     <use xlink:href="#DejaVuSans-6e" transform="translate(461.132812 0)"/>
     <use xlink:href="#DejaVuSans-6f" transform="translate(524.511719 0)"/>
     <use xlink:href="#DejaVuSans-6c" transform="translate(585.693359 0)"/>
     <use xlink:href="#DejaVuSans-61" transform="translate(613.476562 0)"/>
     <use xlink:href="#DejaVuSans-74" transform="translate(674.755859 0)"/>
     <use xlink:href="#DejaVuSans-65" transform="translate(713.964844 0)"/>
    </g>
   </g>
   <g id="text_50">
    <!-- mycophenolate -->
    <g style="fill: #ffffff" transform="translate(323.193904 122.801565) scale(0.18 -0.18)">
     <use xlink:href="#DejaVuSans-6d"/>
     <use xlink:href="#DejaVuSans-79" transform="translate(97.412109 0)"/>
     <use xlink:href="#DejaVuSans-63" transform="translate(156.591797 0)"/>
     <use xlink:href="#DejaVuSans-6f" transform="translate(211.572266 0)"/>
     <use xlink:href="#DejaVuSans-70" transform="translate(272.753906 0)"/>
     <use xlink:href="#DejaVuSans-68" transform="translate(336.230469 0)"/>
     <use xlink:href="#DejaVuSans-65" transform="translate(399.609375 0)"/>
     <use xlink:href="#DejaVuSans-6e" transform="translate(461.132812 0)"/>
     <use xlink:href="#DejaVuSans-6f" transform="translate(524.511719 0)"/>
     <use xlink:href="#DejaVuSans-6c" transform="translate(585.693359 0)"/>
     <use xlink:href="#DejaVuSans-61" transform="translate(613.476562 0)"/>
     <use xlink:href="#DejaVuSans-74" transform="translate(674.755859 0)"/>
     <use xlink:href="#DejaVuSans-65" transform="translate(713.964844 0)"/>
    </g>
   </g>
   <g id="text_51">
    <!-- hydroxyzine -->
    <g style="fill: #ffffff" transform="translate(107.558073 95.747182) scale(0.18 -0.18)">
     <defs>
      <path id="DejaVuSans-Bold-7a" d="M 366 3500 
L 3419 3500 
L 3419 2719 
L 1575 800 
L 3419 800 
L 3419 0 
L 288 0 
L 288 781 
L 2131 2700 
L 366 2700 
L 366 3500 
z
" transform="scale(0.015625)"/>
     </defs>
     <use xlink:href="#DejaVuSans-Bold-68"/>
     <use xlink:href="#DejaVuSans-Bold-79" transform="translate(71.191406 0)"/>
     <use xlink:href="#DejaVuSans-Bold-64" transform="translate(136.376953 0)"/>
     <use xlink:href="#DejaVuSans-Bold-72" transform="translate(207.958984 0)"/>
     <use xlink:href="#DejaVuSans-Bold-6f" transform="translate(257.275391 0)"/>
     <use xlink:href="#DejaVuSans-Bold-78" transform="translate(325.976562 0)"/>
     <use xlink:href="#DejaVuSans-Bold-79" transform="translate(390.478516 0)"/>
     <use xlink:href="#DejaVuSans-Bold-7a" transform="translate(455.664062 0)"/>
     <use xlink:href="#DejaVuSans-Bold-69" transform="translate(513.867188 0)"/>
     <use xlink:href="#DejaVuSans-Bold-6e" transform="translate(548.144531 0)"/>
     <use xlink:href="#DejaVuSans-Bold-65" transform="translate(619.335938 0)"/>
    </g>
   </g>
   <g id="text_52">
    <!-- lorazepam* -->
    <g style="fill: #ffffff" transform="translate(111.678386 68.833424) scale(0.18 -0.18)">
     <defs>
      <path id="DejaVuSans-Bold-2a" d="M 3219 3803 
L 2188 3263 
L 3219 2719 
L 2981 2278 
L 1941 2853 
L 1941 1778 
L 1409 1778 
L 1409 2853 
L 366 2278 
L 128 2719 
L 1172 3263 
L 128 3803 
L 366 4244 
L 1409 3675 
L 1409 4750 
L 1941 4750 
L 1941 3675 
L 2981 4244 
L 3219 3803 
z
" transform="scale(0.015625)"/>
     </defs>
     <use xlink:href="#DejaVuSans-Bold-6c"/>
     <use xlink:href="#DejaVuSans-Bold-6f" transform="translate(34.277344 0)"/>
     <use xlink:href="#DejaVuSans-Bold-72" transform="translate(102.978516 0)"/>
     <use xlink:href="#DejaVuSans-Bold-61" transform="translate(152.294922 0)"/>
     <use xlink:href="#DejaVuSans-Bold-7a" transform="translate(219.775391 0)"/>
     <use xlink:href="#DejaVuSans-Bold-65" transform="translate(277.978516 0)"/>
     <use xlink:href="#DejaVuSans-Bold-70" transform="translate(345.800781 0)"/>
     <use xlink:href="#DejaVuSans-Bold-61" transform="translate(417.382812 0)"/>
     <use xlink:href="#DejaVuSans-Bold-6d" transform="translate(484.863281 0)"/>
     <use xlink:href="#DejaVuSans-Bold-2a" transform="translate(589.0625 0)"/>
    </g>
   </g>
   <g id="line2d_8">
    <path d="M 504.784397 614.341593 
L 516.429614 614.341593 
L 516.429614 107.041062 
L 504.784397 107.041062 
" clip-path="url(#p51029a4f74)" style="fill: none; stroke: #9aa5b1; stroke-width: 1.6; stroke-linecap: square"/>
   </g>
   <g id="line2d_9">
    <path d="M 504.784397 101.644248 
L 516.429614 101.644248 
L 516.429614 53.07292 
L 504.784397 53.07292 
" clip-path="url(#p51029a4f74)" style="fill: none; stroke: #c58a1a; stroke-width: 1.6; stroke-linecap: square"/>
   </g>
  </g>
 </g>
 <defs>
  <clipPath id="p51029a4f74">
   <rect x="48.291875" y="7.2" width="535.68" height="609.84"/>
  </clipPath>
 </defs>
</svg>
