<?xml version="1.0" encoding="utf-8" standalone="no"?>
<!DOCTYPE svg PUBLIC "-//W3C//DTD SVG 1.1//EN"
  "http://www.w3.org/Graphics/SVG/1.1/DTD/svg11.dtd">
<svg xmlns:xlink="http://www.w3.org/1999/xlink" width="676.8pt" height="194.4pt" viewBox="0 0 676.8 194.4" xmlns="http://www.w3.org/2000/svg" version="1.1">
 <metadata>
  <rdf:RDF xmlns:dc="http://purl.org/dc/elements/1.1/" xmlns:cc="http://creativecommons.org/ns#" xmlns:rdf="http://www.w3.org/1999/02/22-rdf-syntax-ns#">
   <cc:Work>
    <dc:type rdf:resource="http://purl.org/dc/dcmitype/StillImage"/>
    <dc:date>2026-06-22T03:37:27.112472</dc:date>
    <dc:format>image/svg+xml</dc:format>
    <dc:creator>
     <cc:Agent>
      <dc:title>Matplotlib v3.10.8, https://matplotlib.org/</dc:title>
     </cc:Agent>
    </dc:creator>
   </cc:Work>
  </rdf:RDF>
 </metadata>
 <defs>
  <style type="text/css">*{stroke-linejoin: round; stroke-linecap: butt}</style>
 </defs>
 <g id="figure_1">
  <g id="patch_1">
   <path d="M -0 194.4 
L 676.8 194.4 
L 676.8 0 
L -0 0 
z
" style="fill: #ffffff"/>
  </g>
  <g id="axes_1">
   <g id="patch_2">
    <path d="M 37.008 133.2 
L 153.9216 133.2 
Q 170.4816 133.2 170.4816 128.7 
L 170.4816 36.9 
Q 170.4816 32.4 153.9216 32.4 
L 37.008 32.4 
Q 20.448 32.4 20.448 36.9 
L 20.448 128.7 
Q 20.448 133.2 37.008 133.2 
z
" clip-path="url(#pc6dbfaa8f4)" style="fill: #f4f2ec"/>
   </g>
   <g id="patch_3">
    <path d="M 198.9648 133.2 
L 315.8784 133.2 
Q 332.4384 133.2 332.4384 128.7 
L 332.4384 36.9 
Q 332.4384 32.4 315.8784 32.4 
L 198.9648 32.4 
Q 182.4048 32.4 182.4048 36.9 
L 182.4048 128.7 
Q 182.4048 133.2 198.9648 133.2 
z
" clip-path="url(#pc6dbfaa8f4)" style="fill: #f4f2ec"/>
   </g>
   <g id="patch_4">
    <path d="M 360.9216 133.2 
L 477.8352 133.2 
Q 494.3952 133.2 494.3952 128.7 
L 494.3952 36.9 
Q 494.3952 32.4 477.8352 32.4 
L 360.9216 32.4 
Q 344.3616 32.4 344.3616 36.9 
L 344.3616 128.7 
Q 344.3616 133.2 360.9216 133.2 
z
" clip-path="url(#pc6dbfaa8f4)" style="fill: #f4f2ec"/>
   </g>
   <g id="patch_5">
    <path d="M 522.8784 133.2 
L 639.792 133.2 
Q 656.352 133.2 656.352 128.7 
L 656.352 36.9 
Q 656.352 32.4 639.792 32.4 
L 522.8784 32.4 
Q 506.3184 32.4 506.3184 36.9 
L 506.3184 128.7 
Q 506.3184 133.2 522.8784 133.2 
z
" clip-path="url(#pc6dbfaa8f4)" style="fill: #f4f2ec"/>
   </g>
   <g id="patch_6">
    <path d="M 20.448 40.5 
L 170.4816 40.5 
L 170.4816 32.4 
L 20.448 32.4 
z
" clip-path="url(#pc6dbfaa8f4)" style="fill: #5b6b7b"/>
   </g>
   <g id="patch_7">
    <path d="M 182.4048 40.5 
L 332.4384 40.5 
L 332.4384 32.4 
L 182.4048 32.4 
z
" clip-path="url(#pc6dbfaa8f4)" style="fill: #4f9d69"/>
   </g>
   <g id="patch_8">
    <path d="M 344.3616 40.5 
L 494.3952 40.5 
L 494.3952 32.4 
L 344.3616 32.4 
z
" clip-path="url(#pc6dbfaa8f4)" style="fill: #1f6f7a"/>
   </g>
   <g id="patch_9">
    <path d="M 506.3184 40.5 
L 656.352 40.5 
L 656.352 32.4 
L 506.3184 32.4 
z
" clip-path="url(#pc6dbfaa8f4)" style="fill: #c8553d"/>
   </g>
   <g id="text_1">
    <!-- Extracted by AI -->
    <g style="fill: #5b6b7b" transform="translate(49.42605 66.31125) scale(0.12 -0.12)">
     <defs>
      <path id="DejaVuSans-45" d="M 628 4666 
L 3578 4666 
L 3578 4134 
L 1259 4134 
L 1259 2753 
L 3481 2753 
L 3481 2222 
L 1259 2222 
L 1259 531 
L 3634 531 
L 3634 0 
L 628 0 
L 628 4666 
z
" transform="scale(0.015625)"/>
      <path id="DejaVuSans-78" d="M 3513 3500 
L 2247 1797 
L 3578 0 
L 2900 0 
L 1881 1375 
L 863 0 
L 184 0 
L 1544 1831 
L 300 3500 
L 978 3500 
L 1906 2253 
L 2834 3500 
L 3513 3500 
z
" transform="scale(0.015625)"/>
      <path id="DejaVuSans-74" d="M 1172 4494 
L 1172 3500 
L 2356 3500 
L 2356 3053 
L 1172 3053 
L 1172 1153 
Q 1172 725 1289 603 
Q 1406 481 1766 481 
L 2356 481 
L 2356 0 
L 1766 0 
Q 1100 0 847 248 
Q 594 497 594 1153 
L 594 3053 
L 172 3053 
L 172 3500 
L 594 3500 
L 594 4494 
L 1172 4494 
z
" transform="scale(0.015625)"/>
      <path id="DejaVuSans-72" d="M 2631 2963 
Q 2534 3019 2420 3045 
Q 2306 3072 2169 3072 
Q 1681 3072 1420 2755 
Q 1159 2438 1159 1844 
L 1159 0 
L 581 0 
L 581 3500 
L 1159 3500 
L 1159 2956 
Q 1341 3275 1631 3429 
Q 1922 3584 2338 3584 
Q 2397 3584 2469 3576 
Q 2541 3569 2628 3553 
L 2631 2963 
z
" transform="scale(0.015625)"/>
      <path id="DejaVuSans-61" d="M 2194 1759 
Q 1497 1759 1228 1600 
Q 959 1441 959 1056 
Q 959 750 1161 570 
Q 1363 391 1709 391 
Q 2188 391 2477 730 
Q 2766 1069 2766 1631 
L 2766 1759 
L 2194 1759 
z
M 3341 1997 
L 3341 0 
L 2766 0 
L 2766 531 
Q 2569 213 2275 61 
Q 1981 -91 1556 -91 
Q 1019 -91 701 211 
Q 384 513 384 1019 
Q 384 1609 779 1909 
Q 1175 2209 1959 2209 
L 2766 2209 
L 2766 2266 
Q 2766 2663 2505 2880 
Q 2244 3097 1772 3097 
Q 1472 3097 1187 3025 
Q 903 2953 641 2809 
L 641 3341 
Q 956 3463 1253 3523 
Q 1550 3584 1831 3584 
Q 2591 3584 2966 3190 
Q 3341 2797 3341 1997 
z
" transform="scale(0.015625)"/>
      <path id="DejaVuSans-63" d="M 3122 3366 
L 3122 2828 
Q 2878 2963 2633 3030 
Q 2388 3097 2138 3097 
Q 1578 3097 1268 2742 
Q 959 2388 959 1747 
Q 959 1106 1268 751 
Q 1578 397 2138 397 
Q 2388 397 2633 464 
Q 2878 531 3122 666 
L 3122 134 
Q 2881 22 2623 -34 
Q 2366 -91 2075 -91 
Q 1284 -91 818 406 
Q 353 903 353 1747 
Q 353 2603 823 3093 
Q 1294 3584 2113 3584 
Q 2378 3584 2631 3529 
Q 2884 3475 3122 3366 
z
" transform="scale(0.015625)"/>
      <path id="DejaVuSans-65" d="M 3597 1894 
L 3597 1613 
L 953 1613 
Q 991 1019 1311 708 
Q 1631 397 2203 397 
Q 2534 397 2845 478 
Q 3156 559 3463 722 
L 3463 178 
Q 3153 47 2828 -22 
Q 2503 -91 2169 -91 
Q 1331 -91 842 396 
Q 353 884 353 1716 
Q 353 2575 817 3079 
Q 1281 3584 2069 3584 
Q 2775 3584 3186 3129 
Q 3597 2675 3597 1894 
z
M 3022 2063 
Q 3016 2534 2758 2815 
Q 2500 3097 2075 3097 
Q 1594 3097 1305 2825 
Q 1016 2553 972 2059 
L 3022 2063 
z
" transform="scale(0.015625)"/>
      <path id="DejaVuSans-64" d="M 2906 2969 
L 2906 4863 
L 3481 4863 
L 3481 0 
L 2906 0 
L 2906 525 
Q 2725 213 2448 61 
Q 2172 -91 1784 -91 
Q 1150 -91 751 415 
Q 353 922 353 1747 
Q 353 2572 751 3078 
Q 1150 3584 1784 3584 
Q 2172 3584 2448 3432 
Q 2725 3281 2906 2969 
z
M 947 1747 
Q 947 1113 1208 752 
Q 1469 391 1925 391 
Q 2381 391 2643 752 
Q 2906 1113 2906 1747 
Q 2906 2381 2643 2742 
Q 2381 3103 1925 3103 
Q 1469 3103 1208 2742 
Q 947 2381 947 1747 
z
" transform="scale(0.015625)"/>
      <path id="DejaVuSans-20" transform="scale(0.015625)"/>
      <path id="DejaVuSans-62" d="M 3116 1747 
Q 3116 2381 2855 2742 
Q 2594 3103 2138 3103 
Q 1681 3103 1420 2742 
Q 1159 2381 1159 1747 
Q 1159 1113 1420 752 
Q 1681 391 2138 391 
Q 2594 391 2855 752 
Q 3116 1113 3116 1747 
z
M 1159 2969 
Q 1341 3281 1617 3432 
Q 1894 3584 2278 3584 
Q 2916 3584 3314 3078 
Q 3713 2572 3713 1747 
Q 3713 922 3314 415 
Q 2916 -91 2278 -91 
Q 1894 -91 1617 61 
Q 1341 213 1159 525 
L 1159 0 
L 581 0 
L 581 4863 
L 1159 4863 
L 1159 2969 
z
" transform="scale(0.015625)"/>
      <path id="DejaVuSans-79" d="M 2059 -325 
Q 1816 -950 1584 -1140 
Q 1353 -1331 966 -1331 
L 506 -1331 
L 506 -850 
L 844 -850 
Q 1081 -850 1212 -737 
Q 1344 -625 1503 -206 
L 1606 56 
L 191 3500 
L 800 3500 
L 1894 763 
L 2988 3500 
L 3597 3500 
L 2059 -325 
z
" transform="scale(0.015625)"/>
      <path id="DejaVuSans-41" d="M 2188 4044 
L 1331 1722 
L 3047 1722 
L 2188 4044 
z
M 1831 4666 
L 2547 4666 
L 4325 0 
L 3669 0 
L 3244 1197 
L 1141 1197 
L 716 0 
L 50 0 
L 1831 4666 
z
" transform="scale(0.015625)"/>
      <path id="DejaVuSans-49" d="M 628 4666 
L 1259 4666 
L 1259 0 
L 628 0 
L 628 4666 
z
" transform="scale(0.015625)"/>
     </defs>
     <use xlink:href="#DejaVuSans-45"/>
     <use xlink:href="#DejaVuSans-78" transform="translate(63.183594 0)"/>
     <use xlink:href="#DejaVuSans-74" transform="translate(122.363281 0)"/>
     <use xlink:href="#DejaVuSans-72" transform="translate(161.572266 0)"/>
     <use xlink:href="#DejaVuSans-61" transform="translate(202.685547 0)"/>
     <use xlink:href="#DejaVuSans-63" transform="translate(263.964844 0)"/>
     <use xlink:href="#DejaVuSans-74" transform="translate(318.945312 0)"/>
     <use xlink:href="#DejaVuSans-65" transform="translate(358.154297 0)"/>
     <use xlink:href="#DejaVuSans-64" transform="translate(419.677734 0)"/>
     <use xlink:href="#DejaVuSans-20" transform="translate(483.154297 0)"/>
     <use xlink:href="#DejaVuSans-62" transform="translate(514.941406 0)"/>
     <use xlink:href="#DejaVuSans-79" transform="translate(578.417969 0)"/>
     <use xlink:href="#DejaVuSans-20" transform="translate(637.597656 0)"/>
     <use xlink:href="#DejaVuSans-41" transform="translate(669.384766 0)"/>
     <use xlink:href="#DejaVuSans-49" transform="translate(737.792969 0)"/>
    </g>
   </g>
   <g id="text_2">
    <!-- 21 -->
    <g style="fill: #5b6b7b" transform="translate(74.591362 112.678125) scale(0.3 -0.3)">
     <defs>
      <path id="DejaVuSans-Bold-32" d="M 1844 884 
L 3897 884 
L 3897 0 
L 506 0 
L 506 884 
L 2209 2388 
Q 2438 2594 2547 2791 
Q 2656 2988 2656 3200 
Q 2656 3528 2436 3728 
Q 2216 3928 1850 3928 
Q 1569 3928 1234 3808 
Q 900 3688 519 3450 
L 519 4475 
Q 925 4609 1322 4679 
Q 1719 4750 2100 4750 
Q 2938 4750 3402 4381 
Q 3866 4013 3866 3353 
Q 3866 2972 3669 2642 
Q 3472 2313 2841 1759 
L 1844 884 
z
" transform="scale(0.015625)"/>
      <path id="DejaVuSans-Bold-31" d="M 750 831 
L 1813 831 
L 1813 3847 
L 722 3622 
L 722 4441 
L 1806 4666 
L 2950 4666 
L 2950 831 
L 4013 831 
L 4013 0 
L 750 0 
L 750 831 
z
" transform="scale(0.015625)"/>
     </defs>
     <use xlink:href="#DejaVuSans-Bold-32"/>
     <use xlink:href="#DejaVuSans-Bold-31" transform="translate(69.580078 0)"/>
    </g>
   </g>
   <g id="text_3">
    <!-- Shared (AI + human) -->
    <g style="fill: #5b6b7b" transform="translate(194.067225 66.31125) scale(0.12 -0.12)">
     <defs>
      <path id="DejaVuSans-53" d="M 3425 4513 
L 3425 3897 
Q 3066 4069 2747 4153 
Q 2428 4238 2131 4238 
Q 1616 4238 1336 4038 
Q 1056 3838 1056 3469 
Q 1056 3159 1242 3001 
Q 1428 2844 1947 2747 
L 2328 2669 
Q 3034 2534 3370 2195 
Q 3706 1856 3706 1288 
Q 3706 609 3251 259 
Q 2797 -91 1919 -91 
Q 1588 -91 1214 -16 
Q 841 59 441 206 
L 441 856 
Q 825 641 1194 531 
Q 1563 422 1919 422 
Q 2459 422 2753 634 
Q 3047 847 3047 1241 
Q 3047 1584 2836 1778 
Q 2625 1972 2144 2069 
L 1759 2144 
Q 1053 2284 737 2584 
Q 422 2884 422 3419 
Q 422 4038 858 4394 
Q 1294 4750 2059 4750 
Q 2388 4750 2728 4690 
Q 3069 4631 3425 4513 
z
" transform="scale(0.015625)"/>
      <path id="DejaVuSans-68" d="M 3513 2113 
L 3513 0 
L 2938 0 
L 2938 2094 
Q 2938 2591 2744 2837 
Q 2550 3084 2163 3084 
Q 1697 3084 1428 2787 
Q 1159 2491 1159 1978 
L 1159 0 
L 581 0 
L 581 4863 
L 1159 4863 
L 1159 2956 
Q 1366 3272 1645 3428 
Q 1925 3584 2291 3584 
Q 2894 3584 3203 3211 
Q 3513 2838 3513 2113 
z
" transform="scale(0.015625)"/>
      <path id="DejaVuSans-28" d="M 1984 4856 
Q 1566 4138 1362 3434 
Q 1159 2731 1159 2009 
Q 1159 1288 1364 580 
Q 1569 -128 1984 -844 
L 1484 -844 
Q 1016 -109 783 600 
Q 550 1309 550 2009 
Q 550 2706 781 3412 
Q 1013 4119 1484 4856 
L 1984 4856 
z
" transform="scale(0.015625)"/>
      <path id="DejaVuSans-2b" d="M 2944 4013 
L 2944 2272 
L 4684 2272 
L 4684 1741 
L 2944 1741 
L 2944 0 
L 2419 0 
L 2419 1741 
L 678 1741 
L 678 2272 
L 2419 2272 
L 2419 4013 
L 2944 4013 
z
" transform="scale(0.015625)"/>
      <path id="DejaVuSans-75" d="M 544 1381 
L 544 3500 
L 1119 3500 
L 1119 1403 
Q 1119 906 1312 657 
Q 1506 409 1894 409 
Q 2359 409 2629 706 
Q 2900 1003 2900 1516 
L 2900 3500 
L 3475 3500 
L 3475 0 
L 2900 0 
L 2900 538 
Q 2691 219 2414 64 
Q 2138 -91 1772 -91 
Q 1169 -91 856 284 
Q 544 659 544 1381 
z
M 1991 3584 
L 1991 3584 
z
" transform="scale(0.015625)"/>
      <path id="DejaVuSans-6d" d="M 3328 2828 
Q 3544 3216 3844 3400 
Q 4144 3584 4550 3584 
Q 5097 3584 5394 3201 
Q 5691 2819 5691 2113 
L 5691 0 
L 5113 0 
L 5113 2094 
Q 5113 2597 4934 2840 
Q 4756 3084 4391 3084 
Q 3944 3084 3684 2787 
Q 3425 2491 3425 1978 
L 3425 0 
L 2847 0 
L 2847 2094 
Q 2847 2600 2669 2842 
Q 2491 3084 2119 3084 
Q 1678 3084 1418 2786 
Q 1159 2488 1159 1978 
L 1159 0 
L 581 0 
L 581 3500 
L 1159 3500 
L 1159 2956 
Q 1356 3278 1631 3431 
Q 1906 3584 2284 3584 
Q 2666 3584 2933 3390 
Q 3200 3197 3328 2828 
z
" transform="scale(0.015625)"/>
      <path id="DejaVuSans-6e" d="M 3513 2113 
L 3513 0 
L 2938 0 
L 2938 2094 
Q 2938 2591 2744 2837 
Q 2550 3084 2163 3084 
Q 1697 3084 1428 2787 
Q 1159 2491 1159 1978 
L 1159 0 
L 581 0 
L 581 3500 
L 1159 3500 
L 1159 2956 
Q 1366 3272 1645 3428 
Q 1925 3584 2291 3584 
Q 2894 3584 3203 3211 
Q 3513 2838 3513 2113 
z
" transform="scale(0.015625)"/>
      <path id="DejaVuSans-29" d="M 513 4856 
L 1013 4856 
Q 1481 4119 1714 3412 
Q 1947 2706 1947 2009 
Q 1947 1309 1714 600 
Q 1481 -109 1013 -844 
L 513 -844 
Q 928 -128 1133 580 
Q 1338 1288 1338 2009 
Q 1338 2731 1133 3434 
Q 928 4138 513 4856 
z
" transform="scale(0.015625)"/>
     </defs>
     <use xlink:href="#DejaVuSans-53"/>
     <use xlink:href="#DejaVuSans-68" transform="translate(63.476562 0)"/>
     <use xlink:href="#DejaVuSans-61" transform="translate(126.855469 0)"/>
     <use xlink:href="#DejaVuSans-72" transform="translate(188.134766 0)"/>
     <use xlink:href="#DejaVuSans-65" transform="translate(226.998047 0)"/>
     <use xlink:href="#DejaVuSans-64" transform="translate(288.521484 0)"/>
     <use xlink:href="#DejaVuSans-20" transform="translate(351.998047 0)"/>
     <use xlink:href="#DejaVuSans-28" transform="translate(383.785156 0)"/>
     <use xlink:href="#DejaVuSans-41" transform="translate(422.798828 0)"/>
     <use xlink:href="#DejaVuSans-49" transform="translate(491.207031 0)"/>
     <use xlink:href="#DejaVuSans-20" transform="translate(520.699219 0)"/>
     <use xlink:href="#DejaVuSans-2b" transform="translate(552.486328 0)"/>
     <use xlink:href="#DejaVuSans-20" transform="translate(636.275391 0)"/>
     <use xlink:href="#DejaVuSans-68" transform="translate(668.0625 0)"/>
     <use xlink:href="#DejaVuSans-75" transform="translate(731.441406 0)"/>
     <use xlink:href="#DejaVuSans-6d" transform="translate(794.820312 0)"/>
     <use xlink:href="#DejaVuSans-61" transform="translate(892.232422 0)"/>
     <use xlink:href="#DejaVuSans-6e" transform="translate(953.511719 0)"/>
     <use xlink:href="#DejaVuSans-29" transform="translate(1016.890625 0)"/>
    </g>
   </g>
   <g id="text_4">
    <!-- 19 -->
    <g style="fill: #4f9d69" transform="translate(236.548162 101.878125) scale(0.3 -0.3)">
     <defs>
      <path id="DejaVuSans-Bold-39" d="M 641 103 
L 641 966 
Q 928 831 1190 764 
Q 1453 697 1709 697 
Q 2247 697 2547 995 
Q 2847 1294 2900 1881 
Q 2688 1725 2447 1647 
Q 2206 1569 1925 1569 
Q 1209 1569 770 1986 
Q 331 2403 331 3084 
Q 331 3838 820 4291 
Q 1309 4744 2131 4744 
Q 3044 4744 3544 4128 
Q 4044 3513 4044 2388 
Q 4044 1231 3459 570 
Q 2875 -91 1856 -91 
Q 1528 -91 1228 -42 
Q 928 6 641 103 
z
M 2125 2350 
Q 2441 2350 2600 2554 
Q 2759 2759 2759 3169 
Q 2759 3575 2600 3781 
Q 2441 3988 2125 3988 
Q 1809 3988 1650 3781 
Q 1491 3575 1491 3169 
Q 1491 2759 1650 2554 
Q 1809 2350 2125 2350 
z
" transform="scale(0.015625)"/>
     </defs>
     <use xlink:href="#DejaVuSans-Bold-31"/>
     <use xlink:href="#DejaVuSans-Bold-39" transform="translate(69.580078 0)"/>
    </g>
   </g>
   <g id="text_5">
    <!-- 90.5% -->
    <g style="fill: #4f9d69" transform="translate(233.137069 123.563125) scale(0.14 -0.14)">
     <defs>
      <path id="DejaVuSans-Bold-30" d="M 2944 2338 
Q 2944 3213 2780 3570 
Q 2616 3928 2228 3928 
Q 1841 3928 1675 3570 
Q 1509 3213 1509 2338 
Q 1509 1453 1675 1090 
Q 1841 728 2228 728 
Q 2613 728 2778 1090 
Q 2944 1453 2944 2338 
z
M 4147 2328 
Q 4147 1169 3647 539 
Q 3147 -91 2228 -91 
Q 1306 -91 806 539 
Q 306 1169 306 2328 
Q 306 3491 806 4120 
Q 1306 4750 2228 4750 
Q 3147 4750 3647 4120 
Q 4147 3491 4147 2328 
z
" transform="scale(0.015625)"/>
      <path id="DejaVuSans-Bold-2e" d="M 653 1209 
L 1778 1209 
L 1778 0 
L 653 0 
L 653 1209 
z
" transform="scale(0.015625)"/>
      <path id="DejaVuSans-Bold-35" d="M 678 4666 
L 3669 4666 
L 3669 3781 
L 1638 3781 
L 1638 3059 
Q 1775 3097 1914 3117 
Q 2053 3138 2203 3138 
Q 3056 3138 3531 2711 
Q 4006 2284 4006 1522 
Q 4006 766 3489 337 
Q 2972 -91 2053 -91 
Q 1656 -91 1267 -14 
Q 878 63 494 219 
L 494 1166 
Q 875 947 1217 837 
Q 1559 728 1863 728 
Q 2300 728 2551 942 
Q 2803 1156 2803 1522 
Q 2803 1891 2551 2103 
Q 2300 2316 1863 2316 
Q 1603 2316 1309 2248 
Q 1016 2181 678 2041 
L 678 4666 
z
" transform="scale(0.015625)"/>
      <path id="DejaVuSans-Bold-25" d="M 4959 1925 
Q 4738 1925 4616 1733 
Q 4494 1541 4494 1184 
Q 4494 825 4614 633 
Q 4734 441 4959 441 
Q 5184 441 5303 633 
Q 5422 825 5422 1184 
Q 5422 1541 5301 1733 
Q 5181 1925 4959 1925 
z
M 4959 2450 
Q 5541 2450 5875 2112 
Q 6209 1775 6209 1184 
Q 6209 594 5875 251 
Q 5541 -91 4959 -91 
Q 4378 -91 4042 251 
Q 3706 594 3706 1184 
Q 3706 1772 4042 2111 
Q 4378 2450 4959 2450 
z
M 2094 -91 
L 1403 -91 
L 4319 4750 
L 5013 4750 
L 2094 -91 
z
M 1453 4750 
Q 2034 4750 2367 4411 
Q 2700 4072 2700 3481 
Q 2700 2891 2367 2550 
Q 2034 2209 1453 2209 
Q 872 2209 539 2550 
Q 206 2891 206 3481 
Q 206 4072 539 4411 
Q 872 4750 1453 4750 
z
M 1453 4225 
Q 1228 4225 1106 4031 
Q 984 3838 984 3481 
Q 984 3122 1106 2926 
Q 1228 2731 1453 2731 
Q 1678 2731 1798 2926 
Q 1919 3122 1919 3481 
Q 1919 3838 1797 4031 
Q 1675 4225 1453 4225 
z
" transform="scale(0.015625)"/>
     </defs>
     <use xlink:href="#DejaVuSans-Bold-39"/>
     <use xlink:href="#DejaVuSans-Bold-30" transform="translate(69.580078 0)"/>
     <use xlink:href="#DejaVuSans-Bold-2e" transform="translate(139.160156 0)"/>
     <use xlink:href="#DejaVuSans-Bold-35" transform="translate(177.148438 0)"/>
     <use xlink:href="#DejaVuSans-Bold-25" transform="translate(246.728516 0)"/>
    </g>
   </g>
   <g id="text_6">
    <!-- Human-only missed -->
    <g style="fill: #5b6b7b" transform="translate(359.600587 66.31125) scale(0.12 -0.12)">
     <defs>
      <path id="DejaVuSans-48" d="M 628 4666 
L 1259 4666 
L 1259 2753 
L 3553 2753 
L 3553 4666 
L 4184 4666 
L 4184 0 
L 3553 0 
L 3553 2222 
L 1259 2222 
L 1259 0 
L 628 0 
L 628 4666 
z
" transform="scale(0.015625)"/>
      <path id="DejaVuSans-2d" d="M 313 2009 
L 1997 2009 
L 1997 1497 
L 313 1497 
L 313 2009 
z
" transform="scale(0.015625)"/>
      <path id="DejaVuSans-6f" d="M 1959 3097 
Q 1497 3097 1228 2736 
Q 959 2375 959 1747 
Q 959 1119 1226 758 
Q 1494 397 1959 397 
Q 2419 397 2687 759 
Q 2956 1122 2956 1747 
Q 2956 2369 2687 2733 
Q 2419 3097 1959 3097 
z
M 1959 3584 
Q 2709 3584 3137 3096 
Q 3566 2609 3566 1747 
Q 3566 888 3137 398 
Q 2709 -91 1959 -91 
Q 1206 -91 779 398 
Q 353 888 353 1747 
Q 353 2609 779 3096 
Q 1206 3584 1959 3584 
z
" transform="scale(0.015625)"/>
      <path id="DejaVuSans-6c" d="M 603 4863 
L 1178 4863 
L 1178 0 
L 603 0 
L 603 4863 
z
" transform="scale(0.015625)"/>
      <path id="DejaVuSans-69" d="M 603 3500 
L 1178 3500 
L 1178 0 
L 603 0 
L 603 3500 
z
M 603 4863 
L 1178 4863 
L 1178 4134 
L 603 4134 
L 603 4863 
z
" transform="scale(0.015625)"/>
      <path id="DejaVuSans-73" d="M 2834 3397 
L 2834 2853 
Q 2591 2978 2328 3040 
Q 2066 3103 1784 3103 
Q 1356 3103 1142 2972 
Q 928 2841 928 2578 
Q 928 2378 1081 2264 
Q 1234 2150 1697 2047 
L 1894 2003 
Q 2506 1872 2764 1633 
Q 3022 1394 3022 966 
Q 3022 478 2636 193 
Q 2250 -91 1575 -91 
Q 1294 -91 989 -36 
Q 684 19 347 128 
L 347 722 
Q 666 556 975 473 
Q 1284 391 1588 391 
Q 1994 391 2212 530 
Q 2431 669 2431 922 
Q 2431 1156 2273 1281 
Q 2116 1406 1581 1522 
L 1381 1569 
Q 847 1681 609 1914 
Q 372 2147 372 2553 
Q 372 3047 722 3315 
Q 1072 3584 1716 3584 
Q 2034 3584 2315 3537 
Q 2597 3491 2834 3397 
z
" transform="scale(0.015625)"/>
     </defs>
     <use xlink:href="#DejaVuSans-48"/>
     <use xlink:href="#DejaVuSans-75" transform="translate(75.195312 0)"/>
     <use xlink:href="#DejaVuSans-6d" transform="translate(138.574219 0)"/>
     <use xlink:href="#DejaVuSans-61" transform="translate(235.986328 0)"/>
     <use xlink:href="#DejaVuSans-6e" transform="translate(297.265625 0)"/>
     <use xlink:href="#DejaVuSans-2d" transform="translate(360.644531 0)"/>
     <use xlink:href="#DejaVuSans-6f" transform="translate(398.603516 0)"/>
     <use xlink:href="#DejaVuSans-6e" transform="translate(459.785156 0)"/>
     <use xlink:href="#DejaVuSans-6c" transform="translate(523.164062 0)"/>
     <use xlink:href="#DejaVuSans-79" transform="translate(550.947266 0)"/>
     <use xlink:href="#DejaVuSans-20" transform="translate(610.126953 0)"/>
     <use xlink:href="#DejaVuSans-6d" transform="translate(641.914062 0)"/>
     <use xlink:href="#DejaVuSans-69" transform="translate(739.326172 0)"/>
     <use xlink:href="#DejaVuSans-73" transform="translate(767.109375 0)"/>
     <use xlink:href="#DejaVuSans-73" transform="translate(819.208984 0)"/>
     <use xlink:href="#DejaVuSans-65" transform="translate(871.308594 0)"/>
     <use xlink:href="#DejaVuSans-64" transform="translate(932.832031 0)"/>
    </g>
   </g>
   <g id="text_7">
    <!-- 0 -->
    <g style="fill: #1f6f7a" transform="translate(408.941681 112.678125) scale(0.3 -0.3)">
     <use xlink:href="#DejaVuSans-Bold-30"/>
    </g>
   </g>
   <g id="text_8">
    <!-- AI-only captured -->
    <g style="fill: #5b6b7b" transform="translate(531.8127 66.31125) scale(0.12 -0.12)">
     <defs>
      <path id="DejaVuSans-70" d="M 1159 525 
L 1159 -1331 
L 581 -1331 
L 581 3500 
L 1159 3500 
L 1159 2969 
Q 1341 3281 1617 3432 
Q 1894 3584 2278 3584 
Q 2916 3584 3314 3078 
Q 3713 2572 3713 1747 
Q 3713 922 3314 415 
Q 2916 -91 2278 -91 
Q 1894 -91 1617 61 
Q 1341 213 1159 525 
z
M 3116 1747 
Q 3116 2381 2855 2742 
Q 2594 3103 2138 3103 
Q 1681 3103 1420 2742 
Q 1159 2381 1159 1747 
Q 1159 1113 1420 752 
Q 1681 391 2138 391 
Q 2594 391 2855 752 
Q 3116 1113 3116 1747 
z
" transform="scale(0.015625)"/>
     </defs>
     <use xlink:href="#DejaVuSans-41"/>
     <use xlink:href="#DejaVuSans-49" transform="translate(68.408203 0)"/>
     <use xlink:href="#DejaVuSans-2d" transform="translate(97.900391 0)"/>
     <use xlink:href="#DejaVuSans-6f" transform="translate(135.859375 0)"/>
     <use xlink:href="#DejaVuSans-6e" transform="translate(197.041016 0)"/>
     <use xlink:href="#DejaVuSans-6c" transform="translate(260.419922 0)"/>
     <use xlink:href="#DejaVuSans-79" transform="translate(288.203125 0)"/>
     <use xlink:href="#DejaVuSans-20" transform="translate(347.382812 0)"/>
     <use xlink:href="#DejaVuSans-63" transform="translate(379.169922 0)"/>
     <use xlink:href="#DejaVuSans-61" transform="translate(434.150391 0)"/>
     <use xlink:href="#DejaVuSans-70" transform="translate(495.429688 0)"/>
     <use xlink:href="#DejaVuSans-74" transform="translate(558.90625 0)"/>
     <use xlink:href="#DejaVuSans-75" transform="translate(598.115234 0)"/>
     <use xlink:href="#DejaVuSans-72" transform="translate(661.494141 0)"/>
     <use xlink:href="#DejaVuSans-65" transform="translate(700.357422 0)"/>
     <use xlink:href="#DejaVuSans-64" transform="translate(761.880859 0)"/>
    </g>
   </g>
   <g id="text_9">
    <!-- 2 -->
    <g style="fill: #c8553d" transform="translate(570.898481 112.678125) scale(0.3 -0.3)">
     <use xlink:href="#DejaVuSans-Bold-32"/>
    </g>
   </g>
  </g>
 </g>
 <defs>
  <clipPath id="pc6dbfaa8f4">
   <rect x="7.2" y="7.2" width="662.4" height="180"/>
  </clipPath>
 </defs>
</svg>
