<?xml version="1.0" encoding="utf-8" standalone="no"?>
<!DOCTYPE svg PUBLIC "-//W3C//DTD SVG 1.1//EN"
  "http://www.w3.org/Graphics/SVG/1.1/DTD/svg11.dtd">
<svg xmlns:xlink="http://www.w3.org/1999/xlink" width="631.874141pt" height="247.68pt" viewBox="0 0 631.874141 247.68" xmlns="http://www.w3.org/2000/svg" version="1.1">
 <metadata>
  <rdf:RDF xmlns:dc="http://purl.org/dc/elements/1.1/" xmlns:cc="http://creativecommons.org/ns#" xmlns:rdf="http://www.w3.org/1999/02/22-rdf-syntax-ns#">
   <cc:Work>
    <dc:type rdf:resource="http://purl.org/dc/dcmitype/StillImage"/>
    <dc:date>2026-06-22T21:08:33.906548</dc:date>
    <dc:format>image/svg+xml</dc:format>
    <dc:creator>
     <cc:Agent>
      <dc:title>Matplotlib v3.10.8, https://matplotlib.org/</dc:title>
     </cc:Agent>
    </dc:creator>
   </cc:Work>
  </rdf:RDF>
 </metadata>
 <defs>
  <style type="text/css">*{stroke-linejoin: round; stroke-linecap: butt}</style>
 </defs>
 <g id="figure_1">
  <g id="patch_1">
   <path d="M 0 247.68 
L 631.874141 247.68 
L 631.874141 -0 
L 0 -0 
L 0 247.68 
z
" style="fill: none; opacity: 0"/>
  </g>
  <g id="axes_1">
   <g id="line2d_1">
    <path d="M 26.208 67.536 
L 595.872 67.536 
" clip-path="url(#pb04ad89539)" style="fill: none; stroke: #222629; stroke-width: 1.6; stroke-linecap: square"/>
   </g>
   <g id="line2d_2">
    <path d="M 26.208 134.856 
L 595.872 134.856 
" clip-path="url(#pb04ad89539)" style="fill: none; stroke: #b9bec4; stroke-width: 0.7; stroke-linecap: square"/>
   </g>
   <g id="line2d_3">
    <path d="M 26.208 183.816 
L 595.872 183.816 
" clip-path="url(#pb04ad89539)" style="fill: none; stroke: #b9bec4; stroke-width: 0.7; stroke-linecap: square"/>
   </g>
   <g id="text_1">
    <!-- AI confidence -->
    <g style="fill: #8c1515" transform="translate(32.4 23.542875) scale(0.18 -0.18)">
     <defs>
      <path id="DejaVuSans-Bold-41" d="M 3419 850 
L 1538 850 
L 1241 0 
L 31 0 
L 1759 4666 
L 3194 4666 
L 4922 0 
L 3713 0 
L 3419 850 
z
M 1838 1716 
L 3116 1716 
L 2478 3572 
L 1838 1716 
z
" transform="scale(0.015625)"/>
      <path id="DejaVuSans-Bold-49" d="M 588 4666 
L 1791 4666 
L 1791 0 
L 588 0 
L 588 4666 
z
" transform="scale(0.015625)"/>
      <path id="DejaVuSans-Bold-20" transform="scale(0.015625)"/>
      <path id="DejaVuSans-Bold-63" d="M 3366 3391 
L 3366 2478 
Q 3138 2634 2908 2709 
Q 2678 2784 2431 2784 
Q 1963 2784 1702 2511 
Q 1441 2238 1441 1747 
Q 1441 1256 1702 982 
Q 1963 709 2431 709 
Q 2694 709 2930 787 
Q 3166 866 3366 1019 
L 3366 103 
Q 3103 6 2833 -42 
Q 2563 -91 2291 -91 
Q 1344 -91 809 395 
Q 275 881 275 1747 
Q 275 2613 809 3098 
Q 1344 3584 2291 3584 
Q 2566 3584 2833 3536 
Q 3100 3488 3366 3391 
z
" transform="scale(0.015625)"/>
      <path id="DejaVuSans-Bold-6f" d="M 2203 2784 
Q 1831 2784 1636 2517 
Q 1441 2250 1441 1747 
Q 1441 1244 1636 976 
Q 1831 709 2203 709 
Q 2569 709 2762 976 
Q 2956 1244 2956 1747 
Q 2956 2250 2762 2517 
Q 2569 2784 2203 2784 
z
M 2203 3584 
Q 3106 3584 3614 3096 
Q 4122 2609 4122 1747 
Q 4122 884 3614 396 
Q 3106 -91 2203 -91 
Q 1297 -91 786 396 
Q 275 884 275 1747 
Q 275 2609 786 3096 
Q 1297 3584 2203 3584 
z
" transform="scale(0.015625)"/>
      <path id="DejaVuSans-Bold-6e" d="M 4056 2131 
L 4056 0 
L 2931 0 
L 2931 347 
L 2931 1631 
Q 2931 2084 2911 2256 
Q 2891 2428 2841 2509 
Q 2775 2619 2662 2680 
Q 2550 2741 2406 2741 
Q 2056 2741 1856 2470 
Q 1656 2200 1656 1722 
L 1656 0 
L 538 0 
L 538 3500 
L 1656 3500 
L 1656 2988 
Q 1909 3294 2193 3439 
Q 2478 3584 2822 3584 
Q 3428 3584 3742 3212 
Q 4056 2841 4056 2131 
z
" transform="scale(0.015625)"/>
      <path id="DejaVuSans-Bold-66" d="M 2841 4863 
L 2841 4128 
L 2222 4128 
Q 1984 4128 1890 4042 
Q 1797 3956 1797 3744 
L 1797 3500 
L 2753 3500 
L 2753 2700 
L 1797 2700 
L 1797 0 
L 678 0 
L 678 2700 
L 122 2700 
L 122 3500 
L 678 3500 
L 678 3744 
Q 678 4316 997 4589 
Q 1316 4863 1984 4863 
L 2841 4863 
z
" transform="scale(0.015625)"/>
      <path id="DejaVuSans-Bold-69" d="M 538 3500 
L 1656 3500 
L 1656 0 
L 538 0 
L 538 3500 
z
M 538 4863 
L 1656 4863 
L 1656 3950 
L 538 3950 
L 538 4863 
z
" transform="scale(0.015625)"/>
      <path id="DejaVuSans-Bold-64" d="M 2919 2988 
L 2919 4863 
L 4044 4863 
L 4044 0 
L 2919 0 
L 2919 506 
Q 2688 197 2409 53 
Q 2131 -91 1766 -91 
Q 1119 -91 703 423 
Q 288 938 288 1747 
Q 288 2556 703 3070 
Q 1119 3584 1766 3584 
Q 2128 3584 2408 3439 
Q 2688 3294 2919 2988 
z
M 2181 722 
Q 2541 722 2730 984 
Q 2919 1247 2919 1747 
Q 2919 2247 2730 2509 
Q 2541 2772 2181 2772 
Q 1825 2772 1636 2509 
Q 1447 2247 1447 1747 
Q 1447 1247 1636 984 
Q 1825 722 2181 722 
z
" transform="scale(0.015625)"/>
      <path id="DejaVuSans-Bold-65" d="M 4031 1759 
L 4031 1441 
L 1416 1441 
Q 1456 1047 1700 850 
Q 1944 653 2381 653 
Q 2734 653 3104 758 
Q 3475 863 3866 1075 
L 3866 213 
Q 3469 63 3072 -14 
Q 2675 -91 2278 -91 
Q 1328 -91 801 392 
Q 275 875 275 1747 
Q 275 2603 792 3093 
Q 1309 3584 2216 3584 
Q 3041 3584 3536 3087 
Q 4031 2591 4031 1759 
z
M 2881 2131 
Q 2881 2450 2695 2645 
Q 2509 2841 2209 2841 
Q 1884 2841 1681 2658 
Q 1478 2475 1428 2131 
L 2881 2131 
z
" transform="scale(0.015625)"/>
     </defs>
     <use xlink:href="#DejaVuSans-Bold-41"/>
     <use xlink:href="#DejaVuSans-Bold-49" transform="translate(77.392578 0)"/>
     <use xlink:href="#DejaVuSans-Bold-20" transform="translate(114.599609 0)"/>
     <use xlink:href="#DejaVuSans-Bold-63" transform="translate(149.414062 0)"/>
     <use xlink:href="#DejaVuSans-Bold-6f" transform="translate(208.691406 0)"/>
     <use xlink:href="#DejaVuSans-Bold-6e" transform="translate(277.392578 0)"/>
     <use xlink:href="#DejaVuSans-Bold-66" transform="translate(348.583984 0)"/>
     <use xlink:href="#DejaVuSans-Bold-69" transform="translate(392.089844 0)"/>
     <use xlink:href="#DejaVuSans-Bold-64" transform="translate(426.367188 0)"/>
     <use xlink:href="#DejaVuSans-Bold-65" transform="translate(497.949219 0)"/>
     <use xlink:href="#DejaVuSans-Bold-6e" transform="translate(565.771484 0)"/>
     <use xlink:href="#DejaVuSans-Bold-63" transform="translate(636.962891 0)"/>
     <use xlink:href="#DejaVuSans-Bold-65" transform="translate(696.240234 0)"/>
    </g>
   </g>
   <g id="text_2">
    <!-- Agreed with human -->
    <g style="fill: #8c1515" transform="translate(211.495781 23.472562) scale(0.18 -0.18)">
     <defs>
      <path id="DejaVuSans-Bold-67" d="M 2919 594 
Q 2688 288 2409 144 
Q 2131 0 1766 0 
Q 1125 0 706 504 
Q 288 1009 288 1791 
Q 288 2575 706 3076 
Q 1125 3578 1766 3578 
Q 2131 3578 2409 3434 
Q 2688 3291 2919 2981 
L 2919 3500 
L 4044 3500 
L 4044 353 
Q 4044 -491 3511 -936 
Q 2978 -1381 1966 -1381 
Q 1638 -1381 1331 -1331 
Q 1025 -1281 716 -1178 
L 716 -306 
Q 1009 -475 1290 -558 
Q 1572 -641 1856 -641 
Q 2406 -641 2662 -400 
Q 2919 -159 2919 353 
L 2919 594 
z
M 2181 2772 
Q 1834 2772 1640 2515 
Q 1447 2259 1447 1791 
Q 1447 1309 1634 1061 
Q 1822 813 2181 813 
Q 2531 813 2725 1069 
Q 2919 1325 2919 1791 
Q 2919 2259 2725 2515 
Q 2531 2772 2181 2772 
z
" transform="scale(0.015625)"/>
      <path id="DejaVuSans-Bold-72" d="M 3138 2547 
Q 2991 2616 2845 2648 
Q 2700 2681 2553 2681 
Q 2122 2681 1889 2404 
Q 1656 2128 1656 1613 
L 1656 0 
L 538 0 
L 538 3500 
L 1656 3500 
L 1656 2925 
Q 1872 3269 2151 3426 
Q 2431 3584 2822 3584 
Q 2878 3584 2943 3579 
Q 3009 3575 3134 3559 
L 3138 2547 
z
" transform="scale(0.015625)"/>
      <path id="DejaVuSans-Bold-77" d="M 225 3500 
L 1313 3500 
L 1900 1088 
L 2491 3500 
L 3425 3500 
L 4013 1113 
L 4603 3500 
L 5691 3500 
L 4769 0 
L 3547 0 
L 2956 2406 
L 2369 0 
L 1147 0 
L 225 3500 
z
" transform="scale(0.015625)"/>
      <path id="DejaVuSans-Bold-74" d="M 1759 4494 
L 1759 3500 
L 2913 3500 
L 2913 2700 
L 1759 2700 
L 1759 1216 
Q 1759 972 1856 886 
Q 1953 800 2241 800 
L 2816 800 
L 2816 0 
L 1856 0 
Q 1194 0 917 276 
Q 641 553 641 1216 
L 641 2700 
L 84 2700 
L 84 3500 
L 641 3500 
L 641 4494 
L 1759 4494 
z
" transform="scale(0.015625)"/>
      <path id="DejaVuSans-Bold-68" d="M 4056 2131 
L 4056 0 
L 2931 0 
L 2931 347 
L 2931 1625 
Q 2931 2084 2911 2256 
Q 2891 2428 2841 2509 
Q 2775 2619 2662 2680 
Q 2550 2741 2406 2741 
Q 2056 2741 1856 2470 
Q 1656 2200 1656 1722 
L 1656 0 
L 538 0 
L 538 4863 
L 1656 4863 
L 1656 2988 
Q 1909 3294 2193 3439 
Q 2478 3584 2822 3584 
Q 3428 3584 3742 3212 
Q 4056 2841 4056 2131 
z
" transform="scale(0.015625)"/>
      <path id="DejaVuSans-Bold-75" d="M 500 1363 
L 500 3500 
L 1625 3500 
L 1625 3150 
Q 1625 2866 1622 2436 
Q 1619 2006 1619 1863 
Q 1619 1441 1641 1255 
Q 1663 1069 1716 984 
Q 1784 875 1895 815 
Q 2006 756 2150 756 
Q 2500 756 2700 1025 
Q 2900 1294 2900 1772 
L 2900 3500 
L 4019 3500 
L 4019 0 
L 2900 0 
L 2900 506 
Q 2647 200 2364 54 
Q 2081 -91 1741 -91 
Q 1134 -91 817 281 
Q 500 653 500 1363 
z
" transform="scale(0.015625)"/>
      <path id="DejaVuSans-Bold-6d" d="M 3781 2919 
Q 3994 3244 4286 3414 
Q 4578 3584 4928 3584 
Q 5531 3584 5847 3212 
Q 6163 2841 6163 2131 
L 6163 0 
L 5038 0 
L 5038 1825 
Q 5041 1866 5042 1909 
Q 5044 1953 5044 2034 
Q 5044 2406 4934 2573 
Q 4825 2741 4581 2741 
Q 4263 2741 4089 2478 
Q 3916 2216 3909 1719 
L 3909 0 
L 2784 0 
L 2784 1825 
Q 2784 2406 2684 2573 
Q 2584 2741 2328 2741 
Q 2006 2741 1831 2477 
Q 1656 2213 1656 1722 
L 1656 0 
L 531 0 
L 531 3500 
L 1656 3500 
L 1656 2988 
Q 1863 3284 2130 3434 
Q 2397 3584 2719 3584 
Q 3081 3584 3359 3409 
Q 3638 3234 3781 2919 
z
" transform="scale(0.015625)"/>
      <path id="DejaVuSans-Bold-61" d="M 2106 1575 
Q 1756 1575 1579 1456 
Q 1403 1338 1403 1106 
Q 1403 894 1545 773 
Q 1688 653 1941 653 
Q 2256 653 2472 879 
Q 2688 1106 2688 1447 
L 2688 1575 
L 2106 1575 
z
M 3816 1997 
L 3816 0 
L 2688 0 
L 2688 519 
Q 2463 200 2181 54 
Q 1900 -91 1497 -91 
Q 953 -91 614 226 
Q 275 544 275 1050 
Q 275 1666 698 1953 
Q 1122 2241 2028 2241 
L 2688 2241 
L 2688 2328 
Q 2688 2594 2478 2717 
Q 2269 2841 1825 2841 
Q 1466 2841 1156 2769 
Q 847 2697 581 2553 
L 581 3406 
Q 941 3494 1303 3539 
Q 1666 3584 2028 3584 
Q 2975 3584 3395 3211 
Q 3816 2838 3816 1997 
z
" transform="scale(0.015625)"/>
     </defs>
     <use xlink:href="#DejaVuSans-Bold-41"/>
     <use xlink:href="#DejaVuSans-Bold-67" transform="translate(77.392578 0)"/>
     <use xlink:href="#DejaVuSans-Bold-72" transform="translate(148.974609 0)"/>
     <use xlink:href="#DejaVuSans-Bold-65" transform="translate(198.291016 0)"/>
     <use xlink:href="#DejaVuSans-Bold-65" transform="translate(266.113281 0)"/>
     <use xlink:href="#DejaVuSans-Bold-64" transform="translate(333.935547 0)"/>
     <use xlink:href="#DejaVuSans-Bold-20" transform="translate(405.517578 0)"/>
     <use xlink:href="#DejaVuSans-Bold-77" transform="translate(440.332031 0)"/>
     <use xlink:href="#DejaVuSans-Bold-69" transform="translate(532.714844 0)"/>
     <use xlink:href="#DejaVuSans-Bold-74" transform="translate(566.992188 0)"/>
     <use xlink:href="#DejaVuSans-Bold-68" transform="translate(614.794922 0)"/>
     <use xlink:href="#DejaVuSans-Bold-20" transform="translate(685.986328 0)"/>
     <use xlink:href="#DejaVuSans-Bold-68" transform="translate(720.800781 0)"/>
     <use xlink:href="#DejaVuSans-Bold-75" transform="translate(791.992188 0)"/>
     <use xlink:href="#DejaVuSans-Bold-6d" transform="translate(863.183594 0)"/>
     <use xlink:href="#DejaVuSans-Bold-61" transform="translate(967.382812 0)"/>
     <use xlink:href="#DejaVuSans-Bold-6e" transform="translate(1034.863281 0)"/>
    </g>
   </g>
   <g id="text_3">
    <!-- AI lost on review -->
    <g style="fill: #8c1515" transform="translate(442.615781 23.542875) scale(0.18 -0.18)">
     <defs>
      <path id="DejaVuSans-Bold-6c" d="M 538 4863 
L 1656 4863 
L 1656 0 
L 538 0 
L 538 4863 
z
" transform="scale(0.015625)"/>
      <path id="DejaVuSans-Bold-73" d="M 3272 3391 
L 3272 2541 
Q 2913 2691 2578 2766 
Q 2244 2841 1947 2841 
Q 1628 2841 1473 2761 
Q 1319 2681 1319 2516 
Q 1319 2381 1436 2309 
Q 1553 2238 1856 2203 
L 2053 2175 
Q 2913 2066 3209 1816 
Q 3506 1566 3506 1031 
Q 3506 472 3093 190 
Q 2681 -91 1863 -91 
Q 1516 -91 1145 -36 
Q 775 19 384 128 
L 384 978 
Q 719 816 1070 734 
Q 1422 653 1784 653 
Q 2113 653 2278 743 
Q 2444 834 2444 1013 
Q 2444 1163 2330 1236 
Q 2216 1309 1875 1350 
L 1678 1375 
Q 931 1469 631 1722 
Q 331 1975 331 2491 
Q 331 3047 712 3315 
Q 1094 3584 1881 3584 
Q 2191 3584 2531 3537 
Q 2872 3491 3272 3391 
z
" transform="scale(0.015625)"/>
      <path id="DejaVuSans-Bold-76" d="M 97 3500 
L 1216 3500 
L 2088 1081 
L 2956 3500 
L 4078 3500 
L 2700 0 
L 1472 0 
L 97 3500 
z
" transform="scale(0.015625)"/>
     </defs>
     <use xlink:href="#DejaVuSans-Bold-41"/>
     <use xlink:href="#DejaVuSans-Bold-49" transform="translate(77.392578 0)"/>
     <use xlink:href="#DejaVuSans-Bold-20" transform="translate(114.599609 0)"/>
     <use xlink:href="#DejaVuSans-Bold-6c" transform="translate(149.414062 0)"/>
     <use xlink:href="#DejaVuSans-Bold-6f" transform="translate(183.691406 0)"/>
     <use xlink:href="#DejaVuSans-Bold-73" transform="translate(252.392578 0)"/>
     <use xlink:href="#DejaVuSans-Bold-74" transform="translate(311.914062 0)"/>
     <use xlink:href="#DejaVuSans-Bold-20" transform="translate(359.716797 0)"/>
     <use xlink:href="#DejaVuSans-Bold-6f" transform="translate(394.53125 0)"/>
     <use xlink:href="#DejaVuSans-Bold-6e" transform="translate(463.232422 0)"/>
     <use xlink:href="#DejaVuSans-Bold-20" transform="translate(534.423828 0)"/>
     <use xlink:href="#DejaVuSans-Bold-72" transform="translate(569.238281 0)"/>
     <use xlink:href="#DejaVuSans-Bold-65" transform="translate(618.554688 0)"/>
     <use xlink:href="#DejaVuSans-Bold-76" transform="translate(686.376953 0)"/>
     <use xlink:href="#DejaVuSans-Bold-69" transform="translate(751.5625 0)"/>
     <use xlink:href="#DejaVuSans-Bold-65" transform="translate(785.839844 0)"/>
     <use xlink:href="#DejaVuSans-Bold-77" transform="translate(853.662109 0)"/>
    </g>
   </g>
   <g id="text_4">
    <!-- same answer as the RA -->
    <g style="fill: #5b6b7b" transform="translate(234.861016 49.091187) scale(0.13 -0.13)">
     <defs>
      <path id="DejaVuSans-73" d="M 2834 3397 
L 2834 2853 
Q 2591 2978 2328 3040 
Q 2066 3103 1784 3103 
Q 1356 3103 1142 2972 
Q 928 2841 928 2578 
Q 928 2378 1081 2264 
Q 1234 2150 1697 2047 
L 1894 2003 
Q 2506 1872 2764 1633 
Q 3022 1394 3022 966 
Q 3022 478 2636 193 
Q 2250 -91 1575 -91 
Q 1294 -91 989 -36 
Q 684 19 347 128 
L 347 722 
Q 666 556 975 473 
Q 1284 391 1588 391 
Q 1994 391 2212 530 
Q 2431 669 2431 922 
Q 2431 1156 2273 1281 
Q 2116 1406 1581 1522 
L 1381 1569 
Q 847 1681 609 1914 
Q 372 2147 372 2553 
Q 372 3047 722 3315 
Q 1072 3584 1716 3584 
Q 2034 3584 2315 3537 
Q 2597 3491 2834 3397 
z
" transform="scale(0.015625)"/>
      <path id="DejaVuSans-61" d="M 2194 1759 
Q 1497 1759 1228 1600 
Q 959 1441 959 1056 
Q 959 750 1161 570 
Q 1363 391 1709 391 
Q 2188 391 2477 730 
Q 2766 1069 2766 1631 
L 2766 1759 
L 2194 1759 
z
M 3341 1997 
L 3341 0 
L 2766 0 
L 2766 531 
Q 2569 213 2275 61 
Q 1981 -91 1556 -91 
Q 1019 -91 701 211 
Q 384 513 384 1019 
Q 384 1609 779 1909 
Q 1175 2209 1959 2209 
L 2766 2209 
L 2766 2266 
Q 2766 2663 2505 2880 
Q 2244 3097 1772 3097 
Q 1472 3097 1187 3025 
Q 903 2953 641 2809 
L 641 3341 
Q 956 3463 1253 3523 
Q 1550 3584 1831 3584 
Q 2591 3584 2966 3190 
Q 3341 2797 3341 1997 
z
" transform="scale(0.015625)"/>
      <path id="DejaVuSans-6d" d="M 3328 2828 
Q 3544 3216 3844 3400 
Q 4144 3584 4550 3584 
Q 5097 3584 5394 3201 
Q 5691 2819 5691 2113 
L 5691 0 
L 5113 0 
L 5113 2094 
Q 5113 2597 4934 2840 
Q 4756 3084 4391 3084 
Q 3944 3084 3684 2787 
Q 3425 2491 3425 1978 
L 3425 0 
L 2847 0 
L 2847 2094 
Q 2847 2600 2669 2842 
Q 2491 3084 2119 3084 
Q 1678 3084 1418 2786 
Q 1159 2488 1159 1978 
L 1159 0 
L 581 0 
L 581 3500 
L 1159 3500 
L 1159 2956 
Q 1356 3278 1631 3431 
Q 1906 3584 2284 3584 
Q 2666 3584 2933 3390 
Q 3200 3197 3328 2828 
z
" transform="scale(0.015625)"/>
      <path id="DejaVuSans-65" d="M 3597 1894 
L 3597 1613 
L 953 1613 
Q 991 1019 1311 708 
Q 1631 397 2203 397 
Q 2534 397 2845 478 
Q 3156 559 3463 722 
L 3463 178 
Q 3153 47 2828 -22 
Q 2503 -91 2169 -91 
Q 1331 -91 842 396 
Q 353 884 353 1716 
Q 353 2575 817 3079 
Q 1281 3584 2069 3584 
Q 2775 3584 3186 3129 
Q 3597 2675 3597 1894 
z
M 3022 2063 
Q 3016 2534 2758 2815 
Q 2500 3097 2075 3097 
Q 1594 3097 1305 2825 
Q 1016 2553 972 2059 
L 3022 2063 
z
" transform="scale(0.015625)"/>
      <path id="DejaVuSans-20" transform="scale(0.015625)"/>
      <path id="DejaVuSans-6e" d="M 3513 2113 
L 3513 0 
L 2938 0 
L 2938 2094 
Q 2938 2591 2744 2837 
Q 2550 3084 2163 3084 
Q 1697 3084 1428 2787 
Q 1159 2491 1159 1978 
L 1159 0 
L 581 0 
L 581 3500 
L 1159 3500 
L 1159 2956 
Q 1366 3272 1645 3428 
Q 1925 3584 2291 3584 
Q 2894 3584 3203 3211 
Q 3513 2838 3513 2113 
z
" transform="scale(0.015625)"/>
      <path id="DejaVuSans-77" d="M 269 3500 
L 844 3500 
L 1563 769 
L 2278 3500 
L 2956 3500 
L 3675 769 
L 4391 3500 
L 4966 3500 
L 4050 0 
L 3372 0 
L 2619 2869 
L 1863 0 
L 1184 0 
L 269 3500 
z
" transform="scale(0.015625)"/>
      <path id="DejaVuSans-72" d="M 2631 2963 
Q 2534 3019 2420 3045 
Q 2306 3072 2169 3072 
Q 1681 3072 1420 2755 
Q 1159 2438 1159 1844 
L 1159 0 
L 581 0 
L 581 3500 
L 1159 3500 
L 1159 2956 
Q 1341 3275 1631 3429 
Q 1922 3584 2338 3584 
Q 2397 3584 2469 3576 
Q 2541 3569 2628 3553 
L 2631 2963 
z
" transform="scale(0.015625)"/>
      <path id="DejaVuSans-74" d="M 1172 4494 
L 1172 3500 
L 2356 3500 
L 2356 3053 
L 1172 3053 
L 1172 1153 
Q 1172 725 1289 603 
Q 1406 481 1766 481 
L 2356 481 
L 2356 0 
L 1766 0 
Q 1100 0 847 248 
Q 594 497 594 1153 
L 594 3053 
L 172 3053 
L 172 3500 
L 594 3500 
L 594 4494 
L 1172 4494 
z
" transform="scale(0.015625)"/>
      <path id="DejaVuSans-68" d="M 3513 2113 
L 3513 0 
L 2938 0 
L 2938 2094 
Q 2938 2591 2744 2837 
Q 2550 3084 2163 3084 
Q 1697 3084 1428 2787 
Q 1159 2491 1159 1978 
L 1159 0 
L 581 0 
L 581 4863 
L 1159 4863 
L 1159 2956 
Q 1366 3272 1645 3428 
Q 1925 3584 2291 3584 
Q 2894 3584 3203 3211 
Q 3513 2838 3513 2113 
z
" transform="scale(0.015625)"/>
      <path id="DejaVuSans-52" d="M 2841 2188 
Q 3044 2119 3236 1894 
Q 3428 1669 3622 1275 
L 4263 0 
L 3584 0 
L 2988 1197 
Q 2756 1666 2539 1819 
Q 2322 1972 1947 1972 
L 1259 1972 
L 1259 0 
L 628 0 
L 628 4666 
L 2053 4666 
Q 2853 4666 3247 4331 
Q 3641 3997 3641 3322 
Q 3641 2881 3436 2590 
Q 3231 2300 2841 2188 
z
M 1259 4147 
L 1259 2491 
L 2053 2491 
Q 2509 2491 2742 2702 
Q 2975 2913 2975 3322 
Q 2975 3731 2742 3939 
Q 2509 4147 2053 4147 
L 1259 4147 
z
" transform="scale(0.015625)"/>
      <path id="DejaVuSans-41" d="M 2188 4044 
L 1331 1722 
L 3047 1722 
L 2188 4044 
z
M 1831 4666 
L 2547 4666 
L 4325 0 
L 3669 0 
L 3244 1197 
L 1141 1197 
L 716 0 
L 50 0 
L 1831 4666 
z
" transform="scale(0.015625)"/>
     </defs>
     <use xlink:href="#DejaVuSans-73"/>
     <use xlink:href="#DejaVuSans-61" transform="translate(52.099609 0)"/>
     <use xlink:href="#DejaVuSans-6d" transform="translate(113.378906 0)"/>
     <use xlink:href="#DejaVuSans-65" transform="translate(210.791016 0)"/>
     <use xlink:href="#DejaVuSans-20" transform="translate(272.314453 0)"/>
     <use xlink:href="#DejaVuSans-61" transform="translate(304.101562 0)"/>
     <use xlink:href="#DejaVuSans-6e" transform="translate(365.380859 0)"/>
     <use xlink:href="#DejaVuSans-73" transform="translate(428.759766 0)"/>
     <use xlink:href="#DejaVuSans-77" transform="translate(480.859375 0)"/>
     <use xlink:href="#DejaVuSans-65" transform="translate(562.646484 0)"/>
     <use xlink:href="#DejaVuSans-72" transform="translate(624.169922 0)"/>
     <use xlink:href="#DejaVuSans-20" transform="translate(665.283203 0)"/>
     <use xlink:href="#DejaVuSans-61" transform="translate(697.070312 0)"/>
     <use xlink:href="#DejaVuSans-73" transform="translate(758.349609 0)"/>
     <use xlink:href="#DejaVuSans-20" transform="translate(810.449219 0)"/>
     <use xlink:href="#DejaVuSans-74" transform="translate(842.236328 0)"/>
     <use xlink:href="#DejaVuSans-68" transform="translate(881.445312 0)"/>
     <use xlink:href="#DejaVuSans-65" transform="translate(944.824219 0)"/>
     <use xlink:href="#DejaVuSans-20" transform="translate(1006.347656 0)"/>
     <use xlink:href="#DejaVuSans-52" transform="translate(1038.134766 0)"/>
     <use xlink:href="#DejaVuSans-41" transform="translate(1103.617188 0)"/>
    </g>
   </g>
   <g id="text_5">
    <!-- of adjudicated contests -->
    <g style="fill: #5b6b7b" transform="translate(451.625703 49.091187) scale(0.13 -0.13)">
     <defs>
      <path id="DejaVuSans-6f" d="M 1959 3097 
Q 1497 3097 1228 2736 
Q 959 2375 959 1747 
Q 959 1119 1226 758 
Q 1494 397 1959 397 
Q 2419 397 2687 759 
Q 2956 1122 2956 1747 
Q 2956 2369 2687 2733 
Q 2419 3097 1959 3097 
z
M 1959 3584 
Q 2709 3584 3137 3096 
Q 3566 2609 3566 1747 
Q 3566 888 3137 398 
Q 2709 -91 1959 -91 
Q 1206 -91 779 398 
Q 353 888 353 1747 
Q 353 2609 779 3096 
Q 1206 3584 1959 3584 
z
" transform="scale(0.015625)"/>
      <path id="DejaVuSans-66" d="M 2375 4863 
L 2375 4384 
L 1825 4384 
Q 1516 4384 1395 4259 
Q 1275 4134 1275 3809 
L 1275 3500 
L 2222 3500 
L 2222 3053 
L 1275 3053 
L 1275 0 
L 697 0 
L 697 3053 
L 147 3053 
L 147 3500 
L 697 3500 
L 697 3744 
Q 697 4328 969 4595 
Q 1241 4863 1831 4863 
L 2375 4863 
z
" transform="scale(0.015625)"/>
      <path id="DejaVuSans-64" d="M 2906 2969 
L 2906 4863 
L 3481 4863 
L 3481 0 
L 2906 0 
L 2906 525 
Q 2725 213 2448 61 
Q 2172 -91 1784 -91 
Q 1150 -91 751 415 
Q 353 922 353 1747 
Q 353 2572 751 3078 
Q 1150 3584 1784 3584 
Q 2172 3584 2448 3432 
Q 2725 3281 2906 2969 
z
M 947 1747 
Q 947 1113 1208 752 
Q 1469 391 1925 391 
Q 2381 391 2643 752 
Q 2906 1113 2906 1747 
Q 2906 2381 2643 2742 
Q 2381 3103 1925 3103 
Q 1469 3103 1208 2742 
Q 947 2381 947 1747 
z
" transform="scale(0.015625)"/>
      <path id="DejaVuSans-6a" d="M 603 3500 
L 1178 3500 
L 1178 -63 
Q 1178 -731 923 -1031 
Q 669 -1331 103 -1331 
L -116 -1331 
L -116 -844 
L 38 -844 
Q 366 -844 484 -692 
Q 603 -541 603 -63 
L 603 3500 
z
M 603 4863 
L 1178 4863 
L 1178 4134 
L 603 4134 
L 603 4863 
z
" transform="scale(0.015625)"/>
      <path id="DejaVuSans-75" d="M 544 1381 
L 544 3500 
L 1119 3500 
L 1119 1403 
Q 1119 906 1312 657 
Q 1506 409 1894 409 
Q 2359 409 2629 706 
Q 2900 1003 2900 1516 
L 2900 3500 
L 3475 3500 
L 3475 0 
L 2900 0 
L 2900 538 
Q 2691 219 2414 64 
Q 2138 -91 1772 -91 
Q 1169 -91 856 284 
Q 544 659 544 1381 
z
M 1991 3584 
L 1991 3584 
z
" transform="scale(0.015625)"/>
      <path id="DejaVuSans-69" d="M 603 3500 
L 1178 3500 
L 1178 0 
L 603 0 
L 603 3500 
z
M 603 4863 
L 1178 4863 
L 1178 4134 
L 603 4134 
L 603 4863 
z
" transform="scale(0.015625)"/>
      <path id="DejaVuSans-63" d="M 3122 3366 
L 3122 2828 
Q 2878 2963 2633 3030 
Q 2388 3097 2138 3097 
Q 1578 3097 1268 2742 
Q 959 2388 959 1747 
Q 959 1106 1268 751 
Q 1578 397 2138 397 
Q 2388 397 2633 464 
Q 2878 531 3122 666 
L 3122 134 
Q 2881 22 2623 -34 
Q 2366 -91 2075 -91 
Q 1284 -91 818 406 
Q 353 903 353 1747 
Q 353 2603 823 3093 
Q 1294 3584 2113 3584 
Q 2378 3584 2631 3529 
Q 2884 3475 3122 3366 
z
" transform="scale(0.015625)"/>
     </defs>
     <use xlink:href="#DejaVuSans-6f"/>
     <use xlink:href="#DejaVuSans-66" transform="translate(61.181641 0)"/>
     <use xlink:href="#DejaVuSans-20" transform="translate(96.386719 0)"/>
     <use xlink:href="#DejaVuSans-61" transform="translate(128.173828 0)"/>
     <use xlink:href="#DejaVuSans-64" transform="translate(189.453125 0)"/>
     <use xlink:href="#DejaVuSans-6a" transform="translate(252.929688 0)"/>
     <use xlink:href="#DejaVuSans-75" transform="translate(280.712891 0)"/>
     <use xlink:href="#DejaVuSans-64" transform="translate(344.091797 0)"/>
     <use xlink:href="#DejaVuSans-69" transform="translate(407.568359 0)"/>
     <use xlink:href="#DejaVuSans-63" transform="translate(435.351562 0)"/>
     <use xlink:href="#DejaVuSans-61" transform="translate(490.332031 0)"/>
     <use xlink:href="#DejaVuSans-74" transform="translate(551.611328 0)"/>
     <use xlink:href="#DejaVuSans-65" transform="translate(590.820312 0)"/>
     <use xlink:href="#DejaVuSans-64" transform="translate(652.34375 0)"/>
     <use xlink:href="#DejaVuSans-20" transform="translate(715.820312 0)"/>
     <use xlink:href="#DejaVuSans-63" transform="translate(747.607422 0)"/>
     <use xlink:href="#DejaVuSans-6f" transform="translate(802.587891 0)"/>
     <use xlink:href="#DejaVuSans-6e" transform="translate(863.769531 0)"/>
     <use xlink:href="#DejaVuSans-74" transform="translate(927.148438 0)"/>
     <use xlink:href="#DejaVuSans-65" transform="translate(966.357422 0)"/>
     <use xlink:href="#DejaVuSans-73" transform="translate(1027.880859 0)"/>
     <use xlink:href="#DejaVuSans-74" transform="translate(1079.980469 0)"/>
     <use xlink:href="#DejaVuSans-73" transform="translate(1119.189453 0)"/>
    </g>
   </g>
   <g id="text_6">
    <!-- High -->
    <g style="fill: #222629" transform="translate(32.4 115.342875) scale(0.18 -0.18)">
     <defs>
      <path id="DejaVuSans-48" d="M 628 4666 
L 1259 4666 
L 1259 2753 
L 3553 2753 
L 3553 4666 
L 4184 4666 
L 4184 0 
L 3553 0 
L 3553 2222 
L 1259 2222 
L 1259 0 
L 628 0 
L 628 4666 
z
" transform="scale(0.015625)"/>
      <path id="DejaVuSans-67" d="M 2906 1791 
Q 2906 2416 2648 2759 
Q 2391 3103 1925 3103 
Q 1463 3103 1205 2759 
Q 947 2416 947 1791 
Q 947 1169 1205 825 
Q 1463 481 1925 481 
Q 2391 481 2648 825 
Q 2906 1169 2906 1791 
z
M 3481 434 
Q 3481 -459 3084 -895 
Q 2688 -1331 1869 -1331 
Q 1566 -1331 1297 -1286 
Q 1028 -1241 775 -1147 
L 775 -588 
Q 1028 -725 1275 -790 
Q 1522 -856 1778 -856 
Q 2344 -856 2625 -561 
Q 2906 -266 2906 331 
L 2906 616 
Q 2728 306 2450 153 
Q 2172 0 1784 0 
Q 1141 0 747 490 
Q 353 981 353 1791 
Q 353 2603 747 3093 
Q 1141 3584 1784 3584 
Q 2172 3584 2450 3431 
Q 2728 3278 2906 2969 
L 2906 3500 
L 3481 3500 
L 3481 434 
z
" transform="scale(0.015625)"/>
     </defs>
     <use xlink:href="#DejaVuSans-48"/>
     <use xlink:href="#DejaVuSans-69" transform="translate(75.195312 0)"/>
     <use xlink:href="#DejaVuSans-67" transform="translate(102.978516 0)"/>
     <use xlink:href="#DejaVuSans-68" transform="translate(166.455078 0)"/>
    </g>
   </g>
   <g id="text_7">
    <!-- 92% -->
    <g style="fill: #222629" transform="translate(289.497656 115.342875) scale(0.18 -0.18)">
     <defs>
      <path id="DejaVuSans-Bold-39" d="M 641 103 
L 641 966 
Q 928 831 1190 764 
Q 1453 697 1709 697 
Q 2247 697 2547 995 
Q 2847 1294 2900 1881 
Q 2688 1725 2447 1647 
Q 2206 1569 1925 1569 
Q 1209 1569 770 1986 
Q 331 2403 331 3084 
Q 331 3838 820 4291 
Q 1309 4744 2131 4744 
Q 3044 4744 3544 4128 
Q 4044 3513 4044 2388 
Q 4044 1231 3459 570 
Q 2875 -91 1856 -91 
Q 1528 -91 1228 -42 
Q 928 6 641 103 
z
M 2125 2350 
Q 2441 2350 2600 2554 
Q 2759 2759 2759 3169 
Q 2759 3575 2600 3781 
Q 2441 3988 2125 3988 
Q 1809 3988 1650 3781 
Q 1491 3575 1491 3169 
Q 1491 2759 1650 2554 
Q 1809 2350 2125 2350 
z
" transform="scale(0.015625)"/>
      <path id="DejaVuSans-Bold-32" d="M 1844 884 
L 3897 884 
L 3897 0 
L 506 0 
L 506 884 
L 2209 2388 
Q 2438 2594 2547 2791 
Q 2656 2988 2656 3200 
Q 2656 3528 2436 3728 
Q 2216 3928 1850 3928 
Q 1569 3928 1234 3808 
Q 900 3688 519 3450 
L 519 4475 
Q 925 4609 1322 4679 
Q 1719 4750 2100 4750 
Q 2938 4750 3402 4381 
Q 3866 4013 3866 3353 
Q 3866 2972 3669 2642 
Q 3472 2313 2841 1759 
L 1844 884 
z
" transform="scale(0.015625)"/>
      <path id="DejaVuSans-Bold-25" d="M 4959 1925 
Q 4738 1925 4616 1733 
Q 4494 1541 4494 1184 
Q 4494 825 4614 633 
Q 4734 441 4959 441 
Q 5184 441 5303 633 
Q 5422 825 5422 1184 
Q 5422 1541 5301 1733 
Q 5181 1925 4959 1925 
z
M 4959 2450 
Q 5541 2450 5875 2112 
Q 6209 1775 6209 1184 
Q 6209 594 5875 251 
Q 5541 -91 4959 -91 
Q 4378 -91 4042 251 
Q 3706 594 3706 1184 
Q 3706 1772 4042 2111 
Q 4378 2450 4959 2450 
z
M 2094 -91 
L 1403 -91 
L 4319 4750 
L 5013 4750 
L 2094 -91 
z
M 1453 4750 
Q 2034 4750 2367 4411 
Q 2700 4072 2700 3481 
Q 2700 2891 2367 2550 
Q 2034 2209 1453 2209 
Q 872 2209 539 2550 
Q 206 2891 206 3481 
Q 206 4072 539 4411 
Q 872 4750 1453 4750 
z
M 1453 4225 
Q 1228 4225 1106 4031 
Q 984 3838 984 3481 
Q 984 3122 1106 2926 
Q 1228 2731 1453 2731 
Q 1678 2731 1798 2926 
Q 1919 3122 1919 3481 
Q 1919 3838 1797 4031 
Q 1675 4225 1453 4225 
z
" transform="scale(0.015625)"/>
     </defs>
     <use xlink:href="#DejaVuSans-Bold-39"/>
     <use xlink:href="#DejaVuSans-Bold-32" transform="translate(69.580078 0)"/>
     <use xlink:href="#DejaVuSans-Bold-25" transform="translate(139.160156 0)"/>
    </g>
   </g>
   <g id="text_8">
    <!-- 0%  (n=8) -->
    <g style="fill: #4f9d69" transform="translate(477.77625 115.342875) scale(0.18 -0.18)">
     <defs>
      <path id="DejaVuSans-Bold-30" d="M 2944 2338 
Q 2944 3213 2780 3570 
Q 2616 3928 2228 3928 
Q 1841 3928 1675 3570 
Q 1509 3213 1509 2338 
Q 1509 1453 1675 1090 
Q 1841 728 2228 728 
Q 2613 728 2778 1090 
Q 2944 1453 2944 2338 
z
M 4147 2328 
Q 4147 1169 3647 539 
Q 3147 -91 2228 -91 
Q 1306 -91 806 539 
Q 306 1169 306 2328 
Q 306 3491 806 4120 
Q 1306 4750 2228 4750 
Q 3147 4750 3647 4120 
Q 4147 3491 4147 2328 
z
" transform="scale(0.015625)"/>
      <path id="DejaVuSans-Bold-28" d="M 2413 -844 
L 1484 -844 
Q 1006 -72 778 623 
Q 550 1319 550 2003 
Q 550 2688 779 3389 
Q 1009 4091 1484 4856 
L 2413 4856 
Q 2013 4116 1813 3408 
Q 1613 2700 1613 2009 
Q 1613 1319 1811 609 
Q 2009 -100 2413 -844 
z
" transform="scale(0.015625)"/>
      <path id="DejaVuSans-Bold-3d" d="M 678 3084 
L 4684 3084 
L 4684 2350 
L 678 2350 
L 678 3084 
z
M 678 1663 
L 4684 1663 
L 4684 922 
L 678 922 
L 678 1663 
z
" transform="scale(0.015625)"/>
      <path id="DejaVuSans-Bold-38" d="M 2228 2088 
Q 1891 2088 1709 1903 
Q 1528 1719 1528 1375 
Q 1528 1031 1709 848 
Q 1891 666 2228 666 
Q 2563 666 2741 848 
Q 2919 1031 2919 1375 
Q 2919 1722 2741 1905 
Q 2563 2088 2228 2088 
z
M 1350 2484 
Q 925 2613 709 2878 
Q 494 3144 494 3541 
Q 494 4131 934 4440 
Q 1375 4750 2228 4750 
Q 3075 4750 3515 4442 
Q 3956 4134 3956 3541 
Q 3956 3144 3739 2878 
Q 3522 2613 3097 2484 
Q 3572 2353 3814 2058 
Q 4056 1763 4056 1313 
Q 4056 619 3595 264 
Q 3134 -91 2228 -91 
Q 1319 -91 855 264 
Q 391 619 391 1313 
Q 391 1763 633 2058 
Q 875 2353 1350 2484 
z
M 1631 3419 
Q 1631 3141 1786 2991 
Q 1941 2841 2228 2841 
Q 2509 2841 2662 2991 
Q 2816 3141 2816 3419 
Q 2816 3697 2662 3845 
Q 2509 3994 2228 3994 
Q 1941 3994 1786 3844 
Q 1631 3694 1631 3419 
z
" transform="scale(0.015625)"/>
      <path id="DejaVuSans-Bold-29" d="M 513 -844 
Q 913 -100 1113 609 
Q 1313 1319 1313 2009 
Q 1313 2700 1113 3408 
Q 913 4116 513 4856 
L 1441 4856 
Q 1916 4091 2145 3389 
Q 2375 2688 2375 2003 
Q 2375 1319 2147 623 
Q 1919 -72 1441 -844 
L 513 -844 
z
" transform="scale(0.015625)"/>
     </defs>
     <use xlink:href="#DejaVuSans-Bold-30"/>
     <use xlink:href="#DejaVuSans-Bold-25" transform="translate(69.580078 0)"/>
     <use xlink:href="#DejaVuSans-Bold-20" transform="translate(169.775391 0)"/>
     <use xlink:href="#DejaVuSans-Bold-20" transform="translate(204.589844 0)"/>
     <use xlink:href="#DejaVuSans-Bold-28" transform="translate(239.404297 0)"/>
     <use xlink:href="#DejaVuSans-Bold-6e" transform="translate(285.107422 0)"/>
     <use xlink:href="#DejaVuSans-Bold-3d" transform="translate(356.298828 0)"/>
     <use xlink:href="#DejaVuSans-Bold-38" transform="translate(440.087891 0)"/>
     <use xlink:href="#DejaVuSans-Bold-29" transform="translate(509.667969 0)"/>
    </g>
   </g>
   <g id="text_9">
    <!-- Medium -->
    <g style="fill: #222629" transform="translate(32.4 164.302875) scale(0.18 -0.18)">
     <defs>
      <path id="DejaVuSans-4d" d="M 628 4666 
L 1569 4666 
L 2759 1491 
L 3956 4666 
L 4897 4666 
L 4897 0 
L 4281 0 
L 4281 4097 
L 3078 897 
L 2444 897 
L 1241 4097 
L 1241 0 
L 628 0 
L 628 4666 
z
" transform="scale(0.015625)"/>
     </defs>
     <use xlink:href="#DejaVuSans-4d"/>
     <use xlink:href="#DejaVuSans-65" transform="translate(86.279297 0)"/>
     <use xlink:href="#DejaVuSans-64" transform="translate(147.802734 0)"/>
     <use xlink:href="#DejaVuSans-69" transform="translate(211.279297 0)"/>
     <use xlink:href="#DejaVuSans-75" transform="translate(239.0625 0)"/>
     <use xlink:href="#DejaVuSans-6d" transform="translate(302.441406 0)"/>
    </g>
   </g>
   <g id="text_10">
    <!-- 89% -->
    <g style="fill: #222629" transform="translate(289.497656 164.302875) scale(0.18 -0.18)">
     <use xlink:href="#DejaVuSans-Bold-38"/>
     <use xlink:href="#DejaVuSans-Bold-39" transform="translate(69.580078 0)"/>
     <use xlink:href="#DejaVuSans-Bold-25" transform="translate(139.160156 0)"/>
    </g>
   </g>
   <g id="text_11">
    <!-- 0%  (n=5) -->
    <g style="fill: #4f9d69" transform="translate(477.77625 164.302875) scale(0.18 -0.18)">
     <defs>
      <path id="DejaVuSans-Bold-35" d="M 678 4666 
L 3669 4666 
L 3669 3781 
L 1638 3781 
L 1638 3059 
Q 1775 3097 1914 3117 
Q 2053 3138 2203 3138 
Q 3056 3138 3531 2711 
Q 4006 2284 4006 1522 
Q 4006 766 3489 337 
Q 2972 -91 2053 -91 
Q 1656 -91 1267 -14 
Q 878 63 494 219 
L 494 1166 
Q 875 947 1217 837 
Q 1559 728 1863 728 
Q 2300 728 2551 942 
Q 2803 1156 2803 1522 
Q 2803 1891 2551 2103 
Q 2300 2316 1863 2316 
Q 1603 2316 1309 2248 
Q 1016 2181 678 2041 
L 678 4666 
z
" transform="scale(0.015625)"/>
     </defs>
     <use xlink:href="#DejaVuSans-Bold-30"/>
     <use xlink:href="#DejaVuSans-Bold-25" transform="translate(69.580078 0)"/>
     <use xlink:href="#DejaVuSans-Bold-20" transform="translate(169.775391 0)"/>
     <use xlink:href="#DejaVuSans-Bold-20" transform="translate(204.589844 0)"/>
     <use xlink:href="#DejaVuSans-Bold-28" transform="translate(239.404297 0)"/>
     <use xlink:href="#DejaVuSans-Bold-6e" transform="translate(285.107422 0)"/>
     <use xlink:href="#DejaVuSans-Bold-3d" transform="translate(356.298828 0)"/>
     <use xlink:href="#DejaVuSans-Bold-35" transform="translate(440.087891 0)"/>
     <use xlink:href="#DejaVuSans-Bold-29" transform="translate(509.667969 0)"/>
    </g>
   </g>
   <g id="text_12">
    <!-- Low -->
    <g style="fill: #222629" transform="translate(32.4 213.262875) scale(0.18 -0.18)">
     <defs>
      <path id="DejaVuSans-4c" d="M 628 4666 
L 1259 4666 
L 1259 531 
L 3531 531 
L 3531 0 
L 628 0 
L 628 4666 
z
" transform="scale(0.015625)"/>
     </defs>
     <use xlink:href="#DejaVuSans-4c"/>
     <use xlink:href="#DejaVuSans-6f" transform="translate(53.962891 0)"/>
     <use xlink:href="#DejaVuSans-77" transform="translate(115.144531 0)"/>
    </g>
   </g>
   <g id="text_13">
    <!-- 50% -->
    <g style="fill: #c8553d" transform="translate(289.497656 213.262875) scale(0.18 -0.18)">
     <use xlink:href="#DejaVuSans-Bold-35"/>
     <use xlink:href="#DejaVuSans-Bold-30" transform="translate(69.580078 0)"/>
     <use xlink:href="#DejaVuSans-Bold-25" transform="translate(139.160156 0)"/>
    </g>
   </g>
   <g id="text_14">
    <!-- 75%  (n=4) -->
    <g style="fill: #c8553d" transform="translate(471.514219 213.262875) scale(0.18 -0.18)">
     <defs>
      <path id="DejaVuSans-Bold-37" d="M 428 4666 
L 3944 4666 
L 3944 3988 
L 2125 0 
L 953 0 
L 2675 3781 
L 428 3781 
L 428 4666 
z
" transform="scale(0.015625)"/>
      <path id="DejaVuSans-Bold-34" d="M 2356 3675 
L 1038 1722 
L 2356 1722 
L 2356 3675 
z
M 2156 4666 
L 3494 4666 
L 3494 1722 
L 4159 1722 
L 4159 850 
L 3494 850 
L 3494 0 
L 2356 0 
L 2356 850 
L 288 850 
L 288 1881 
L 2156 4666 
z
" transform="scale(0.015625)"/>
     </defs>
     <use xlink:href="#DejaVuSans-Bold-37"/>
     <use xlink:href="#DejaVuSans-Bold-35" transform="translate(69.580078 0)"/>
     <use xlink:href="#DejaVuSans-Bold-25" transform="translate(139.160156 0)"/>
     <use xlink:href="#DejaVuSans-Bold-20" transform="translate(239.355469 0)"/>
     <use xlink:href="#DejaVuSans-Bold-20" transform="translate(274.169922 0)"/>
     <use xlink:href="#DejaVuSans-Bold-28" transform="translate(308.984375 0)"/>
     <use xlink:href="#DejaVuSans-Bold-6e" transform="translate(354.6875 0)"/>
     <use xlink:href="#DejaVuSans-Bold-3d" transform="translate(425.878906 0)"/>
     <use xlink:href="#DejaVuSans-Bold-34" transform="translate(509.667969 0)"/>
     <use xlink:href="#DejaVuSans-Bold-29" transform="translate(579.248047 0)"/>
    </g>
   </g>
   <g id="text_15">
    <!-- n = adjudicated contests at each confidence level (17 total). Agreement over all matched comparisons. -->
    <g style="fill: #5b6b7b" transform="translate(32.4 240.845281) scale(0.115 -0.115)">
     <defs>
      <path id="DejaVuSans-3d" d="M 678 2906 
L 4684 2906 
L 4684 2381 
L 678 2381 
L 678 2906 
z
M 678 1631 
L 4684 1631 
L 4684 1100 
L 678 1100 
L 678 1631 
z
" transform="scale(0.015625)"/>
      <path id="DejaVuSans-6c" d="M 603 4863 
L 1178 4863 
L 1178 0 
L 603 0 
L 603 4863 
z
" transform="scale(0.015625)"/>
      <path id="DejaVuSans-76" d="M 191 3500 
L 800 3500 
L 1894 563 
L 2988 3500 
L 3597 3500 
L 2284 0 
L 1503 0 
L 191 3500 
z
" transform="scale(0.015625)"/>
      <path id="DejaVuSans-28" d="M 1984 4856 
Q 1566 4138 1362 3434 
Q 1159 2731 1159 2009 
Q 1159 1288 1364 580 
Q 1569 -128 1984 -844 
L 1484 -844 
Q 1016 -109 783 600 
Q 550 1309 550 2009 
Q 550 2706 781 3412 
Q 1013 4119 1484 4856 
L 1984 4856 
z
" transform="scale(0.015625)"/>
      <path id="DejaVuSans-31" d="M 794 531 
L 1825 531 
L 1825 4091 
L 703 3866 
L 703 4441 
L 1819 4666 
L 2450 4666 
L 2450 531 
L 3481 531 
L 3481 0 
L 794 0 
L 794 531 
z
" transform="scale(0.015625)"/>
      <path id="DejaVuSans-37" d="M 525 4666 
L 3525 4666 
L 3525 4397 
L 1831 0 
L 1172 0 
L 2766 4134 
L 525 4134 
L 525 4666 
z
" transform="scale(0.015625)"/>
      <path id="DejaVuSans-29" d="M 513 4856 
L 1013 4856 
Q 1481 4119 1714 3412 
Q 1947 2706 1947 2009 
Q 1947 1309 1714 600 
Q 1481 -109 1013 -844 
L 513 -844 
Q 928 -128 1133 580 
Q 1338 1288 1338 2009 
Q 1338 2731 1133 3434 
Q 928 4138 513 4856 
z
" transform="scale(0.015625)"/>
      <path id="DejaVuSans-2e" d="M 684 794 
L 1344 794 
L 1344 0 
L 684 0 
L 684 794 
z
" transform="scale(0.015625)"/>
      <path id="DejaVuSans-70" d="M 1159 525 
L 1159 -1331 
L 581 -1331 
L 581 3500 
L 1159 3500 
L 1159 2969 
Q 1341 3281 1617 3432 
Q 1894 3584 2278 3584 
Q 2916 3584 3314 3078 
Q 3713 2572 3713 1747 
Q 3713 922 3314 415 
Q 2916 -91 2278 -91 
Q 1894 -91 1617 61 
Q 1341 213 1159 525 
z
M 3116 1747 
Q 3116 2381 2855 2742 
Q 2594 3103 2138 3103 
Q 1681 3103 1420 2742 
Q 1159 2381 1159 1747 
Q 1159 1113 1420 752 
Q 1681 391 2138 391 
Q 2594 391 2855 752 
Q 3116 1113 3116 1747 
z
" transform="scale(0.015625)"/>
     </defs>
     <use xlink:href="#DejaVuSans-6e"/>
     <use xlink:href="#DejaVuSans-20" transform="translate(63.378906 0)"/>
     <use xlink:href="#DejaVuSans-3d" transform="translate(95.166016 0)"/>
     <use xlink:href="#DejaVuSans-20" transform="translate(178.955078 0)"/>
     <use xlink:href="#DejaVuSans-61" transform="translate(210.742188 0)"/>
     <use xlink:href="#DejaVuSans-64" transform="translate(272.021484 0)"/>
     <use xlink:href="#DejaVuSans-6a" transform="translate(335.498047 0)"/>
     <use xlink:href="#DejaVuSans-75" transform="translate(363.28125 0)"/>
     <use xlink:href="#DejaVuSans-64" transform="translate(426.660156 0)"/>
     <use xlink:href="#DejaVuSans-69" transform="translate(490.136719 0)"/>
     <use xlink:href="#DejaVuSans-63" transform="translate(517.919922 0)"/>
     <use xlink:href="#DejaVuSans-61" transform="translate(572.900391 0)"/>
     <use xlink:href="#DejaVuSans-74" transform="translate(634.179688 0)"/>
     <use xlink:href="#DejaVuSans-65" transform="translate(673.388672 0)"/>
     <use xlink:href="#DejaVuSans-64" transform="translate(734.912109 0)"/>
     <use xlink:href="#DejaVuSans-20" transform="translate(798.388672 0)"/>
     <use xlink:href="#DejaVuSans-63" transform="translate(830.175781 0)"/>
     <use xlink:href="#DejaVuSans-6f" transform="translate(885.15625 0)"/>
     <use xlink:href="#DejaVuSans-6e" transform="translate(946.337891 0)"/>
     <use xlink:href="#DejaVuSans-74" transform="translate(1009.716797 0)"/>
     <use xlink:href="#DejaVuSans-65" transform="translate(1048.925781 0)"/>
     <use xlink:href="#DejaVuSans-73" transform="translate(1110.449219 0)"/>
     <use xlink:href="#DejaVuSans-74" transform="translate(1162.548828 0)"/>
     <use xlink:href="#DejaVuSans-73" transform="translate(1201.757812 0)"/>
     <use xlink:href="#DejaVuSans-20" transform="translate(1253.857422 0)"/>
     <use xlink:href="#DejaVuSans-61" transform="translate(1285.644531 0)"/>
     <use xlink:href="#DejaVuSans-74" transform="translate(1346.923828 0)"/>
     <use xlink:href="#DejaVuSans-20" transform="translate(1386.132812 0)"/>
     <use xlink:href="#DejaVuSans-65" transform="translate(1417.919922 0)"/>
     <use xlink:href="#DejaVuSans-61" transform="translate(1479.443359 0)"/>
     <use xlink:href="#DejaVuSans-63" transform="translate(1540.722656 0)"/>
     <use xlink:href="#DejaVuSans-68" transform="translate(1595.703125 0)"/>
     <use xlink:href="#DejaVuSans-20" transform="translate(1659.082031 0)"/>
     <use xlink:href="#DejaVuSans-63" transform="translate(1690.869141 0)"/>
     <use xlink:href="#DejaVuSans-6f" transform="translate(1745.849609 0)"/>
     <use xlink:href="#DejaVuSans-6e" transform="translate(1807.03125 0)"/>
     <use xlink:href="#DejaVuSans-66" transform="translate(1870.410156 0)"/>
     <use xlink:href="#DejaVuSans-69" transform="translate(1905.615234 0)"/>
     <use xlink:href="#DejaVuSans-64" transform="translate(1933.398438 0)"/>
     <use xlink:href="#DejaVuSans-65" transform="translate(1996.875 0)"/>
     <use xlink:href="#DejaVuSans-6e" transform="translate(2058.398438 0)"/>
     <use xlink:href="#DejaVuSans-63" transform="translate(2121.777344 0)"/>
     <use xlink:href="#DejaVuSans-65" transform="translate(2176.757812 0)"/>
     <use xlink:href="#DejaVuSans-20" transform="translate(2238.28125 0)"/>
     <use xlink:href="#DejaVuSans-6c" transform="translate(2270.068359 0)"/>
     <use xlink:href="#DejaVuSans-65" transform="translate(2297.851562 0)"/>
     <use xlink:href="#DejaVuSans-76" transform="translate(2359.375 0)"/>
     <use xlink:href="#DejaVuSans-65" transform="translate(2418.554688 0)"/>
     <use xlink:href="#DejaVuSans-6c" transform="translate(2480.078125 0)"/>
     <use xlink:href="#DejaVuSans-20" transform="translate(2507.861328 0)"/>
     <use xlink:href="#DejaVuSans-28" transform="translate(2539.648438 0)"/>
     <use xlink:href="#DejaVuSans-31" transform="translate(2578.662109 0)"/>
     <use xlink:href="#DejaVuSans-37" transform="translate(2642.285156 0)"/>
     <use xlink:href="#DejaVuSans-20" transform="translate(2705.908203 0)"/>
     <use xlink:href="#DejaVuSans-74" transform="translate(2737.695312 0)"/>
     <use xlink:href="#DejaVuSans-6f" transform="translate(2776.904297 0)"/>
     <use xlink:href="#DejaVuSans-74" transform="translate(2838.085938 0)"/>
     <use xlink:href="#DejaVuSans-61" transform="translate(2877.294922 0)"/>
     <use xlink:href="#DejaVuSans-6c" transform="translate(2938.574219 0)"/>
     <use xlink:href="#DejaVuSans-29" transform="translate(2966.357422 0)"/>
     <use xlink:href="#DejaVuSans-2e" transform="translate(3005.371094 0)"/>
     <use xlink:href="#DejaVuSans-20" transform="translate(3037.158203 0)"/>
     <use xlink:href="#DejaVuSans-41" transform="translate(3068.945312 0)"/>
     <use xlink:href="#DejaVuSans-67" transform="translate(3137.353516 0)"/>
     <use xlink:href="#DejaVuSans-72" transform="translate(3200.830078 0)"/>
     <use xlink:href="#DejaVuSans-65" transform="translate(3239.693359 0)"/>
     <use xlink:href="#DejaVuSans-65" transform="translate(3301.216797 0)"/>
     <use xlink:href="#DejaVuSans-6d" transform="translate(3362.740234 0)"/>
     <use xlink:href="#DejaVuSans-65" transform="translate(3460.152344 0)"/>
     <use xlink:href="#DejaVuSans-6e" transform="translate(3521.675781 0)"/>
     <use xlink:href="#DejaVuSans-74" transform="translate(3585.054688 0)"/>
     <use xlink:href="#DejaVuSans-20" transform="translate(3624.263672 0)"/>
     <use xlink:href="#DejaVuSans-6f" transform="translate(3656.050781 0)"/>
     <use xlink:href="#DejaVuSans-76" transform="translate(3717.232422 0)"/>
     <use xlink:href="#DejaVuSans-65" transform="translate(3776.412109 0)"/>
     <use xlink:href="#DejaVuSans-72" transform="translate(3837.935547 0)"/>
     <use xlink:href="#DejaVuSans-20" transform="translate(3879.048828 0)"/>
     <use xlink:href="#DejaVuSans-61" transform="translate(3910.835938 0)"/>
     <use xlink:href="#DejaVuSans-6c" transform="translate(3972.115234 0)"/>
     <use xlink:href="#DejaVuSans-6c" transform="translate(3999.898438 0)"/>
     <use xlink:href="#DejaVuSans-20" transform="translate(4027.681641 0)"/>
     <use xlink:href="#DejaVuSans-6d" transform="translate(4059.46875 0)"/>
     <use xlink:href="#DejaVuSans-61" transform="translate(4156.880859 0)"/>
     <use xlink:href="#DejaVuSans-74" transform="translate(4218.160156 0)"/>
     <use xlink:href="#DejaVuSans-63" transform="translate(4257.369141 0)"/>
     <use xlink:href="#DejaVuSans-68" transform="translate(4312.349609 0)"/>
     <use xlink:href="#DejaVuSans-65" transform="translate(4375.728516 0)"/>
     <use xlink:href="#DejaVuSans-64" transform="translate(4437.251953 0)"/>
     <use xlink:href="#DejaVuSans-20" transform="translate(4500.728516 0)"/>
     <use xlink:href="#DejaVuSans-63" transform="translate(4532.515625 0)"/>
     <use xlink:href="#DejaVuSans-6f" transform="translate(4587.496094 0)"/>
     <use xlink:href="#DejaVuSans-6d" transform="translate(4648.677734 0)"/>
     <use xlink:href="#DejaVuSans-70" transform="translate(4746.089844 0)"/>
     <use xlink:href="#DejaVuSans-61" transform="translate(4809.566406 0)"/>
     <use xlink:href="#DejaVuSans-72" transform="translate(4870.845703 0)"/>
     <use xlink:href="#DejaVuSans-69" transform="translate(4911.958984 0)"/>
     <use xlink:href="#DejaVuSans-73" transform="translate(4939.742188 0)"/>
     <use xlink:href="#DejaVuSans-6f" transform="translate(4991.841797 0)"/>
     <use xlink:href="#DejaVuSans-6e" transform="translate(5053.023438 0)"/>
     <use xlink:href="#DejaVuSans-73" transform="translate(5116.402344 0)"/>
     <use xlink:href="#DejaVuSans-2e" transform="translate(5168.501953 0)"/>
    </g>
   </g>
  </g>
 </g>
 <defs>
  <clipPath id="pb04ad89539">
   <rect x="1.44" y="1.44" width="619.2" height="244.8"/>
  </clipPath>
 </defs>
</svg>
